SplineFontDB: 3.0
FontName: HiBlk
FullName: Hi. Black
FamilyName: Hi.
Weight: Black
Copyright: Copyright (c) 2015, Mew Too/Cannot Into Space Fonts, All Rights Reserved.
Version: 1.996
ItalicAngle: 0
UnderlinePosition: -100
UnderlineWidth: 50
Ascent: 800
Descent: 200
InvalidEm: 0
sfntRevision: 0x0001fefa
LayerCount: 2
Layer: 0 0 "Back" 1
Layer: 1 0 "Fore" 0
XUID: [1021 604 120746000 18749]
StyleMap: 0x0000
FSType: 0
OS2Version: 4
OS2_WeightWidthSlopeOnly: 0
OS2_UseTypoMetrics: 1
CreationTime: 1421008990
ModificationTime: 1424211043
PfmFamily: 17
TTFWeight: 400
TTFWidth: 5
LineGap: 90
VLineGap: 0
Panose: 2 0 5 3 0 0 0 0 0 0
OS2TypoAscent: 800
OS2TypoAOffset: 0
OS2TypoDescent: -200
OS2TypoDOffset: 0
OS2TypoLinegap: 90
OS2WinAscent: 813
OS2WinAOffset: 0
OS2WinDescent: 184
OS2WinDOffset: 0
HheadAscent: 813
HheadAOffset: 0
HheadDescent: -184
HheadDOffset: 0
OS2SubXSize: 650
OS2SubYSize: 699
OS2SubXOff: 0
OS2SubYOff: 140
OS2SupXSize: 650
OS2SupYSize: 699
OS2SupXOff: 0
OS2SupYOff: 479
OS2StrikeYSize: 49
OS2StrikeYPos: 258
OS2CapHeight: 617
OS2XHeight: 585
OS2FamilyClass: 2063
OS2Vendor: 'CiSf'
OS2CodePages: 00000001.00000000
OS2UnicodeRanges: 0000002f.10000000.00000000.00000000
Lookup: 3 0 0 "'salt' Stylistic Alternatives in Latin lookup 0" { "'salt' Stylistic Alternatives in Latin lookup 0 subtable"  } ['salt' ('DFLT' <'dflt' > 'latn' <'dflt' > ) ]
Lookup: 4 0 1 "'liga' Standard Ligatures lookup 1" { "'liga' Standard Ligatures lookup 1 subtable"  } ['liga' ('DFLT' <'dflt' > ) ]
Lookup: 258 0 0 "'kern' Horizontal Kerning lookup 0" { "'kern' Horizontal Kerning lookup 0 subtable"  } ['kern' ('DFLT' <'dflt' > 'arab' <'dflt' > 'latn' <'dflt' > ) ]
MarkAttachClasses: 1
DEI: 91125

StartChar: .notdef
Encoding: 65536 -1 0
Width: 542
Flags: MW
HStem: -10 70<131 411 131 481> 473 70<131 411 131 131>
VStem: 61 70<60 60 60 473> 411 70<60 473 473 473>
LayerCount: 2
Back
Fore
SplineSet
61 -10 m 1
 61 543 l 1
 481 543 l 1
 481 -10 l 1
 61 -10 l 1
131 60 m 1
 411 60 l 1
 411 473 l 1
 131 473 l 1
 131 60 l 1
EndSplineSet
EndChar

StartChar: space
Encoding: 32 32 1
Width: 129
GlyphClass: 2
Flags: MW
HStem: 392 20<54.5 74.5 54.5 74.5>
VStem: 54.5 20<392 412 392 412>
LayerCount: 2
Back
Fore
SplineSet
54.5 412 m 1
 74.5 412 l 1
 74.5 392 l 1
 54.5 392 l 1
 54.5 412 l 1
EndSplineSet
EndChar

StartChar: exclam
Encoding: 33 33 2
Width: 219
GlyphClass: 2
Flags: MW
HStem: -10.25 112.5<93.3081 124.307>
VStem: 55.125 108.75<31.0732 60.9268> 62.4961 94.0996<155.997 156 156 156.178>
LayerCount: 2
Back
Fore
SplineSet
55.125 46 m 0xc0
 55.125 75.853515625 77.7412109375 102.25 108.875 102.25 c 0
 139.73828125 102.25 163.875 76.2333984375 163.875 46 c 0
 163.875 15.7666015625 139.73828125 -10.25 108.875 -10.25 c 0
 77.7412109375 -10.25 55.125 16.146484375 55.125 46 c 0xc0
62.4912109375 552.432617188 m 0
 63.3671875 576.069335938 85.7734375 590 109.545898438 590 c 0
 133.939453125 590 155.961914062 574.473632812 156.595703125 552.142578125 c 2
 156.595703125 156 l 2
 156.595703125 133.260742188 133.696289062 118 109.545898438 118 c 0
 85.322265625 118 62.4951171875 133.46875 62.49609375 155.997070312 c 0xa0
 62.49609375 156.358398438 62.3486328125 550.955078125 62.4912109375 552.432617188 c 0
EndSplineSet
EndChar

StartChar: quotedbl
Encoding: 34 34 3
Width: 373
GlyphClass: 2
Flags: MW
HStem: 597.5 112.5<123.382 140.586 244.382 261.586>
VStem: 85.1992 108.734 206.199 108.734
LayerCount: 2
Back
Fore
SplineSet
323.114257812 580.373046875 m 0
 315.928710938 558.817382812 262.46484375 551.836914062 229.997070312 547.583984375 c 2
 167.971679688 539.4609375 l 1
 224.374023438 566.515625 l 2
 249.415039062 578.528320312 263.958007812 583.793945312 269.1953125 598.280273438 c 1
 265.423828125 597.64453125 263.223632812 597.5 259.94921875 597.5 c 0
 228.815429688 597.5 206.19921875 623.896484375 206.19921875 653.75 c 0
 206.19921875 683.603515625 228.815429688 710 259.94921875 710 c 0
 291.646484375 710 313.905273438 682.928710938 314.93359375 655.028320312 c 1
 320.119140625 634.301757812 331.323242188 601.717773438 323.114257812 580.373046875 c 0
202.114257812 580.373046875 m 0
 194.928710938 558.817382812 141.46484375 551.836914062 108.997070312 547.583984375 c 2
 46.9716796875 539.4609375 l 1
 103.374023438 566.515625 l 2
 128.415039062 578.528320312 142.958007812 583.793945312 148.1953125 598.280273438 c 1
 144.423828125 597.64453125 142.223632812 597.5 138.94921875 597.5 c 0
 107.815429688 597.5 85.19921875 623.896484375 85.19921875 653.75 c 0
 85.19921875 683.603515625 107.815429688 710 138.94921875 710 c 0
 170.646484375 710 192.905273438 682.928710938 193.93359375 655.028320312 c 1
 199.119140625 634.301757812 210.323242188 601.717773438 202.114257812 580.373046875 c 0
EndSplineSet
EndChar

StartChar: numbersign
Encoding: 35 35 4
Width: 811
GlyphClass: 2
Flags: MW
HStem: 161.989 89.5059<198.811 231.729> 333.656 89.4678<575.445 608.374>
LayerCount: 2
Back
Fore
SplineSet
668.564453125 586.6640625 m 2
 608.374023438 423.124023438 l 1
 715.456054688 422.73828125 l 2
 737.048828125 422.661132812 759.018554688 404.057617188 767.323242188 381.237304688 c 0
 769.431640625 375.4453125 770.495117188 369.739257812 770.478515625 364.290039062 c 0
 770.426757812 347.1171875 758.57421875 333.041992188 740.729492188 333.107421875 c 2
 575.4453125 333.65625 l 1
 544.791992188 250.370117188 l 1
 669.133789062 249.921875 l 2
 690.7265625 249.844726562 712.696289062 231.241210938 721.000976562 208.420898438 c 0
 723.109375 202.62890625 724.172851562 196.922851562 724.15625 191.473632812 c 0
 724.104492188 174.30078125 712.251953125 160.225585938 694.407226562 160.291015625 c 2
 511.861328125 160.897460938 l 1
 461.677734375 24.546875 l 2
 454.219726562 4.28125 429.224609375 -10 404.938476562 -10 c 0
 398.775390625 -10 393.05078125 -9.0478515625 387.934570312 -7.1689453125 c 0
 371.815429688 -1.24609375 362.64453125 14.7060546875 368.80859375 31.451171875 c 2
 416.52734375 161.220703125 l 1
 294.13671875 161.64453125 l 1
 243.677734375 24.546875 l 2
 236.219726562 4.28125 211.224609375 -10 186.938476562 -10 c 0
 180.775390625 -10 175.05078125 -9.0478515625 169.934570312 -7.1689453125 c 0
 153.815429688 -1.24609375 144.64453125 14.7060546875 150.80859375 31.451171875 c 2
 198.810546875 161.989257812 l 1
 134.4453125 162.228515625 96.9482421875 162.333984375 95.4423828125 162.43359375 c 0
 72.5302734375 163.20703125 51.900390625 181.375976562 43.6845703125 203.946289062 c 0
 41.7314453125 209.310546875 40.669921875 214.586914062 40.5341796875 219.658203125 c 0
 40.0595703125 237.372070312 51.89453125 251.681640625 70.1552734375 252.076171875 c 2
 231.729492188 251.495117188 l 1
 262.3515625 334.743164062 l 1
 189.004882812 335.010742188 143.125976562 335.153320312 141.7109375 335.250976562 c 0
 118.893554688 336.022460938 98.220703125 354.197265625 90.0068359375 376.762695312 c 0
 88.0537109375 382.126953125 86.9921875 387.403320312 86.8564453125 392.474609375 c 0
 86.3818359375 410.188476562 98.216796875 424.498046875 116.477539062 424.892578125 c 2
 298.786132812 424.237304688 l 2
 298.78515625 424.037109375 338.994140625 552.545898438 357.739257812 593.711914062 c 0
 366.1953125 614.709960938 390.385742188 628 414.391601562 628 c 0
 420.100585938 628 425.419921875 627.194335938 430.233398438 625.586914062 c 0
 447.0390625 619.973632812 456.440429688 603.958984375 450.564453125 586.6640625 c 2
 390.663085938 423.907226562 l 1
 512.99609375 423.466796875 l 1
 550.001953125 524.024414062 574.547851562 591.096679688 575.786132812 593.814453125 c 2
 575.786132812 593.814453125 614.96875 628 632.391601562 628 c 0
 638.100585938 628 643.419921875 627.194335938 648.233398438 625.586914062 c 0
 665.055664062 619.967773438 674.375 603.771484375 668.564453125 586.6640625 c 2
357.719726562 334.401367188 m 1
 327.081054688 251.153320312 l 1
 449.442382812 250.711914062 l 1
 480.071289062 333.978515625 l 1
 357.719726562 334.401367188 l 1
EndSplineSet
AlternateSubs2: "'salt' Stylistic Alternatives in Latin lookup 0 subtable" uniE008
EndChar

StartChar: dollar
Encoding: 36 36 5
Width: 580
GlyphClass: 2
Flags: MW
HStem: 67.4688 75.5742<71.0073 80.4668> 255.802 76.29<336.729 336.729> 439.559 73.0068<336.729 336.729>
VStem: 47.5498 80.4307 234.5 102.229 450.597 81.8535<192.972 217.718>
LayerCount: 2
Back
Fore
SplineSet
398.465820312 256.174804688 m 2
 393.98828125 256.609375 368.715820312 255.999023438 336.728515625 255.801757812 c 1
 336.728515625 144.602539062 l 1
 408.796875 150.338867188 450.596679688 170.662109375 450.596679688 215.28125 c 0
 450.596679688 220.154296875 452.000976562 221.208007812 452.0234375 226.655273438 c 0
 452.064453125 236.520507812 450.275390625 256.108398438 400.487304688 256.037109375 c 2
 398.991210938 256.03515625 l 1
 398.465820312 256.174804688 l 2
179.459960938 331.59375 m 2
 179.459960938 331.59375 202.422851562 331.725585938 234.450195312 331.842773438 c 1
 234.443359375 372.392578125 234.443359375 408.686523438 234.443359375 442.231445312 c 1
 166.241210938 435.217773438 129.403320312 414.987304688 129.403320312 372.349609375 c 0
 129.403320312 367.55078125 128.068359375 366.581054688 127.98046875 361.383789062 c 0
 127.815429688 351.469726562 129.22265625 331.4609375 179.459960938 331.59375 c 2
285.634765625 590 m 0
 311.974609375 590 336.03125 574.657226562 336.728515625 552.145507812 c 2
 336.728515625 512.565429688 l 1
 442.376953125 512.453125 497.944335938 512.081054688 499.533203125 512.071289062 c 0
 518.370117188 512.071289062 530.5 494.05078125 530.5 475.806640625 c 0
 530.5 457.559570312 518.3984375 439.540039062 499.498046875 439.540039062 c 2
 336.728515625 439.55859375 l 1
 336.728515625 332.091796875 l 1
 359.284179688 332.122070312 377.307617188 332.134765625 400.47265625 332.134765625 c 0
 410.438476562 332.134765625 420.380859375 332.5078125 430.415039062 332.509765625 c 0
 480.008789062 332.515625 532.450195312 319.549804688 532.450195312 215.28125 c 0
 532.450195312 102.357421875 443.961914062 72.890625 336.728515625 67.8310546875 c 1
 336.728515625 28 l 2
 336.728515625 5.0751953125 311.693359375 -10 285.634765625 -10 c 0
 259.486328125 -10 234.541992188 5.2802734375 234.54296875 27.99609375 c 2
 234.528320312 66.962890625 l 1
 136.5546875 67.087890625 81.1259765625 67.46484375 80.466796875 67.46875 c 0
 61.541015625 67.46875 49.5 86.3203125 49.5 105.255859375 c 0
 49.5 124.194335938 61.5126953125 143.04296875 80.501953125 143.04296875 c 2
 234.5 143.025390625 l 1
 234.465820312 255.533203125 l 1
 216.120117188 255.508789062 199.138671875 255.49609375 179.52734375 255.49609375 c 0
 169.561523438 255.49609375 159.619140625 255.123046875 149.584960938 255.12109375 c 0
 100.05078125 255.115234375 47.5498046875 267.630859375 47.5498046875 368.577148438 c 0
 47.5498046875 474.96875 131.5859375 504.83984375 234.462890625 510.814453125 c 1
 234.479492188 539.8046875 234.48828125 550.283203125 234.489257812 551.268554688 c 0
 235.525390625 576.862304688 259.993164062 590 285.634765625 590 c 0
EndSplineSet
EndChar

StartChar: percent
Encoding: 37 37 6
Width: 650
GlyphClass: 2
Flags: MW
HStem: -20 21G<118.044 134.241> -10.4404 78.2041<461.5 492.917 461.5 514.193> 165.436 78.2041<461.501 492.918> 373.92 78.2041<156.979 188.604 156.979 210.9> 539.796 78.2041<156.98 188.606>
VStem: 39.4678 78.7363<484.824 507.095 484.824 529.872> 229.646 83.543<484.886 507.034> 336.811 83.543<104.139 129.061 104.139 151.921> 531.796 78.7363<104.073 129.126>
LayerCount: 2
Back
Fore
SplineSet
118.204101562 495.959960938 m 0x3f80
 118.204101562 473.688476562 141.553710938 452.124023438 172.404296875 452.124023438 c 0
 204.8046875 452.124023438 229.646484375 473.8125 229.646484375 495.959960938 c 0
 229.646484375 518.108398438 204.80859375 539.795898438 172.404296875 539.795898438 c 0
 141.556640625 539.795898438 118.204101562 518.23046875 118.204101562 495.959960938 c 0x3f80
39.4677734375 495.959960938 m 0
 39.4677734375 563.783203125 99.2978515625 618 172.404296875 618 c 0
 249.396484375 618 313.189453125 563.916015625 313.189453125 495.959960938 c 0
 313.189453125 428.004882812 249.396484375 373.919921875 172.404296875 373.919921875 c 0
 99.2978515625 373.919921875 39.4677734375 428.13671875 39.4677734375 495.959960938 c 0
531.795898438 116.599609375 m 0
 531.795898438 141.65234375 508.241210938 165.435546875 477.595703125 165.435546875 c 0
 445.407226562 165.435546875 420.353515625 141.521484375 420.353515625 116.599609375 c 0
 420.353515625 91.677734375 445.405273438 67.763671875 477.595703125 67.763671875 c 0x7f80
 508.23828125 67.763671875 531.795898438 91.546875 531.795898438 116.599609375 c 0
610.532226562 116.599609375 m 0
 610.532226562 46.0908203125 550.791015625 -10.4404296875 477.595703125 -10.4404296875 c 0
 400.512695312 -10.4404296875 336.810546875 45.955078125 336.810546875 116.599609375 c 0
 336.810546875 187.243164062 400.513671875 243.639648438 477.595703125 243.639648438 c 0
 550.790039062 243.639648438 610.532226562 187.109375 610.532226562 116.599609375 c 0
527.32421875 618 m 0
 534.922851562 618 541.774414062 616.595703125 547.491210938 613.432617188 c 0
 562.05078125 605.381835938 563.650390625 588.5625 555.444335938 574.771484375 c 2
 186.369140625 12.646484375 l 2
 174.015625 -5.953125 146.419921875 -20 122.0625 -20 c 0xbf80
 114.025390625 -20 106.791992188 -18.404296875 100.884765625 -14.8427734375 c 0
 87.064453125 -6.5087890625 85.689453125 9.9921875 93.9873046875 23.2998046875 c 0
 94.21875 23.6689453125 462.323242188 584.571289062 463.251953125 585.751953125 c 2
 463.251953125 585.751953125 513.682617188 618 527.32421875 618 c 0
EndSplineSet
EndChar

StartChar: ampersand
Encoding: 38 38 7
Width: 811
GlyphClass: 2
Flags: MW
HStem: -10 94.0996<79.5254 557.396> 242.633 94.167 354.005 94.0947<378.967 589.486> 495.426 94.7959<351.822 452.485>
VStem: 557.396 94.1289<84.0996 84.0996>
LayerCount: 2
Back
Fore
SplineSet
234.490234375 336.799804688 m 2
 240.860351562 337.266601562 248.041015625 337.521484375 255.125 337.521484375 c 0
 407.880859375 337.521484375 417.18359375 336.959960938 418.83984375 336.782226562 c 2
 418.83984375 336.782226562 456.125 312.880859375 456.125 289.75 c 0
 456.125 264.462890625 440.700195312 244.137695312 418.314453125 242.668945312 c 0
 416.912109375 242.529296875 327.639648438 242.59765625 249.494140625 242.6328125 c 0
 170.326171875 240.03515625 182.766601562 179.439453125 156.727539062 84.099609375 c 1
 557.396484375 84.099609375 l 1
 557.359375 148.612304688 557.310546875 264.755859375 557.345703125 353.912109375 c 1
 457.116210938 353.896484375 381.985351562 353.732421875 378.966796875 354.004882812 c 2
 378.966796875 354.004882812 341.474609375 377.935546875 341.474609375 401.049804688 c 0
 341.474609375 425.444335938 356.895507812 447.461914062 379.33203125 448.099609375 c 2
 589.486328125 448.099609375 l 2
 595.630859375 449.6875 599.102539062 450.049804688 604.474609375 450.049804688 c 0
 609.737304688 450.049804688 617.275390625 448.631835938 619.396484375 448.099609375 c 2
 731.474609375 448.099609375 l 2
 754.213867188 448.099609375 769.474609375 425.200195312 769.474609375 401.049804688 c 0
 769.474609375 376.826171875 754.001953125 353.999023438 731.482421875 354 c 2
 651.525390625 353.939453125 l 1
 651.525390625 37.0498046875 l 2
 651.525390625 11.7626953125 636.161132812 -8.55859375 613.627929688 -10.037109375 c 0
 611.265625 -10.2626953125 79.5595703125 -10 79.525390625 -10 c 0
 57.0009765625 -10.0009765625 41.525390625 12.84375 41.525390625 37.0498046875 c 0
 41.525390625 129.141601562 56.1181640625 213.479492188 98.2587890625 268.422851562 c 1
 95.2275390625 275.778320312 94.125 282.000976562 94.125 289.75 c 0
 94.125 455.467773438 229.7578125 590.221679688 396.724609375 590.221679688 c 0
 517.860351562 590.221679688 533.249023438 590.528320312 538.345703125 589.29296875 c 0
 561.708984375 586.044921875 572.724609375 565.014648438 572.724609375 542.450195312 c 0
 572.724609375 518.282226562 557.48046875 495.400390625 534.71484375 495.400390625 c 2
 534.71484375 495.400390625 508.24609375 495.42578125 396.724609375 495.42578125 c 0
 306.918945312 495.42578125 241.58984375 426.5546875 209.825195312 336.799804688 c 1
 234.490234375 336.799804688 l 2
EndSplineSet
EndChar

StartChar: quotesingle
Encoding: 39 39 8
Width: 252
GlyphClass: 2
Flags: MW
HStem: 597.5 112.5<123.382 140.586>
VStem: 85.1992 108.734
LayerCount: 2
Back
Fore
SplineSet
202.114257812 580.373046875 m 0
 194.928710938 558.817382812 141.46484375 551.836914062 108.997070312 547.583984375 c 2
 46.9716796875 539.4609375 l 1
 103.374023438 566.515625 l 2
 128.415039062 578.528320312 142.958007812 583.793945312 148.1953125 598.280273438 c 1
 144.423828125 597.64453125 142.223632812 597.5 138.94921875 597.5 c 0
 107.815429688 597.5 85.19921875 623.896484375 85.19921875 653.75 c 0
 85.19921875 683.603515625 107.815429688 710 138.94921875 710 c 0
 170.646484375 710 192.905273438 682.928710938 193.93359375 655.028320312 c 1
 199.119140625 634.301757812 210.323242188 601.717773438 202.114257812 580.373046875 c 0
EndSplineSet
EndChar

StartChar: parenleft
Encoding: 40 40 9
Width: 416
GlyphClass: 2
Flags: MW
HStem: -10.1719 20.543 570.229 20.543
VStem: 42.8115 102.471<231.574 349.026 231.574 371.75>
LayerCount: 2
Back
Fore
SplineSet
322.37109375 10.37109375 m 1
 334.803710938 10.302734375 344.534179688 10.240234375 352.297851562 10.173828125 c 0
 352.607421875 10.2216796875 373.188476562 15.3212890625 373.188476562 0.0087890625 c 0
 373.188476562 -17.5986328125 334.481445312 -10.171875 291.411132812 -10.171875 c 0
 122.57421875 -10.171875 42.8115234375 127.399414062 42.8115234375 290.299804688 c 0
 42.8115234375 453.200195312 122.57421875 590.771484375 291.411132812 590.771484375 c 0
 345.236328125 590.771484375 361.041992188 591.87890625 366.397460938 590.064453125 c 0
 381.509765625 584.9375 354.262695312 570.740234375 354.262695312 570.740234375 c 1
 353.44140625 570.435546875 l 1
 352.56640625 570.427734375 l 2
 344.627929688 570.358398438 332.780273438 570.286132812 322.37109375 570.228515625 c 1
 327.508789062 560.780273438 329.411132812 553.096679688 329.411132812 543.025390625 c 0
 329.411132812 518.857421875 314.16015625 495.975585938 291.411132812 495.975585938 c 0
 188.212890625 495.975585938 145.282226562 407.752929688 145.282226562 290.299804688 c 0
 145.282226562 172.848632812 188.215820312 84.6240234375 291.411132812 84.6240234375 c 0
 314.150390625 84.6240234375 329.411132812 61.7255859375 329.411132812 37.57421875 c 0
 329.411132812 27.4765625 326.634765625 18.2119140625 322.37109375 10.37109375 c 1
EndSplineSet
EndChar

StartChar: parenright
Encoding: 41 41 10
Width: 418
GlyphClass: 2
Flags: MW
HStem: -10.1719 20.3438 569.551 21.2207
VStem: 271.718 102.471<231.573 349.025>
LayerCount: 2
Back
Fore
SplineSet
94.4248046875 10.3701171875 m 1
 89.2548828125 19.2568359375 87.5888671875 27.361328125 87.5888671875 37.57421875 c 0
 87.5888671875 61.7421875 102.83984375 84.6240234375 125.588867188 84.6240234375 c 0
 228.787109375 84.6240234375 271.717773438 172.846679688 271.717773438 290.299804688 c 0
 271.717773438 407.750976562 228.78515625 495.975585938 125.588867188 495.975585938 c 0
 102.849609375 495.975585938 87.5888671875 518.874023438 87.5888671875 543.025390625 c 0
 87.5888671875 552.998046875 90.5166015625 562.6640625 94.49609375 569.982421875 c 1
 87.154296875 569.751953125 82.205078125 569.5625 75.4677734375 569.55078125 c 0
 64.6064453125 569.532226562 43.8115234375 568.077148438 43.8115234375 580.590820312 c 0
 43.8115234375 598.198242188 82.5185546875 590.771484375 125.588867188 590.771484375 c 0
 294.42578125 590.771484375 374.188476562 453.200195312 374.188476562 290.299804688 c 0
 374.188476562 127.399414062 294.426757812 -10.171875 125.588867188 -10.171875 c 0
 71.7646484375 -10.171875 55.958984375 -11.279296875 50.6025390625 -9.46484375 c 0
 35.490234375 -4.337890625 62.73828125 9.859375 62.73828125 9.859375 c 1
 63.5595703125 10.1640625 l 1
 64.4345703125 10.171875 l 2
 72.2373046875 10.240234375 84.4921875 10.3154296875 94.4248046875 10.3701171875 c 1
EndSplineSet
EndChar

StartChar: asterisk
Encoding: 42 42 11
Width: 352
GlyphClass: 2
Flags: MW
HStem: 597.58 49.6787<235.958 288.543 235.958 235.975>
VStem: 151.142 49.6787<682 682>
LayerCount: 2
Back
Fore
SplineSet
200.8203125 734.943359375 m 2
 200.8203125 682.375 l 1
 225.032226562 706.594726562 235.985351562 717.625 238.837890625 720.286132812 c 0
 249.76171875 729.735351562 262.500976562 723.583007812 268.861328125 717.837890625 c 0
 275.90625 711.473632812 284.609375 696.578125 273.129882812 684.4296875 c 2
 235.958007812 647.258789062 l 1
 270.135742188 647.26171875 285.91796875 647.311523438 289.489257812 647.190429688 c 2
 289.63671875 647.185546875 l 1
 289.784179688 647.171875 l 2
 303.025390625 645.934570312 309.599609375 633.602539062 309.599609375 622.400390625 c 0
 309.599609375 610.581054688 302.080078125 597.96484375 288.54296875 597.580078125 c 2
 235.974609375 597.580078125 l 1
 260.194335938 573.368164062 271.224609375 562.415039062 273.885742188 559.5625 c 0
 283.334960938 548.638671875 277.182617188 535.899414062 271.4375 529.5390625 c 0
 265.073242188 522.494140625 250.177734375 513.791015625 238.029296875 525.270507812 c 2
 200.8203125 562.479492188 l 1
 200.8203125 510 l 2
 200.8203125 496.270507812 187.600585938 488.80078125 176 488.80078125 c 0
 164.344726562 488.80078125 151.1796875 496.3671875 151.1796875 509.99609375 c 2
 151.163085938 562.462890625 l 1
 114.072265625 525.372070312 l 2
 103.008789062 514.307617188 88.6865234375 521.555664062 82.2060546875 527.852539062 c 0
 75.6142578125 534.2578125 67.5419921875 549.044921875 78.9677734375 560.46875 c 2
 78.9677734375 560.46875 95.560546875 577.07421875 116.055664062 597.580078125 c 1
 63.599609375 597.580078125 l 2
 49.8701171875 597.580078125 42.400390625 610.799804688 42.400390625 622.400390625 c 0
 42.400390625 634.055664062 49.966796875 647.220703125 63.595703125 647.220703125 c 2
 116.0625 647.237304688 l 1
 78.9716796875 684.328125 l 2
 67.9072265625 695.391601562 75.1552734375 709.713867188 81.4521484375 716.194335938 c 0
 87.857421875 722.786132812 102.64453125 730.858398438 114.068359375 719.432617188 c 2
 114.068359375 719.432617188 130.668945312 702.84375 151.141601562 682.3828125 c 1
 151.138671875 716.544921875 151.088867188 732.319335938 151.209960938 735.890625 c 2
 151.21484375 736.038085938 l 1
 151.228515625 736.185546875 l 2
 152.465820312 749.426757812 164.797851562 756 176 756 c 0
 187.846679688 756 200.44140625 748.25390625 200.8203125 734.943359375 c 2
EndSplineSet
AlternateSubs2: "'salt' Stylistic Alternatives in Latin lookup 0 subtable" uniE006
EndChar

StartChar: plus
Encoding: 43 43 12
Width: 586
GlyphClass: 2
Flags: MW
HStem: 261.904 94.1875<340 340> 537.954 20G<280.925 305.112>
VStem: 245.95 94.0957<97.4512 261.904>
LayerCount: 2
Back
Fore
SplineSet
504.142578125 261.904296875 m 2
 340.137695312 261.904296875 l 1
 340.153320312 168.734375 340.317382812 100.482421875 340.045898438 97.451171875 c 2
 340.045898438 97.451171875 316.114257812 59.9541015625 293 59.9541015625 c 0
 268.618164062 59.9541015625 246.590820312 75.265625 245.950195312 97.8115234375 c 2
 245.950195312 261.904296875 l 1
 82 261.904296875 l 2
 59.2607421875 261.904296875 44 284.803710938 44 308.954101562 c 0
 44 333.177734375 59.470703125 356.004882812 81.99609375 356.00390625 c 2
 81.99609375 356.00390625 158.873046875 356.041015625 245.950195312 356.068359375 c 1
 245.950195312 519.954101562 l 2
 245.950195312 542.693359375 268.849609375 557.954101562 293 557.954101562 c 0
 317.223632812 557.954101562 340.05078125 542.483398438 340.049804688 519.958007812 c 2
 340.049804688 519.958007812 340.086914062 443.122070312 340.11328125 356.091796875 c 1
 433.331054688 356.107421875 501.443359375 356.2734375 504.502929688 356 c 2
 504.502929688 356 542 332.068359375 542 308.954101562 c 0
 542 284.560546875 526.473632812 262.538085938 504.142578125 261.904296875 c 2
EndSplineSet
AlternateSubs2: "'salt' Stylistic Alternatives in Latin lookup 0 subtable" uniE005
EndChar

StartChar: comma
Encoding: 44 44 13
Width: 253
GlyphClass: 2
Flags: MW
HStem: -10.25 112.5<123.882 141.086>
VStem: 85.6992 108.734
LayerCount: 2
Back
Fore
SplineSet
202.614257812 -27.376953125 m 0
 195.428710938 -48.9326171875 141.96484375 -55.9130859375 109.497070312 -60.166015625 c 2
 47.4716796875 -68.2890625 l 1
 103.874023438 -41.234375 l 2
 128.915039062 -29.2216796875 143.458007812 -23.9560546875 148.6953125 -9.4697265625 c 1
 144.923828125 -10.10546875 142.723632812 -10.25 139.44921875 -10.25 c 0
 108.315429688 -10.25 85.69921875 16.146484375 85.69921875 46 c 0
 85.69921875 75.853515625 108.315429688 102.25 139.44921875 102.25 c 0
 171.146484375 102.25 193.405273438 75.1787109375 194.43359375 47.2783203125 c 1
 199.619140625 26.5517578125 210.823242188 -6.0322265625 202.614257812 -27.376953125 c 0
EndSplineSet
EndChar

StartChar: hyphen
Encoding: 45 45 14
Width: 612
GlyphClass: 2
Flags: MW
HStem: 261.904 94.0996<94.9971 95 95 95.1899 94.9971 517.143>
LayerCount: 2
Back
Fore
SplineSet
517.430664062 356.008789062 m 0
 541.068359375 355.1328125 555 332.7265625 555 308.954101562 c 0
 555 284.560546875 539.473632812 262.538085938 517.142578125 261.904296875 c 2
 95 261.904296875 l 2
 72.2607421875 261.904296875 57 284.803710938 57 308.954101562 c 0
 57 333.177734375 72.46875 356.004882812 94.9970703125 356.00390625 c 0
 95.3828125 356.00390625 515.926757812 356.153320312 517.430664062 356.008789062 c 0
EndSplineSet
EndChar

StartChar: period
Encoding: 46 46 15
Width: 217
GlyphClass: 2
Flags: MW
HStem: -10.25 112.5<92.3081 123.307>
VStem: 54.125 108.75<31.0732 60.9268>
LayerCount: 2
Back
Fore
SplineSet
54.125 46 m 0
 54.125 75.853515625 76.7412109375 102.25 107.875 102.25 c 0
 138.73828125 102.25 162.875 76.2333984375 162.875 46 c 0
 162.875 15.7666015625 138.73828125 -10.25 107.875 -10.25 c 0
 76.7412109375 -10.25 54.125 16.146484375 54.125 46 c 0
EndSplineSet
EndChar

StartChar: slash
Encoding: 47 47 16
Width: 379
GlyphClass: 2
Flags: MW
VStem: 39.7148 299.765
LayerCount: 2
Back
Fore
SplineSet
246.697265625 593.817382812 m 0
 255.174804688 614.869140625 279.29296875 628 303.306640625 628 c 0
 309.015625 628 314.334960938 627.194335938 319.1484375 625.586914062 c 0
 335.970703125 619.967773438 345.290039062 603.771484375 339.479492188 586.6640625 c 2
 132.592773438 24.546875 l 2
 125.134765625 4.28125 100.139648438 -10 75.853515625 -10 c 0
 69.6904296875 -10 63.9658203125 -9.0478515625 58.849609375 -7.1689453125 c 0
 42.73046875 -1.24609375 33.5654296875 14.724609375 39.71484375 31.427734375 c 0
 39.84765625 31.8017578125 246.072265625 592.486328125 246.697265625 593.817382812 c 0
EndSplineSet
EndChar

StartChar: zero
Encoding: 48 48 17
Width: 747
GlyphClass: 2
Flags: MW
HStem: -20 102.471<310.252 436.747 310.252 464.782> 482.729 102.471<310.253 436.748>
VStem: 47.7402 98.7324<229.962 335.236 229.962 366.324> 600.527 98.7324<229.962 335.236>
LayerCount: 2
Back
Fore
SplineSet
600.52734375 282.599609375 m 0
 600.52734375 387.873046875 499.995117188 482.728515625 373.5 482.728515625 c 0
 247.006835938 482.728515625 146.47265625 387.873046875 146.47265625 282.599609375 c 0
 146.47265625 177.325195312 247.004882812 82.470703125 373.5 82.470703125 c 0
 499.993164062 82.470703125 600.52734375 177.325195312 600.52734375 282.599609375 c 0
699.259765625 282.599609375 m 0
 699.259765625 115.150390625 556.064453125 -20 373.5 -20 c 0
 190.935546875 -20 47.740234375 115.150390625 47.740234375 282.599609375 c 0
 47.740234375 450.048828125 190.935546875 585.19921875 373.5 585.19921875 c 0
 556.064453125 585.19921875 699.259765625 450.048828125 699.259765625 282.599609375 c 0
EndSplineSet
AlternateSubs2: "'salt' Stylistic Alternatives in Latin lookup 0 subtable" uniE019
EndChar

StartChar: one
Encoding: 49 49 18
Width: 318
GlyphClass: 2
Flags: MW
VStem: 174.341 94.0996<27.998 27.998>
LayerCount: 2
Back
Fore
SplineSet
221.772460938 590 m 0
 245.193359375 590 267.76171875 579.234375 268.440429688 561.845703125 c 2
 268.440429688 28 l 2
 268.440429688 10.57421875 244.861328125 0 221.390625 0 c 0
 197.857421875 0 174.33984375 10.7294921875 174.340820312 27.998046875 c 2
 174.340820312 27.998046875 174.240234375 275.856445312 174.249023438 434.315429688 c 1
 125.443359375 392.16796875 l 2
 109.466796875 376.192382812 82.3935546875 381.590820312 65.421875 398.561523438 c 0
 47.9853515625 413.8125 43.734375 437.47265625 58.673828125 451.407226562 c 0
 60.8544921875 453.583984375 168.674804688 561.267578125 169.45703125 562.010742188 c 0
 177.978515625 570.001953125 190.549804688 592.219726562 221.772460938 590 c 0
EndSplineSet
EndChar

StartChar: two
Encoding: 50 50 19
Width: 731
GlyphClass: 2
Flags: MW
HStem: -10.292 95.4902 200.55 94.7959<184.707 223.636> 483.976 94.7959<359 422.934>
VStem: 49.4004 102.471<113.781 142.172 113.781 221.392> 579.129 102.471<358.842 439.684>
LayerCount: 2
Back
Fore
SplineSet
642 85.2236328125 m 2
 664.739257812 85.2236328125 680 62.3251953125 680 38.173828125 c 0
 680 14.009765625 664.756835938 -8.8759765625 642.033203125 -8.8759765625 c 2
 642.033203125 -8.8759765625 532.166015625 -9.59765625 361.809570312 -9.59765625 c 0
 329.252929688 -9.59765625 297.745117188 -10.2861328125 267.990234375 -10.2919921875 c 0
 145.603515625 -10.318359375 49.400390625 3.0009765625 49.400390625 137.874023438 c 0
 49.400390625 304.91015625 148.4140625 295.345703125 221 295.345703125 c 0
 385.186523438 295.345703125 505.690429688 294.624023438 505.690429688 294.624023438 c 2
 557.508789062 294.624023438 579.12890625 329.334960938 579.12890625 388.348632812 c 0
 579.12890625 491.018554688 486.868164062 483.975585938 359 483.975585938 c 2
 89 483.950195312 l 2
 66.2607421875 483.950195312 51 506.848632812 51 531 c 0
 51 555.16796875 66.2734375 578.049804688 88.966796875 578.049804688 c 2
 88.966796875 578.049804688 197.447265625 578.771484375 359 578.771484375 c 0
 537.532226562 578.771484375 681.599609375 553.557617188 681.599609375 388.326171875 c 0
 681.599609375 241.361328125 610.689453125 199.828125 508.384765625 199.828125 c 0
 338.028320312 199.828125 223.635742188 200.549804688 223.635742188 200.549804688 c 2
 118.698242188 200.549804688 151.87109375 146.469726562 151.87109375 137.874023438 c 0
 151.87109375 89.6875 238.373046875 85.1982421875 361.809570312 85.1982421875 c 2
 642 85.2236328125 l 2
EndSplineSet
EndChar

StartChar: three
Encoding: 51 51 20
Width: 807
GlyphClass: 2
Flags: MW
HStem: -20.1719 94.7959<392.292 505.854 392.292 537.663> 242.945 94.1045<83 83> 485.976 94.7959<450.528 505.854>
VStem: 658.656 102.471<223.632 336.967>
LayerCount: 2
Back
Fore
SplineSet
491.625 242.950195312 m 0
 491.263671875 242.950195312 84.9052734375 242.803710938 83.44140625 242.9453125 c 0
 59.8046875 243.821289062 45.873046875 266.227539062 45.873046875 290 c 0
 45.873046875 314.39453125 61.2939453125 336.412109375 83.73046875 337.049804688 c 2
 491.622070312 337.049804688 l 2
 515.55078125 337.049804688 531.1953125 312.950195312 531.1953125 289 c 0
 531.1953125 264.397460938 514.592773438 242.94921875 491.625 242.950195312 c 0
168.583984375 485.950195312 m 2
 145.788085938 485.950195312 130.52734375 508.848632812 130.52734375 533 c 0
 130.52734375 557.1640625 145.770507812 580.049804688 168.55078125 580.049804688 c 2
 168.55078125 580.049804688 281.797851562 580.771484375 450.528320312 580.771484375 c 0
 624.797851562 580.771484375 761.126953125 446.051757812 761.126953125 280.299804688 c 0
 761.126953125 114.547851562 624.797851562 -20.171875 450.528320312 -20.171875 c 0
 281.797851562 -20.171875 168.55078125 -19.4501953125 168.55078125 -19.4501953125 c 2
 145.813476562 -19.4501953125 130.52734375 3.44921875 130.52734375 27.599609375 c 0
 130.52734375 51.767578125 145.776367188 74.6494140625 168.5859375 74.6494140625 c 2
 168.5859375 74.6494140625 334.0546875 74.6240234375 450.528320312 74.6240234375 c 0
 561.1796875 74.6240234375 658.65625 166.96484375 658.65625 280.299804688 c 0
 658.65625 393.634765625 561.1796875 485.975585938 450.528320312 485.975585938 c 2
 168.583984375 485.950195312 l 2
EndSplineSet
EndChar

StartChar: four
Encoding: 52 52 21
Width: 685
GlyphClass: 2
Flags: MW
HStem: 229.242 94.7822<375.83 375.83> 505.376 84.7861<376 376>
VStem: 431.558 98.9336<27.9961 27.9961>
LayerCount: 2
Back
Fore
SplineSet
375.966796875 590.162109375 m 0
 415.360351562 591.825195312 444.416992188 590.546875 466.083007812 587.587890625 c 0
 526.5546875 579.434570312 531.567382812 555.5078125 530.516601562 547.412109375 c 2
 530.516601562 323.328125 l 1
 604.516601562 323.328125 l 2
 627.255859375 323.328125 642.516601562 300.428710938 642.516601562 276.278320312 c 0
 642.516601562 252.0546875 627.041015625 229.227539062 604.528320312 229.228515625 c 2
 604.528320312 229.228515625 572.802734375 229.19140625 530.491210938 229.166015625 c 1
 530.491210938 28 l 2
 530.491210938 5.17578125 506.698242188 -10 481.262695312 -10 c 0
 455.7734375 -10 431.555664062 5.3466796875 431.557617188 27.99609375 c 2
 431.557617188 27.99609375 431.513671875 120.236328125 431.485351562 229.13671875 c 1
 398.671875 229.142578125 377.288085938 229.137695312 375.830078125 229.2421875 c 2
 375.830078125 229.2421875 158.744140625 228.686523438 77.4013671875 229.014648438 c 2
 76.3193359375 229.01953125 l 1
 75.267578125 229.252929688 l 2
 67.2451171875 231.040039062 60.6240234375 233.4921875 55.2666015625 237.111328125 c 0
 25.1611328125 257.448242188 55.26171875 293.518554688 73.6845703125 320.377929688 c 0
 176.732421875 464.126953125 273.01171875 585.971679688 375.966796875 590.162109375 c 0
376.412109375 324.024414062 m 2
 376.412109375 324.024414062 386.432617188 324.03515625 431.465820312 324.041015625 c 1
 431.456054688 398.46484375 431.46484375 462.872070312 431.495117188 505.877929688 c 1
 414.524414062 505.794921875 399.21875 505.66015625 376.563476562 505.375976562 c 0
 339.662109375 504.915039062 291.987304688 465.225585938 191.831054688 327.688476562 c 1
 210.251953125 324.095703125 268.25390625 324.024414062 376.412109375 324.024414062 c 2
EndSplineSet
AlternateSubs2: "'salt' Stylistic Alternatives in Latin lookup 0 subtable" uniE012
EndChar

StartChar: five
Encoding: 53 53 22
Width: 730
GlyphClass: 2
Flags: MW
HStem: -10.292 94.7959<309.893 375.783 309.893 453.441> 283.855 94.7959<507.918 532.427> 483.281 94.7959<299.552 420.107>
VStem: 48.9004 98.1025 578.629 102.471<137.501 216.287>
LayerCount: 2
Back
Fore
SplineSet
48.900390625 435.438476562 m 0
 48.900390625 597.247070312 195.579101562 578.077148438 361.309570312 578.077148438 c 0
 531.999023438 578.077148438 640.8046875 577.360351562 642.143554688 577.3515625 c 0
 665.0078125 576.643554688 679.5 554.120117188 679.5 530.305664062 c 0
 679.5 506.137695312 664.250976562 483.255859375 641.498046875 483.255859375 c 2
 641.498046875 483.255859375 478.905273438 483.28125 361.309570312 483.28125 c 0
 237.793945312 483.28125 151.37109375 479.008789062 151.37109375 435.188476562 c 0
 151.37109375 428.28515625 147.180664062 424.5859375 147.002929688 414.6875 c 0
 146.760742188 401.072265625 151.967773438 377.9296875 223.135742188 377.9296875 c 2
 223.135742188 377.9296875 337.528320312 378.651367188 507.884765625 378.651367188 c 0
 610.23828125 378.651367188 681.099609375 335.994140625 681.099609375 185.1796875 c 0
 681.099609375 15.669921875 538.192382812 -10.2919921875 368.690429688 -10.2919921875 c 0
 198.333984375 -10.2919921875 88.466796875 -9.5703125 88.466796875 -9.5703125 c 2
 65.7861328125 -9.5703125 50.5 13.3291015625 50.5 37.4794921875 c 0
 50.5 61.6474609375 65.7490234375 84.529296875 88.501953125 84.529296875 c 2
 88.501953125 84.529296875 251.094726562 84.50390625 368.690429688 84.50390625 c 0
 382.875976562 84.50390625 396.809570312 84.3857421875 410.323242188 84.3828125 c 0
 511.1484375 84.3623046875 578.62890625 89.822265625 578.62890625 185.1796875 c 0
 578.62890625 247.39453125 556.936523438 283.85546875 507.91796875 283.85546875 c 2
 507.91796875 283.85546875 393.526367188 283.133789062 223.169921875 283.133789062 c 0
 213.529296875 283.133789062 203.502929688 282.948242188 193.325195312 282.943359375 c 0
 124.141601562 282.91015625 48.900390625 295.048828125 48.900390625 435.438476562 c 0
EndSplineSet
EndChar

StartChar: six
Encoding: 54 54 23
Width: 732
GlyphClass: 2
Flags: MW
HStem: -10 94.7979<366.301 368.429 366.301 371.323 363.416 368.429> 241.743 95.0342 483.573 94.7959<309.112 427.759>
VStem: 52 102.471<147.344 187.687 147.344 207.778> 580.129 102.471<147.343 186.964>
LayerCount: 2
Back
Fore
SplineSet
150.32421875 381.33984375 m 0
 148.782226562 369.158203125 147.192382812 342.794921875 203.708984375 337.245117188 c 0
 212.598632812 337.107421875 220.86328125 336.943359375 229.328125 336.943359375 c 0
 285.146484375 336.943359375 335.397460938 336.873046875 377.274414062 336.77734375 c 0
 415.6015625 336.873046875 460.733398438 336.943359375 511 336.943359375 c 0
 523.446289062 336.943359375 536.595703125 337.420898438 549.887695312 337.422851562 c 0
 615.073242188 337.431640625 682.599609375 321.627929688 682.599609375 184.471679688 c 0
 682.599609375 44.041015625 579.416015625 1.6337890625 445.283203125 -7.7109375 c 0
 444.420898438 -8.25390625 445.290039062 -7.736328125 444.413085938 -8.2568359375 c 0
 436.506835938 -12.95703125 423.443359375 -9.9931640625 371.323242188 -10 c 2
 363.416015625 -10 l 2
 313.3984375 -9.9931640625 297.166015625 -10.6298828125 289.630859375 -7.72265625 c 0
 152.995117188 1.609375 52 44.1767578125 52 184.471679688 c 0
 52 231.084960938 59.7890625 264.063476562 72.33984375 286.971679688 c 1
 56.7705078125 311.778320312 49.400390625 343.537109375 49.400390625 391.534179688 c 0
 49.400390625 550.677734375 193.384765625 578.369140625 372 578.369140625 c 0
 533.552734375 578.369140625 642.033203125 577.647460938 642.033203125 577.647460938 c 2
 664.713867188 577.647460938 680 554.748046875 680 530.59765625 c 0
 680 506.4296875 664.750976562 483.547851562 641.998046875 483.547851562 c 2
 641.998046875 483.547851562 483.518554688 483.573242188 372 483.573242188 c 0
 246.223632812 483.573242188 151.87109375 460.291015625 151.87109375 390.221679688 c 0
 151.87109375 386.116210938 150.806640625 385.1484375 150.32421875 381.33984375 c 0
223.663085938 241.42578125 m 0
 217.852539062 241.42578125 212.33203125 241.337890625 206.286132812 241.229492188 c 0
 135.46875 234.135742188 154.470703125 190.90234375 154.470703125 184.471679688 c 0
 154.470703125 110.215820312 243.369140625 85.298828125 360.888671875 84.8037109375 c 0
 363.069335938 84.8037109375 365.23046875 84.7978515625 367.37109375 84.7978515625 c 0
 369.486328125 84.7978515625 371.724609375 84.8037109375 373.805664062 84.8037109375 c 0
 491.407226562 85.298828125 580.12890625 110.213867188 580.12890625 184.471679688 c 0
 580.12890625 189.456054688 581.799804688 191.416015625 582.009765625 198.373046875 c 0
 582.471679688 213.69921875 579.326171875 239.955078125 512.91015625 241.74609375 c 0
 508.62890625 241.759765625 462.602539062 241.573242188 403.53125 241.743164062 c 0
 356.286132812 241.577148438 294.861328125 241.42578125 223.663085938 241.42578125 c 0
EndSplineSet
EndChar

StartChar: seven
Encoding: 55 55 24
Width: 726
GlyphClass: 2
Flags: MW
HStem: -20 21G<610.397 634.584> 485.976 94.7959<365.844 421.731>
VStem: 575.824 93.7207 575.824 102.48<280.456 280.456 280.456 336.958>
LayerCount: 2
Back
Fore
SplineSet
622.494140625 -20 m 0xe0
 598.30078125 -20 575.51953125 -4.7265625 575.4453125 17.97265625 c 2
 575.439453125 23.033203125 l 2
 575.53125 49.484375 575.82421875 174.561523438 575.82421875 280.299804688 c 0
 575.82421875 393.6171875 477.619140625 485.975585938 365.84375 485.975585938 c 2
 85.6953125 485.950195312 l 2
 62.955078125 485.950195312 47.6953125 508.848632812 47.6953125 533 c 0
 47.6953125 557.16796875 62.96875 580.049804688 85.662109375 580.049804688 c 2
 85.662109375 580.049804688 195.44921875 580.771484375 365.84375 580.771484375 c 0
 542.25 580.771484375 667.494140625 445.299804688 678.2734375 280.954101562 c 2
 678.3046875 280.456054688 l 1xd0
 669.544921875 17.81640625 l 2
 669.46875 -4.603515625 646.673828125 -20 622.494140625 -20 c 0xe0
EndSplineSet
EndChar

StartChar: eight
Encoding: 56 56 25
Width: 735
GlyphClass: 2
Flags: MW
HStem: -20 104.799<362.999 368.868 366.117 368.868 366.117 371.718> 241.625 95.1484<367 367> 483.57 94.7988<366.132 368.883>
VStem: 50.9004 102.471<147.397 187.706 147.397 198.538 388.135 424.873> 581.629 102.471<147.397 186.652 387.149 424.873>
LayerCount: 2
Back
Fore
SplineSet
583.217773438 194.266601562 m 0
 584.703125 207.569335938 585.747070312 235.458984375 530.547851562 241.168945312 c 0
 523.883789062 241.2890625 516.563476562 241.42578125 509.836914062 241.42578125 c 0
 456.228515625 241.42578125 408.0625 241.51171875 367.530273438 241.625 c 0
 326.860351562 241.51171875 278.810546875 241.42578125 225.163085938 241.42578125 c 0
 218.282226562 241.42578125 211.651367188 241.298828125 204.453125 241.168945312 c 0
 134.4765625 233.884765625 153.37109375 190.939453125 153.37109375 184.471679688 c 0
 153.37109375 110.323242188 241.860351562 85.369140625 359.147460938 84.8056640625 c 0
 361.94921875 84.8056640625 364.734375 84.798828125 367.5 84.798828125 c 0
 370.235351562 84.798828125 373.115234375 84.8056640625 375.80078125 84.8056640625 c 0
 493.181640625 85.3701171875 581.62890625 110.323242188 581.62890625 184.471679688 c 0
 581.62890625 188.83203125 582.73046875 189.913085938 583.217773438 194.266601562 c 0
662.485351562 279.185546875 m 1
 676.654296875 255.173828125 684.099609375 222.186523438 684.099609375 174.471679688 c 0
 684.099609375 33.1826171875 579.434570312 -8.8720703125 443.950195312 -17.8994140625 c 1
 434.872070312 -22.58984375 420.28125 -19.9912109375 373.373046875 -19.9990234375 c 0
 372.833984375 -19.9990234375 372.282226562 -20 371.717773438 -20 c 2
 363.282226562 -20 l 2
 362.715820312 -20 362.16796875 -19.9990234375 361.625 -19.9990234375 c 0
 314.2109375 -19.990234375 299.196289062 -21.9404296875 291.080078125 -17.9013671875 c 0
 152.495117188 -8.6650390625 50.900390625 33.654296875 50.900390625 174.471679688 c 0
 50.900390625 222.604492188 59.18359375 256.174804688 72.5146484375 279.18359375 c 1
 58.345703125 303.1953125 50.900390625 336.182617188 50.900390625 383.897460938 c 0
 50.900390625 525.186523438 155.565429688 567.241210938 291.049804688 576.268554688 c 1
 300.127929688 580.958984375 314.71875 578.360351562 361.626953125 578.368164062 c 0
 362.166015625 578.368164062 362.717773438 578.369140625 363.282226562 578.369140625 c 2
 371.717773438 578.369140625 l 2
 372.284179688 578.369140625 372.83203125 578.368164062 373.375 578.368164062 c 0
 420.7890625 578.359375 435.803710938 580.309570312 443.919921875 576.270507812 c 0
 582.504882812 567.034179688 684.099609375 524.71484375 684.099609375 383.897460938 c 0
 684.099609375 335.764648438 675.81640625 302.194335938 662.485351562 279.185546875 c 1
509.836914062 336.943359375 m 0
 516.80859375 336.943359375 523.5390625 337.06640625 530.836914062 337.190429688 c 0
 600.537109375 344.041015625 581.62890625 384.076171875 581.62890625 390.221679688 c 0
 581.62890625 459.5234375 493.243164062 483.034179688 375.852539062 483.563476562 c 0
 373.05078125 483.563476562 370.265625 483.5703125 367.5 483.5703125 c 0
 364.763671875 483.5703125 361.885742188 483.563476562 359.198242188 483.563476562 c 0
 241.715820312 483.034179688 153.37109375 459.5234375 153.37109375 390.221679688 c 0
 153.37109375 386.047851562 152.264648438 385.046875 151.783203125 381.00390625 c 0
 150.3125 368.663085938 149.143554688 342.564453125 204.162109375 337.190429688 c 0
 211.459960938 337.06640625 218.19140625 336.943359375 225.163085938 336.943359375 c 0
 278.74609375 336.943359375 326.841796875 336.872070312 367.487304688 336.7734375 c 0
 408.190429688 336.872070312 456.23828125 336.943359375 509.836914062 336.943359375 c 0
EndSplineSet
EndChar

StartChar: nine
Encoding: 57 57 26
Width: 755
GlyphClass: 2
Flags: MW
HStem: -10 94.7959<319.998 444.512 319.998 470.96> 241.592 95.0342 483.571 94.7979<375.091 377.108>
VStem: 50.7949 100.59 598.924 102.471<387.21 424.89>
LayerCount: 2
Back
Fore
SplineSet
603.068359375 193.904296875 m 0
 604.630859375 207.059570312 606.091796875 235.198242188 549.72265625 241.104492188 c 0
 540.849609375 241.25 532.615234375 241.42578125 524.169921875 241.42578125 c 0
 468.478515625 241.42578125 418.337890625 241.49609375 375.96875 241.591796875 c 0
 333.4765625 241.49609375 283.44140625 241.42578125 227.712890625 241.42578125 c 0
 213.90234375 241.42578125 199.32421875 240.927734375 184.599609375 240.926757812 c 0
 118.384765625 240.91796875 50.794921875 256.234375 50.794921875 389.482421875 c 0
 50.794921875 525.911132812 154.033203125 567.016601562 294.4453125 576.0859375 c 0
 295.3359375 576.618164062 294.5 576.147460938 295.404296875 576.658203125 c 0
 303.615234375 581.286132812 317.345703125 578.362304688 372.345703125 578.369140625 c 2
 379.845703125 578.369140625 l 2
 432.55078125 578.362304688 449.681640625 578.979492188 457.4609375 576.096679688 c 0
 600.333984375 567.041015625 701.39453125 525.780273438 701.39453125 389.482421875 c 0
 701.39453125 342.063476562 704.19140625 290.208007812 704.19140625 290.208007812 c 1
 704.205078125 289.94140625 l 1
 704.205078125 289.67578125 l 2
 703.994140625 184.420898438 703.994140625 235.9453125 703.994140625 184.471679688 c 0
 703.994140625 18.90234375 560.103515625 -10 381.81640625 -10 c 0
 202.7109375 -10 91.361328125 -9.2783203125 91.361328125 -9.2783203125 c 2
 68.6796875 -9.2783203125 53.39453125 13.62109375 53.39453125 37.771484375 c 0
 53.39453125 61.939453125 68.642578125 84.8212890625 91.396484375 84.8212890625 c 2
 91.396484375 84.8212890625 258.1796875 84.7958984375 381.81640625 84.7958984375 c 0
 507.20703125 84.7958984375 601.5234375 109.5 601.5234375 184.471679688 c 0
 601.5234375 188.756835938 602.580078125 189.795898438 603.068359375 193.904296875 c 0
526.984375 336.943359375 m 0
 533.107421875 336.943359375 538.935546875 337.026367188 545.302734375 337.127929688 c 0
 618.041015625 343.796875 598.923828125 384.198242188 598.923828125 390.221679688 c 0
 598.923828125 459.55859375 506.3984375 483.099609375 382.505859375 483.565429688 c 0
 380.208984375 483.565429688 378.123046875 483.571289062 376.09375 483.571289062 c 0
 374.087890625 483.571289062 371.923828125 483.565429688 369.724609375 483.565429688 c 0
 245.5546875 483.099609375 153.265625 459.559570312 153.265625 390.221679688 c 0
 153.265625 385.4375 151.59375 383.661132812 151.384765625 377.172851562 c 0
 150.9296875 363.022460938 153.8828125 338.30859375 223.037109375 336.623046875 c 0
 227.56640625 336.609375 276.0859375 336.795898438 338.380859375 336.625976562 c 0
 387.353515625 336.791992188 452.0234375 336.943359375 526.984375 336.943359375 c 0
EndSplineSet
EndChar

StartChar: colon
Encoding: 58 58 27
Width: 221
GlyphClass: 2
Flags: MW
HStem: -10.5 112.5<94.3081 125.307> 172 112.5<94.3081 125.307>
VStem: 56.125 108.75<30.8232 60.6768 213.323 243.177>
LayerCount: 2
Back
Fore
SplineSet
56.125 228.25 m 0
 56.125 258.103515625 78.7412109375 284.5 109.875 284.5 c 0
 140.73828125 284.5 164.875 258.483398438 164.875 228.25 c 0
 164.875 198.016601562 140.73828125 172 109.875 172 c 0
 78.7412109375 172 56.125 198.396484375 56.125 228.25 c 0
56.125 45.75 m 0
 56.125 75.603515625 78.7412109375 102 109.875 102 c 0
 140.73828125 102 164.875 75.9833984375 164.875 45.75 c 0
 164.875 15.5166015625 140.73828125 -10.5 109.875 -10.5 c 0
 78.7412109375 -10.5 56.125 15.896484375 56.125 45.75 c 0
EndSplineSet
EndChar

StartChar: semicolon
Encoding: 59 59 28
Width: 248
GlyphClass: 2
Flags: MW
HStem: -10.5 112.5<121.382 138.586> 172 112.5<121.382 152.381>
VStem: 83.1992 108.75<213.323 243.177>
LayerCount: 2
Back
Fore
SplineSet
200.114257812 -27.626953125 m 0
 192.928710938 -49.1826171875 139.46484375 -56.1630859375 106.997070312 -60.416015625 c 2
 44.9716796875 -68.5390625 l 1
 101.374023438 -41.484375 l 2
 126.415039062 -29.4716796875 140.958007812 -24.2060546875 146.1953125 -9.7197265625 c 1
 142.423828125 -10.35546875 140.223632812 -10.5 136.94921875 -10.5 c 0
 105.815429688 -10.5 83.19921875 15.896484375 83.19921875 45.75 c 0
 83.19921875 75.603515625 105.815429688 102 136.94921875 102 c 0
 168.646484375 102 190.905273438 74.9287109375 191.93359375 47.0283203125 c 1
 197.119140625 26.3017578125 208.323242188 -6.2822265625 200.114257812 -27.626953125 c 0
83.19921875 228.25 m 0
 83.19921875 258.103515625 105.815429688 284.5 136.94921875 284.5 c 0
 167.8125 284.5 191.94921875 258.483398438 191.94921875 228.25 c 0
 191.94921875 198.016601562 167.8125 172 136.94921875 172 c 0
 105.815429688 172 83.19921875 198.396484375 83.19921875 228.25 c 0
EndSplineSet
EndChar

StartChar: less
Encoding: 60 60 29
Width: 381
GlyphClass: 2
Flags: MW
HStem: 142.713 74.2451<294.838 302.161> 469.044 74.2432<294.838 302.164>
VStem: 45.5 290<161.015 355.543>
LayerCount: 2
Back
Fore
SplineSet
45.5 343 m 0
 45.5 368.0859375 60.9287109375 391.52734375 78.775390625 399.2421875 c 0
 94.4189453125 409.8515625 291.866210938 541.911132812 291.947265625 541.96484375 c 2
 293.290039062 542.860351562 l 1
 294.837890625 543.287109375 l 2
 314.956054688 548.841796875 335.5 536.399414062 335.5 513.58984375 c 0
 335.5 492.129882812 317.69921875 474.236328125 302.1640625 469.043945312 c 1
 138.552734375 343 l 1
 302.161132812 216.958007812 l 1
 320.556640625 210.827148438 335.5 192.51171875 335.5 172.41015625 c 0
 335.5 149.619140625 314.962890625 137.15625 294.837890625 142.712890625 c 2
 293.282226562 143.142578125 l 1
 291.940429688 144.0390625 l 1
 291.940429688 144.0390625 90.943359375 278.51171875 78.779296875 286.754882812 c 0
 58.4404296875 295.529296875 45.5 319.3046875 45.5 343 c 0
EndSplineSet
EndChar

StartChar: equal
Encoding: 61 61 30
Width: 533
GlyphClass: 2
Flags: MW
HStem: 124 92<96.7129 102.488 102.488 429.075> 268 92<96.7129 98.4883 98.4883 102.488 102.488 153.39 96.7129 429.202>
LayerCount: 2
Back
Fore
SplineSet
429.075195312 124 m 1
 102.48828125 124 l 2
 73.638671875 124 58.48828125 144.91796875 58.48828125 168 c 0
 58.48828125 190.657226562 72.302734375 207.049804688 95.044921875 215.388671875 c 2
 96.712890625 216 l 1
 429.555664062 216 l 1
 430.6015625 215.7734375 l 2
 458.0625 209.836914062 475.188476562 193.181640625 473.4765625 167.5 c 0
 472.646484375 142.571289062 455.809570312 127.146484375 429.65625 124.068359375 c 2
 429.075195312 124 l 1
429.202148438 268 m 1
 102.48828125 268 l 2
 73.638671875 268 58.48828125 288.91796875 58.48828125 312 c 0
 58.48828125 334.657226562 72.302734375 351.049804688 95.044921875 359.388671875 c 2
 96.712890625 360 l 1
 98.48828125 360 l 2
 208.291015625 360 318.65234375 363.267578125 428.78515625 359.99609375 c 0
 459.02734375 359.09765625 475.307617188 338.232421875 474.482421875 312.666015625 c 0
 473.637695312 287.33203125 456.46875 271.895507812 429.90234375 268.099609375 c 2
 429.202148438 268 l 1
EndSplineSet
EndChar

StartChar: greater
Encoding: 62 62 31
Width: 384
GlyphClass: 2
Flags: MW
HStem: 142.713 74.2432<80.3359 87.6621> 469.042 74.2451<80.3389 87.6621>
VStem: 47 290<161.005 354.848 330.457 524.985>
LayerCount: 2
Back
Fore
SplineSet
337 343 m 0
 337 317.9140625 321.571289062 294.47265625 303.724609375 286.7578125 c 0
 288.081054688 276.1484375 90.6337890625 144.088867188 90.552734375 144.03515625 c 2
 89.2099609375 143.139648438 l 1
 87.662109375 142.712890625 l 2
 67.5439453125 137.158203125 47 149.600585938 47 172.41015625 c 0
 47 193.870117188 64.80078125 211.763671875 80.3359375 216.956054688 c 1
 243.947265625 343 l 1
 80.3388671875 469.041992188 l 1
 61.943359375 475.172851562 47 493.48828125 47 513.58984375 c 0
 47 536.380859375 67.537109375 548.84375 87.662109375 543.287109375 c 2
 89.2177734375 542.857421875 l 1
 90.5595703125 541.9609375 l 1
 90.5595703125 541.9609375 291.556640625 407.48828125 303.720703125 399.245117188 c 0
 324.059570312 390.470703125 337 366.6953125 337 343 c 0
EndSplineSet
EndChar

StartChar: question
Encoding: 63 63 32
Width: 618
GlyphClass: 2
Flags: MW
HStem: -10 99.5498<249.603 277.102 249.584 277.106> 288.846 83.8027<304.724 304.724> 506.267 84.3242<311.322 348.813>
VStem: 215.795 96.3252<26.6079 52.9507> 220.998 83.7256<132.98 132.985 132.985 133.107>
LayerCount: 2
Back
Fore
SplineSet
220.989257812 331.111328125 m 0xe8
 221.560546875 354.006835938 234.938476562 372.080078125 254.935546875 372.6484375 c 2
 470.056640625 372.6484375 l 1
 441.087890625 452.134765625 386.3046875 506.266601562 311.322265625 506.266601562 c 2
 79.1220703125 506.245117188 l 2
 58.484375 506.245117188 45.0419921875 526.87890625 45.0419921875 548.107421875 c 0
 45.0419921875 569.346679688 58.5 589.970703125 79.0888671875 589.970703125 c 2
 79.0888671875 589.970703125 172.379882812 590.590820312 311.322265625 590.590820312 c 0
 455.678710938 590.590820312 572.958007812 474.084960938 572.958007812 330.78515625 c 0
 572.958007812 309.491210938 559.330078125 288.921875 538.883789062 288.922851562 c 2
 538.883789062 288.922851562 384.028320312 288.828125 304.723632812 288.845703125 c 1
 304.723632812 132.985351562 l 2
 304.723632812 112.348632812 284.088867188 98.9052734375 262.860351562 98.9052734375 c 0
 241.56640625 98.9052734375 220.997070312 112.53125 220.998046875 132.98046875 c 0
 220.998046875 133.233398438 220.893554688 329.9609375 220.989257812 331.111328125 c 0xe8
215.794921875 39.7744140625 m 0xf0
 215.794921875 66.126953125 235.748046875 89.5498046875 263.419921875 89.5498046875 c 0
 290.784179688 89.5498046875 312.120117188 66.4892578125 312.120117188 39.7744140625 c 0
 312.120117188 13.0419921875 290.79296875 -10 263.419921875 -10 c 0
 235.786132812 -10 215.794921875 13.44140625 215.794921875 39.7744140625 c 0xf0
EndSplineSet
EndChar

StartChar: at
Encoding: 64 64 33
Width: 700
GlyphClass: 2
Flags: MW
HStem: -5.16309 94.79<347 347> 102.771 69.4824<352.825 422.873 352.825 441.621> 404.408 69.4824<352.826 414.229 334.709 422.874> 500.971 94.8096
VStem: 44.7002 102.471<238.718 351.562 238.718 378.167> 194.394 67.2393<257.956 318.707 257.956 339.734>
LayerCount: 2
Back
Fore
SplineSet
261.6328125 288.331054688 m 0
 261.6328125 227.580078125 317.80078125 172.25390625 387.849609375 172.25390625 c 0
 457.896484375 172.25390625 514.06640625 227.580078125 514.06640625 288.331054688 c 0
 514.06640625 349.08203125 457.8984375 404.408203125 387.849609375 404.408203125 c 0
 317.802734375 404.408203125 261.6328125 349.08203125 261.6328125 288.331054688 c 0
643.939453125 133.826171875 m 0
 643.060546875 113.98828125 546.724609375 -6.3203125 347.241210938 -5.1630859375 c 0
 180.37109375 -4.1943359375 44.7001953125 129.551757812 44.7001953125 295.30859375 c 0
 44.7001953125 461.026367188 180.333007812 595.780273438 347.299804688 595.780273438 c 0
 508.852539062 595.780273438 617.333007812 595.05859375 617.333007812 595.05859375 c 2
 640.013671875 595.05859375 655.299804688 572.159179688 655.299804688 548.008789062 c 0
 655.299804688 525.522460938 642.55078125 507.330078125 625.694335938 502.165039062 c 1
 581.098632812 286.307617188 l 2
 561.016601562 189.102539062 495.391601562 102.771484375 387.849609375 102.771484375 c 0
 281.568359375 102.771484375 194.393554688 185.524414062 194.393554688 288.331054688 c 0
 194.393554688 391.13671875 281.568359375 473.890625 387.849609375 473.890625 c 0
 440.609375 473.890625 487.975585938 453.2421875 522.740234375 421.225585938 c 1
 525.098632812 449.140625 486.55859375 484.90625 437.7109375 500.98046875 c 1
 399.264648438 500.982421875 l 2
 369.991210938 500.325195312 351.663085938 499.750976562 345.092773438 500.970703125 c 0
 239.748046875 499.520507812 147.170898438 407.815429688 147.170898438 295.30859375 c 0
 147.170898438 182.126953125 241.350585938 93.3173828125 347.647460938 89.626953125 c 0
 487.231445312 84.7802734375 567.891601562 183.807617188 571.248046875 187.926757812 c 0
 586.751953125 206.94921875 613.875 197.009765625 631.056640625 184.392578125 c 0
 652.62109375 168.55859375 647.043945312 143.575195312 643.939453125 133.826171875 c 0
EndSplineSet
EndChar

StartChar: A
Encoding: 65 65 34
Width: 760
GlyphClass: 2
Flags: MW
HStem: 0 102.471<316.698 425.183> 482.729 102.471<316.699 443.302>
VStem: 54.2402 98.7324<242.65 342.548 242.65 373.594> 611.15 94.0996<9.31445 19.4707>
LayerCount: 2
Back
Fore
SplineSet
380 585.19921875 m 0
 562.490234375 585.19921875 705.759765625 454.583007812 705.759765625 292.565429688 c 2
 705.25 19.8251953125 l 2
 705.25 -1.1962890625 671.095703125 -1.2861328125 656.412109375 -1.2919921875 c 0
 642.8046875 -1.2978515625 611.150390625 -1.4677734375 611.150390625 19.470703125 c 2
 611.15625 86.86328125 l 1
 551.447265625 32.283203125 470.366210938 0 380 0 c 0
 197.509765625 0 54.240234375 130.610351562 54.240234375 292.599609375 c 0
 54.240234375 454.588867188 197.509765625 585.19921875 380 585.19921875 c 0
607.02734375 292.599609375 m 0
 607.02734375 392.497070312 506.603515625 482.728515625 380 482.728515625 c 0
 253.3984375 482.728515625 152.97265625 392.497070312 152.97265625 292.599609375 c 0
 152.97265625 192.701171875 253.396484375 102.470703125 380 102.470703125 c 0
 506.6015625 102.470703125 607.02734375 192.701171875 607.02734375 292.599609375 c 0
EndSplineSet
EndChar

StartChar: B
Encoding: 66 66 35
Width: 764
GlyphClass: 2
Flags: MW
HStem: 0 102.471<318.698 445.301 318.698 473.245> 482.729 102.471<336.816 445.302>
VStem: 56.2402 94.6025 609.027 98.7324<242.651 342.549>
LayerCount: 2
Back
Fore
SplineSet
382 0 m 0
 199.497070312 0 56.240234375 131.396484375 56.240234375 294.342773438 c 2
 56.75 708.731445312 l 2
 56.75 730.319335938 90.8603515625 730.484375 105.587890625 730.491210938 c 0
 119.1953125 730.497070312 150.849609375 730.666992188 150.849609375 709.728515625 c 2
 150.842773438 498.334960938 l 1
 210.552734375 552.916992188 291.6328125 585.19921875 382 585.19921875 c 0
 564.490234375 585.19921875 707.759765625 454.588867188 707.759765625 292.599609375 c 0
 707.759765625 130.610351562 564.490234375 0 382 0 c 0
154.97265625 292.599609375 m 0
 154.97265625 192.702148438 255.396484375 102.470703125 382 102.470703125 c 0
 508.6015625 102.470703125 609.02734375 192.702148438 609.02734375 292.599609375 c 0
 609.02734375 392.498046875 508.603515625 482.728515625 382 482.728515625 c 0
 255.3984375 482.728515625 154.97265625 392.498046875 154.97265625 292.599609375 c 0
EndSplineSet
EndChar

StartChar: C
Encoding: 67 67 36
Width: 724
GlyphClass: 2
Flags: MW
HStem: -0.171875 94.7959<310.329 369.3 310.329 450.076> 495.976 94.7959<310.329 425.059>
VStem: 46.7002 102.471<240.064 350.535 240.064 376.822>
LayerCount: 2
Back
Fore
SplineSet
46.7001953125 295.299804688 m 0
 46.7001953125 458.344726562 184.073242188 590.771484375 369.299804688 590.771484375 c 0
 531.198242188 590.771484375 638.577148438 590.0546875 639.944335938 590.045898438 c 0
 662.806640625 589.337890625 677.299804688 566.814453125 677.299804688 543 c 0
 677.299804688 518.83203125 662.05078125 495.950195312 639.297851562 495.950195312 c 2
 639.297851562 495.950195312 480.818359375 495.975585938 369.299804688 495.975585938 c 0
 251.357421875 495.975585938 149.170898438 405.770507812 149.170898438 295.299804688 c 0
 149.170898438 184.829101562 251.357421875 94.6240234375 369.299804688 94.6240234375 c 2
 639.299804688 94.6494140625 l 2
 662.0390625 94.6494140625 677.299804688 71.7509765625 677.299804688 47.599609375 c 0
 677.299804688 23.431640625 662.026367188 0.5498046875 639.333007812 0.5498046875 c 2
 639.333007812 0.5498046875 530.852539062 -0.171875 369.299804688 -0.171875 c 0
 184.073242188 -0.171875 46.7001953125 132.254882812 46.7001953125 295.299804688 c 0
EndSplineSet
EndChar

StartChar: D
Encoding: 68 68 37
Width: 761
GlyphClass: 2
Flags: MW
HStem: 0 102.471<317.198 443.801 317.198 471.751> 482.729 102.471<317.199 425.924 289.255 443.802>
VStem: 54.7402 98.7324<242.651 342.549 242.651 373.594> 611.657 94.6025
LayerCount: 2
Back
Fore
SplineSet
611.650390625 709.728515625 m 2
 611.650390625 730.348632812 642.362304688 730.375 655.631835938 730.486328125 c 0
 670.668945312 730.611328125 705.75 730.62109375 705.75 708.737304688 c 2
 706.259765625 294.333984375 l 2
 706.259765625 131.3984375 563.002929688 0 380.5 0 c 0
 198.009765625 0 54.740234375 130.610351562 54.740234375 292.599609375 c 0
 54.740234375 454.588867188 198.009765625 585.19921875 380.5 585.19921875 c 0
 471.34765625 585.19921875 554.208007812 550.837890625 611.657226562 498.328125 c 1
 611.650390625 709.728515625 l 2
607.52734375 292.599609375 m 0
 607.52734375 392.498046875 507.103515625 482.728515625 380.5 482.728515625 c 0
 253.8984375 482.728515625 153.47265625 392.498046875 153.47265625 292.599609375 c 0
 153.47265625 192.702148438 253.896484375 102.470703125 380.5 102.470703125 c 0
 507.1015625 102.470703125 607.52734375 192.702148438 607.52734375 292.599609375 c 0
EndSplineSet
EndChar

StartChar: E
Encoding: 69 69 38
Width: 718
GlyphClass: 2
Flags: W
LayerCount: 2
Back
Fore
SplineSet
664.708007812 156.827148438 m 0
 603.416992188 97.1865234375 616.704101562 95.31640625 526.34375 40.6201171875 c 0
 384.342773438 -40.0771484375 166.877929688 -4.1865234375 82.7626953125 136.123046875 c 0
 -0.9912109375 276.403320312 54.498046875 458.389648438 207.15234375 542.38671875 c 0
 336.793945312 610.743164062 494.439453125 593.6640625 593.905273438 508.827148438 c 0
 603.75 499.997070312 622.306640625 486.36328125 636.008789062 471.65625 c 0
 648.287109375 458.067382812 662.7734375 435.647460938 644.028320312 418.319335938 c 0
 581.395507812 360.596679688 513.287109375 306.129882812 441.532226562 254.096679688 c 0
 426.157226562 242.708007812 395.572265625 237.010742188 377.159179688 259.357421875 c 0
 361.1484375 278.787109375 360.4921875 305.043945312 377.702148438 319.547851562 c 0
 403.376953125 339.63671875 507.721679688 413.092773438 523.045898438 434.369140625 c 1
 437.405273438 472.903320312 346.840820312 501.45703125 260.921875 453.57421875 c 0
 152.008789062 396.365234375 115.627929688 272.283203125 168.336914062 185.58984375 c 0
 172.9765625 178.208984375 178.418945312 171.1328125 184.559570312 164.298828125 c 0
 249.884765625 89.828125 382.787109375 57.404296875 470.979492188 122.73828125 c 2
 597.57421875 214.00390625 l 2
 612.325195312 225.940429688 635.725585938 229.231445312 655.537109375 212.737304688 c 0
 674.515625 198.861328125 681.607421875 171.430664062 664.708007812 156.827148438 c 0
EndSplineSet
AlternateSubs2: "'salt' Stylistic Alternatives in Latin lookup 0 subtable" uniE00A
EndChar

StartChar: F
Encoding: 70 70 39
Width: 725
GlyphClass: 2
Flags: MW
HStem: 269 94.0996<185.543 199.111 198.908 199.111 198.908 591.146> 495.976 94.7959<310.834 425.564>
VStem: 47.2109 102.465<294.977 294.977> 55.9863 94.0684
LayerCount: 2
Back
Fore
SplineSet
198.908203125 363.099609375 m 0xc0
 199.314453125 363.099609375 589.935546875 363.248046875 591.435546875 363.104492188 c 0
 615.072265625 362.228515625 629.005859375 339.822265625 629.005859375 316.049804688 c 0
 629.005859375 291.655273438 613.58203125 269.637695312 591.146484375 269 c 2
 197.439453125 269 l 2
 173.646484375 269 158.005859375 291.8359375 158.005859375 316.049804688 c 0
 158.005859375 340.407226562 174.265625 363.100585938 198.908203125 363.099609375 c 0xc0
149.67578125 294.364257812 m 0xe0
 149.67578125 190.463867188 149.962890625 66.654296875 150.05078125 42.1806640625 c 0
 150.044921875 40.4814453125 150.060546875 38.9248046875 150.0546875 37.216796875 c 0
 149.98046875 14.9765625 127.181640625 0 103.005859375 0 c 0
 78.14453125 0 56.810546875 15.8994140625 55.986328125 36.0419921875 c 0xd0
 55.771484375 44.3896484375 47.236328125 294.225585938 47.2109375 294.9765625 c 2
 47.1953125 295.463867188 l 1
 47.2265625 295.944335938 l 2
 58.0078125 457.599609375 184.11328125 590.771484375 369.8046875 590.771484375 c 0
 531.357421875 590.771484375 639.837890625 590.049804688 639.837890625 590.049804688 c 2
 662.51953125 590.049804688 677.8046875 567.150390625 677.8046875 543 c 0
 677.8046875 518.83203125 662.5546875 495.950195312 639.802734375 495.950195312 c 2
 639.802734375 495.950195312 481.32421875 495.975585938 369.8046875 495.975585938 c 0
 251.86328125 495.975585938 149.67578125 405.349609375 149.67578125 294.364257812 c 0xe0
EndSplineSet
EndChar

StartChar: G
Encoding: 71 71 40
Width: 741
GlyphClass: 2
Flags: MW
HStem: -0.171875 94.7959<318.829 412.52 318.829 458.576> 495.976 94.7959<318.829 433.559>
VStem: 55.2002 102.471<240.064 350.535 240.064 376.822> 591.696 94.1035<47.5938 94.6406>
LayerCount: 2
Back
Fore
SplineSet
55.2001953125 295.299804688 m 0
 55.2001953125 458.344726562 192.573242188 590.771484375 377.799804688 590.771484375 c 0
 539.698242188 590.771484375 647.077148438 590.0546875 648.444335938 590.045898438 c 0
 671.306640625 589.337890625 685.799804688 566.814453125 685.799804688 543 c 0
 685.799804688 518.83203125 670.55078125 495.950195312 647.797851562 495.950195312 c 2
 647.797851562 495.950195312 489.318359375 495.975585938 377.799804688 495.975585938 c 0
 259.857421875 495.975585938 157.670898438 405.770507812 157.670898438 295.299804688 c 0
 157.670898438 184.829101562 259.857421875 94.6240234375 377.799804688 94.6240234375 c 0
 447.240234375 94.6240234375 537.306640625 94.6337890625 591.696289062 94.640625 c 1
 591.674804688 318.599609375 l 2
 591.673828125 341.338867188 614.573242188 356.599609375 638.724609375 356.599609375 c 0
 662.891601562 356.599609375 685.774414062 341.348632812 685.774414062 318.599609375 c 2
 685.799804688 47.59375 l 2
 685.786132812 23.4189453125 670.51953125 0.5498046875 647.833007812 0.5498046875 c 2
 647.833007812 0.5498046875 539.352539062 -0.171875 377.799804688 -0.171875 c 0
 192.573242188 -0.171875 55.2001953125 132.254882812 55.2001953125 295.299804688 c 0
EndSplineSet
AlternateSubs2: "'salt' Stylistic Alternatives in Latin lookup 0 subtable" uniE003
EndChar

StartChar: H
Encoding: 72 72 41
Width: 703
GlyphClass: 2
Flags: MW
HStem: 400.129 86.3213<307.356 409.352>
VStem: 57.9395 94.1562 551.176 94.7959<144.24 253.315>
LayerCount: 2
Back
Fore
SplineSet
57.0283203125 193.758789062 m 0
 57.0283203125 201.607421875 57.3154296875 209.012695312 57.939453125 216.713867188 c 0
 57.8974609375 374.598632812 57.95703125 580.438476562 57.95703125 580.653320312 c 0
 58.8876953125 604.969726562 81.3525390625 618 105.045898438 618 c 0
 129.427734375 618 151.455078125 602.932617188 152.095703125 580.745117188 c 2
 152.095703125 407.600585938 l 1
 204.663085938 456.73828125 265.3359375 486.450195312 349.376953125 486.450195312 c 0
 525.53125 486.450195312 645.971679688 354.643554688 645.971679688 193.58984375 c 0
 645.971679688 47.794921875 645.420898438 37.8935546875 645.233398438 36.1474609375 c 2
 645.233398438 36.1474609375 621.2578125 0 598.200195312 0 c 0
 574.032226562 0 551.150390625 15.2470703125 551.150390625 38.005859375 c 2
 551.150390625 38.005859375 551.17578125 88.4794921875 551.17578125 200 c 0
 551.17578125 306.629882812 469.327148438 400.12890625 349.376953125 400.12890625 c 0
 233.321289062 400.12890625 157.557617188 312.889648438 152.095703125 209.966796875 c 1
 152.095703125 38 l 2
 152.095703125 15.2158203125 128.8984375 0 104.66796875 0 c 0
 79.4248046875 0 59.1953125 14.9873046875 57.7236328125 36.5830078125 c 0
 57.6181640625 37.5693359375 57.0283203125 49.05078125 57.0283203125 193.758789062 c 0
EndSplineSet
AlternateSubs2: "'salt' Stylistic Alternatives in Latin lookup 0 subtable" uniE004
EndChar

StartChar: I
Encoding: 73 73 42
Width: 217
GlyphClass: 2
Flags: MW
VStem: 61.4834 94.0996<28 28.1934>
LayerCount: 2
Back
Fore
SplineSet
61.48046875 561.486328125 m 0
 62.4013671875 579.98828125 85.3330078125 590 108.533203125 590 c 0
 132.28515625 590 154.912109375 579.067382812 155.583007812 561.845703125 c 2
 155.583007812 28 l 2
 155.583007812 10.57421875 132.00390625 0 108.533203125 0 c 0
 85 0 61.482421875 10.7294921875 61.4833984375 28 c 0
 61.4833984375 28.38671875 61.3349609375 559.981445312 61.48046875 561.486328125 c 0
EndSplineSet
EndChar

StartChar: J
Encoding: 74 74 43
Width: 732
GlyphClass: 2
Flags: MW
HStem: 0 94.7959<302.936 417.666 302.936 451.541>
VStem: 578.449 94.0625 578.824 102.48<295.313 295.313 295.313 348.357>
LayerCount: 2
Back
Fore
SplineSet
578.82421875 296.407226562 m 0xa0
 578.82421875 400.307617188 578.537109375 524.1171875 578.44921875 548.590820312 c 0
 578.455078125 550.287109375 578.439453125 551.848632812 578.4453125 553.5546875 c 0
 578.51953125 575.794921875 601.31640625 590.771484375 625.494140625 590.771484375 c 0
 650.35546875 590.771484375 671.689453125 574.872070312 672.51171875 554.728515625 c 0xc0
 672.7265625 546.385742188 681.263671875 296.538085938 681.2890625 295.801757812 c 2
 681.3046875 295.313476562 l 1
 681.2734375 294.827148438 l 2
 670.4921875 133.171875 544.38671875 0 358.6953125 0 c 0
 197.142578125 0 88.662109375 0.7216796875 88.662109375 0.7216796875 c 2
 65.98046875 0.7216796875 50.6953125 23.62109375 50.6953125 47.771484375 c 0
 50.6953125 71.939453125 65.943359375 94.8212890625 88.697265625 94.8212890625 c 2
 88.697265625 94.8212890625 247.17578125 94.7958984375 358.6953125 94.7958984375 c 0
 476.63671875 94.7958984375 578.82421875 185.421875 578.82421875 296.407226562 c 0xa0
EndSplineSet
EndChar

StartChar: K
Encoding: 75 75 44
Width: 612
GlyphClass: 2
Flags: MW
VStem: 48.1182 94.0996
LayerCount: 2
Back
Fore
SplineSet
48.115234375 589.486328125 m 0
 49.0361328125 607.98828125 71.9677734375 618 95.16796875 618 c 0
 118.908203125 618 141.5390625 607.26171875 142.217773438 589.845703125 c 2
 142.217773438 179.240234375 l 1
 174.90234375 231.09765625 214.799804688 290.733398438 251.637695312 345.6953125 c 1
 251.083007812 358.333984375 259.329101562 366.1484375 268.862304688 370.779296875 c 0
 269.141601562 370.250976562 394.805664062 563.47265625 414.291992188 589.650390625 c 0
 428.56640625 607.529296875 459.483398438 618 487.776367188 618 c 0
 498.3984375 618 507.431640625 616.548828125 514.872070312 613.34765625 c 0
 528.791992188 606.704101562 534.120117188 592.717773438 525.788085938 579.647460938 c 2
 374.330078125 342.177734375 l 1
 401.2109375 300.396484375 557.743164062 41.4453125 559.668945312 38.1875 c 2
 559.756835938 38.0380859375 l 1
 559.833984375 37.5751953125 l 2
 562.331054688 31.8916015625 563.849609375 25.6083984375 563.942382812 19.3466796875 c 0
 564.393554688 5.1796875 542.333984375 0 521.622070312 0 c 0
 493.115234375 0 461.852539062 11.208984375 449.8984375 28.1025390625 c 2
 311.165039062 245.182617188 l 1
 166.848632812 28.033203125 l 2
 154.885742188 11.1298828125 123.573242188 0 95.16796875 0 c 0
 76.70703125 0 62.1943359375 5.1806640625 55.9794921875 13.46875 c 0
 50.1630859375 18.6337890625 48.1181640625 22.541015625 48.1181640625 28 c 0
 48.1181640625 28.3876953125 47.96875 587.979492188 48.115234375 589.486328125 c 0
EndSplineSet
EndChar

StartChar: L
Encoding: 76 76 45
Width: 721
GlyphClass: 2
Flags: MW
HStem: 0 94.7959<308.834 367.805 308.834 448.582>
VStem: 45.1953 102.48<295.316 295.316> 53.957 94.1035<548.589 553.584>
LayerCount: 2
Back
Fore
SplineSet
101.005859375 590.771484375 m 0xa0
 125.19921875 590.771484375 147.978515625 575.799804688 148.0546875 553.549804688 c 2
 148.060546875 548.588867188 l 2xa0
 147.96875 522.66015625 147.67578125 400.0546875 147.67578125 296.407226562 c 0
 147.67578125 185.421875 249.86328125 94.7958984375 367.8046875 94.7958984375 c 2
 637.8046875 94.8212890625 l 2
 660.544921875 94.8212890625 675.8046875 71.9228515625 675.8046875 47.771484375 c 0
 675.8046875 23.603515625 660.53125 0.7216796875 637.837890625 0.7216796875 c 2
 637.837890625 0.7216796875 529.359375 0 367.8046875 0 c 0
 182.11328125 0 56.0078125 133.172851562 45.2265625 294.827148438 c 2
 45.1953125 295.31640625 l 1xc0
 53.95703125 553.583984375 l 2
 54.029296875 575.631835938 76.828125 590.771484375 101.005859375 590.771484375 c 0xa0
EndSplineSet
EndChar

StartChar: M
Encoding: 77 77 46
Width: 1105
GlyphClass: 2
Flags: MW
HStem: 488.129 102.471<271.359 383.938 243.527 386.436 722.414 834.643>
VStem: 58.4551 94.7949<295.974 347.866 295.974 377.875> 504.375 97.2783<295.974 347.895 295.974 347.895> 951.75 94.7949<242.409 347.904>
LayerCount: 2
Back
Fore
SplineSet
777.12109375 590.599609375 m 0
 947.885742188 590.599609375 1046.54492188 457.78515625 1046.54492188 297.911132812 c 0
 1046.54492188 141.340820312 1045.82910156 37.548828125 1045.8203125 36.201171875 c 0
 1045.10839844 13.96484375 1022.52050781 0 998.7734375 0 c 0
 974.689453125 0 951.724609375 14.591796875 951.724609375 36.6025390625 c 2
 951.724609375 36.6025390625 951.75 188.84375 951.75 295.973632812 c 0
 951.75 399.834960938 892.165039062 488.12890625 777.12109375 488.12890625 c 0
 662.060546875 488.12890625 601.653320312 399.815429688 601.653320312 295.973632812 c 2
 601.678710938 36.6005859375 l 2
 601.678710938 14.5732421875 578.581054688 0 552.630859375 0 c 0
 527.9609375 0 504.348632812 14.5361328125 504.348632812 36.6025390625 c 2
 504.348632812 36.6025390625 504.375 188.84375 504.375 295.973632812 c 0
 504.375 399.815429688 443.96484375 488.12890625 328.90625 488.12890625 c 0
 213.811523438 488.12890625 153.25 399.758789062 153.25 295.973632812 c 2
 153.275390625 36.6005859375 l 2
 153.275390625 14.6025390625 130.29296875 0 106.2265625 0 c 0
 82.12890625 0 59.17578125 14.720703125 59.17578125 36.794921875 c 2
 59.17578125 36.794921875 58.455078125 141.692382812 58.455078125 297.911132812 c 0
 58.455078125 457.837890625 158.1484375 590.599609375 328.90625 590.599609375 c 0
 438.969726562 590.599609375 503.248046875 532.209960938 553.012695312 451.426757812 c 1
 604.283203125 534.657226562 667.706054688 590.599609375 777.12109375 590.599609375 c 0
EndSplineSet
EndChar

StartChar: N
Encoding: 78 78 47
Width: 739
GlyphClass: 2
Flags: MW
HStem: 488.129 102.471<309.472 429.528>
VStem: 59.0283 94.7959<295.974 346.679 295.974 378.717> 585.176 94.7959<242.409 346.679>
LayerCount: 2
Back
Fore
SplineSet
369.5 590.599609375 m 0
 544.310546875 590.599609375 679.971679688 459.522460938 679.971679688 297.911132812 c 0
 679.971679688 141.340820312 679.254882812 37.5498046875 679.24609375 36.2001953125 c 0
 678.534179688 13.96484375 655.946289062 0 632.200195312 0 c 0
 608.116210938 0 585.150390625 14.591796875 585.150390625 36.6025390625 c 2
 585.150390625 36.6025390625 585.17578125 188.84375 585.17578125 295.973632812 c 0
 585.17578125 397.383789062 489.556640625 488.12890625 369.5 488.12890625 c 0
 249.443359375 488.12890625 153.82421875 397.383789062 153.82421875 295.973632812 c 2
 153.849609375 36.6005859375 l 2
 153.849609375 14.6025390625 130.865234375 0 106.799804688 0 c 0
 82.703125 0 59.75 14.720703125 59.75 36.794921875 c 2
 59.75 36.794921875 59.0283203125 141.692382812 59.0283203125 297.911132812 c 0
 59.0283203125 459.522460938 194.689453125 590.599609375 369.5 590.599609375 c 0
EndSplineSet
EndChar

StartChar: O
Encoding: 79 79 48
Width: 756
GlyphClass: 2
Flags: MW
HStem: 0 102.471<314.698 441.301 314.698 469.245> 482.729 102.471<314.699 441.302>
VStem: 52.2402 98.7324<242.65 342.548 242.65 373.594> 605.027 98.7324<242.65 342.548>
LayerCount: 2
Back
Fore
SplineSet
605.02734375 292.599609375 m 0
 605.02734375 392.497070312 504.603515625 482.728515625 378 482.728515625 c 0
 251.3984375 482.728515625 150.97265625 392.497070312 150.97265625 292.599609375 c 0
 150.97265625 192.701171875 251.396484375 102.470703125 378 102.470703125 c 0
 504.6015625 102.470703125 605.02734375 192.701171875 605.02734375 292.599609375 c 0
703.759765625 292.599609375 m 0
 703.759765625 130.610351562 560.490234375 0 378 0 c 0
 195.509765625 0 52.240234375 130.610351562 52.240234375 292.599609375 c 0
 52.240234375 454.588867188 195.509765625 585.19921875 378 585.19921875 c 0
 560.490234375 585.19921875 703.759765625 454.588867188 703.759765625 292.599609375 c 0
EndSplineSet
EndChar

StartChar: P
Encoding: 80 80 49
Width: 766
GlyphClass: 2
Flags: MW
HStem: 0 102.471<337.576 446.301 319.698 474.245> 482.729 102.471<319.699 446.302>
VStem: 57.75 94.0996<-96.4805 -86.5293 -96.8394 -85.5391> 610.027 98.7324<242.65 342.548>
LayerCount: 2
Back
Fore
SplineSet
151.849609375 -86.529296875 m 2
 151.849609375 -107.149414062 121.137695312 -107.17578125 107.868164062 -107.287109375 c 0
 92.8310546875 -107.412109375 57.75 -107.421875 57.75 -85.5390625 c 2
 57.240234375 291.321289062 l 2
 57.240234375 454.008789062 200.5 585.19921875 383 585.19921875 c 0
 565.490234375 585.19921875 708.759765625 454.588867188 708.759765625 292.599609375 c 0
 708.759765625 130.610351562 565.490234375 0 383 0 c 0
 292.15234375 0 209.291992188 34.3623046875 151.842773438 86.8701171875 c 1
 151.849609375 -86.529296875 l 2
155.97265625 292.599609375 m 0
 155.97265625 192.701171875 256.396484375 102.470703125 383 102.470703125 c 0
 509.6015625 102.470703125 610.02734375 192.701171875 610.02734375 292.599609375 c 0
 610.02734375 392.497070312 509.603515625 482.728515625 383 482.728515625 c 0
 256.3984375 482.728515625 155.97265625 392.497070312 155.97265625 292.599609375 c 0
EndSplineSet
EndChar

StartChar: Q
Encoding: 81 81 50
Width: 760
GlyphClass: 2
Flags: MW
HStem: 0 102.471<316.698 425.184> 482.729 102.471<316.699 443.302>
VStem: 54.2402 98.7324<242.65 342.548 242.65 373.594> 611.15 94.0996<-96.3262 -86.5293>
LayerCount: 2
Back
Fore
SplineSet
380 585.19921875 m 0
 562.5 585.19921875 705.759765625 454.010742188 705.759765625 291.310546875 c 2
 705.25 -85.5322265625 l 2
 705.25 -107.120117188 671.139648438 -107.28515625 656.412109375 -107.291992188 c 0
 642.8046875 -107.297851562 611.150390625 -107.467773438 611.150390625 -86.529296875 c 2
 611.157226562 86.86328125 l 1
 551.447265625 32.2822265625 470.3671875 0 380 0 c 0
 197.509765625 0 54.240234375 130.610351562 54.240234375 292.599609375 c 0
 54.240234375 454.588867188 197.509765625 585.19921875 380 585.19921875 c 0
607.02734375 292.599609375 m 0
 607.02734375 392.497070312 506.603515625 482.728515625 380 482.728515625 c 0
 253.3984375 482.728515625 152.97265625 392.497070312 152.97265625 292.599609375 c 0
 152.97265625 192.701171875 253.396484375 102.470703125 380 102.470703125 c 0
 506.6015625 102.470703125 607.02734375 192.701171875 607.02734375 292.599609375 c 0
EndSplineSet
EndChar

StartChar: R
Encoding: 82 82 51
Width: 726
GlyphClass: 2
Flags: MW
HStem: 495.976 94.7959<311.334 426.064>
VStem: 47.7109 102.465<294.977 294.977> 56.4863 94.0645
LayerCount: 2
Back
Fore
SplineSet
150.17578125 294.364257812 m 0xc0
 150.17578125 190.463867188 150.462890625 66.654296875 150.55078125 42.1806640625 c 0
 150.544921875 40.4814453125 150.560546875 38.9248046875 150.5546875 37.216796875 c 0
 150.48046875 14.9765625 127.681640625 0 103.505859375 0 c 0
 78.64453125 0 57.310546875 15.8994140625 56.486328125 36.0419921875 c 0xa0
 56.271484375 44.3896484375 47.736328125 294.225585938 47.7109375 294.9765625 c 2
 47.6953125 295.463867188 l 1
 47.7265625 295.944335938 l 2
 58.5078125 457.599609375 184.61328125 590.771484375 370.3046875 590.771484375 c 0
 531.857421875 590.771484375 640.337890625 590.049804688 640.337890625 590.049804688 c 2
 663.01953125 590.049804688 678.3046875 567.150390625 678.3046875 543 c 0
 678.3046875 518.83203125 663.0546875 495.950195312 640.302734375 495.950195312 c 2
 640.302734375 495.950195312 481.82421875 495.975585938 370.3046875 495.975585938 c 0
 252.36328125 495.975585938 150.17578125 405.349609375 150.17578125 294.364257812 c 0xc0
EndSplineSet
EndChar

StartChar: S
Encoding: 83 83 52
Width: 737
GlyphClass: 2
Flags: MW
HStem: 0 94.7959<306.741 425.388 306.741 451.816> 242.146 94.7979<506.575 506.575> 493.573 94.7959<304.684 423.072>
VStem: 51.9004 100.57 582.629 102.471<153.113 190.628>
LayerCount: 2
Back
Fore
SplineSet
152.470703125 378.96484375 m 0
 152.331054688 363.776367188 156.892578125 336.534179688 225.530273438 336.217773438 c 0
 227.702148438 336.231445312 340.758789062 336.943359375 510.836914062 336.943359375 c 0
 523.963867188 336.943359375 537.828125 337.44140625 551.838867188 337.442382812 c 0
 617.515625 337.451171875 685.099609375 322.127929688 685.099609375 188.857421875 c 0
 685.099609375 28.0107421875 541.1328125 0 362.5 0 c 0
 200.947265625 0 92.466796875 0.7216796875 92.466796875 0.7216796875 c 2
 69.7861328125 0.7216796875 54.5 23.62109375 54.5 47.771484375 c 0
 54.5 71.939453125 69.7490234375 94.8212890625 92.501953125 94.8212890625 c 2
 92.501953125 94.8212890625 250.981445312 94.7958984375 362.5 94.7958984375 c 0
 488.276367188 94.7958984375 582.62890625 118.078125 582.62890625 188.147460938 c 0
 582.62890625 193.109375 584.536132812 195.258789062 584.53125 202.561523438 c 0
 584.524414062 216.21875 580.109375 242.237304688 508.076171875 242.147460938 c 2
 506.575195312 242.145507812 l 1
 505.911132812 242.318359375 l 2
 496.862304688 244.076171875 376.189453125 241.42578125 223.5 241.42578125 c 0
 211.056640625 241.42578125 197.907226562 240.927734375 184.612304688 240.926757812 c 0
 119.426757812 240.91796875 51.900390625 256.723632812 51.900390625 393.897460938 c 0
 51.900390625 559.436523438 194.69921875 588.369140625 364.282226562 588.369140625 c 0
 534.614257812 588.369140625 644.533203125 587.647460938 644.533203125 587.647460938 c 2
 667.213867188 587.647460938 682.5 564.748046875 682.5 540.59765625 c 0
 682.5 516.4296875 667.250976562 493.547851562 644.498046875 493.547851562 c 2
 644.498046875 493.547851562 481.861328125 493.573242188 364.282226562 493.573242188 c 0
 245.0859375 493.573242188 154.37109375 468.932617188 154.37109375 393.897460938 c 0
 154.37109375 388.78125 152.540039062 386.548828125 152.470703125 378.96484375 c 0
EndSplineSet
AlternateSubs2: "'salt' Stylistic Alternatives in Latin lookup 0 subtable" uniE016
EndChar

StartChar: T
Encoding: 84 84 53
Width: 625
GlyphClass: 2
Flags: MW
HStem: 498.901 91.1484<76.9961 296.491>
VStem: 262.286 100.428<36.8223 36.8223>
LayerCount: 2
Back
Fore
SplineSet
76.99609375 498.901367188 m 2
 76.99609375 498.901367188 39.5 522.029296875 39.5 544.473632812 c 0
 39.5 568.158203125 54.9912109375 589.435546875 77.359375 590.049804688 c 2
 296.491210938 590.049804688 l 2
 302.998046875 591.625976562 306.762695312 592 312.5 592 c 0
 318.112304688 592 326.095703125 590.598632812 328.438476562 590.049804688 c 2
 547.5 590.049804688 l 2
 570.170898438 590.049804688 585.5 567.922851562 585.5 544.473632812 c 0
 585.5 520.953125 569.959960938 498.895507812 547.50390625 498.896484375 c 2
 547.50390625 498.896484375 463.6328125 498.859375 362.713867188 498.833007812 c 1
 362.713867188 36.826171875 l 2
 362.713867188 14.5654296875 338.073242188 0 312.5 0 c 0
 286.841796875 0 262.28515625 14.765625 262.286132812 36.822265625 c 2
 262.286132812 36.822265625 262.14453125 364.13671875 262.201171875 498.8125 c 1
 155.109375 498.796875 80.064453125 498.6328125 76.99609375 498.901367188 c 2
EndSplineSet
EndChar

StartChar: U
Encoding: 85 85 54
Width: 736
GlyphClass: 2
Flags: MW
HStem: 0 102.471<307.972 428.028 307.972 455.405>
VStem: 57.5283 94.7959<243.921 348.191 243.921 370.798> 583.676 94.7959<243.921 294.626>
LayerCount: 2
Back
Fore
SplineSet
583.650390625 553.999023438 m 2
 583.650390625 575.997070312 606.634765625 590.599609375 630.700195312 590.599609375 c 0
 654.79296875 590.599609375 677.75 575.908203125 677.75 553.8046875 c 2
 677.75 553.8046875 678.471679688 448.907226562 678.471679688 292.688476562 c 0
 678.471679688 131.077148438 542.810546875 0 368 0 c 0
 193.189453125 0 57.5283203125 131.077148438 57.5283203125 292.688476562 c 0
 57.5283203125 448.907226562 58.25 553.8046875 58.25 553.8046875 c 2
 58.25 575.866210938 81.2216796875 590.599609375 105.299804688 590.599609375 c 0
 129.383789062 590.599609375 152.349609375 576.0078125 152.349609375 553.997070312 c 2
 152.349609375 553.997070312 152.32421875 401.755859375 152.32421875 294.625976562 c 0
 152.32421875 193.215820312 247.943359375 102.470703125 368 102.470703125 c 0
 488.056640625 102.470703125 583.67578125 193.215820312 583.67578125 294.625976562 c 2
 583.650390625 553.999023438 l 2
EndSplineSet
EndChar

StartChar: V
Encoding: 86 86 55
Width: 632
GlyphClass: 2
Flags: MW
VStem: 481.177 94.0635 481.551 102.481<294.584 294.584 294.584 347.75>
LayerCount: 2
Back
Fore
SplineSet
211.743164062 31.8095703125 m 1x40
 49.7041015625 552.327148438 l 2
 48.662109375 555.876953125 48.0498046875 559.743164062 47.9765625 563.322265625 c 0
 47.53125 579.190429688 64.6875 590 85.96875 590 c 0
 110.813476562 590 134.5 577.119140625 142.870117188 558.155273438 c 0
 143.22265625 557.330078125 251.396484375 223.092773438 293.456054688 95.5576171875 c 1
 397.376953125 108.01171875 481.55078125 192.697265625 481.55078125 294.75 c 0x40
 481.55078125 400.75 481.264648438 526.997070312 481.176757812 552.001953125 c 0
 481.182617188 553.735351562 481.166992188 555.323242188 481.171875 557.06640625 c 0
 481.247070312 576.77734375 504.044921875 590.049804688 528.221679688 590.049804688 c 0
 553.08203125 590.049804688 574.416992188 575.998046875 575.240234375 558.196289062 c 0x80
 575.456054688 549.713867188 583.991210938 295.84375 584.016601562 295.081054688 c 2
 584.032226562 294.583984375 l 1
 584 294.095703125 l 2
 573.221679688 132.474609375 447.685546875 -0.7216796875 268.129882812 -0.7216796875 c 0
 220.212890625 -0.7216796875 216.7890625 24.0361328125 212.067382812 31.2734375 c 2
 211.743164062 31.8095703125 l 1x40
EndSplineSet
AlternateSubs2: "'salt' Stylistic Alternatives in Latin lookup 0 subtable" uniE015
EndChar

StartChar: W
Encoding: 87 87 56
Width: 1104
GlyphClass: 2
Flags: MW
HStem: 0 102.471<269.857 382.086 720.562 833.141>
VStem: 57.9551 94.7949<242.695 348.191 242.695 370.974> 502.847 97.2783<242.705 294.626> 951.25 94.7949<242.733 294.626>
LayerCount: 2
Back
Fore
SplineSet
327.37890625 0 m 0
 156.614257812 0 57.955078125 132.814453125 57.955078125 292.688476562 c 0
 57.955078125 449.258789062 58.6708984375 553.05078125 58.6796875 554.3984375 c 0
 59.3916015625 576.634765625 81.9794921875 590.599609375 105.7265625 590.599609375 c 0
 129.810546875 590.599609375 152.775390625 576.0078125 152.775390625 553.997070312 c 2
 152.775390625 553.997070312 152.75 401.755859375 152.75 294.625976562 c 0
 152.75 190.764648438 212.334960938 102.470703125 327.37890625 102.470703125 c 0
 442.439453125 102.470703125 502.846679688 190.784179688 502.846679688 294.625976562 c 2
 502.821289062 553.999023438 l 2
 502.821289062 576.026367188 525.918945312 590.599609375 551.869140625 590.599609375 c 0
 576.5390625 590.599609375 600.151367188 576.063476562 600.151367188 553.997070312 c 2
 600.151367188 553.997070312 600.125 401.755859375 600.125 294.625976562 c 0
 600.125 190.784179688 660.53515625 102.470703125 775.59375 102.470703125 c 0
 890.688476562 102.470703125 951.25 190.840820312 951.25 294.625976562 c 2
 951.224609375 553.999023438 l 2
 951.224609375 575.997070312 974.20703125 590.599609375 998.2734375 590.599609375 c 0
 1022.37109375 590.599609375 1045.32421875 575.87890625 1045.32421875 553.8046875 c 2
 1045.32421875 553.8046875 1046.04492188 448.907226562 1046.04492188 292.688476562 c 0
 1046.04492188 132.76171875 946.3515625 0 775.59375 0 c 0
 665.530273438 0 601.251953125 58.3896484375 551.487304688 139.172851562 c 1
 500.216796875 55.9423828125 436.793945312 0 327.37890625 0 c 0
EndSplineSet
EndChar

StartChar: X
Encoding: 88 88 57
Width: 672
GlyphClass: 2
Flags: W
LayerCount: 2
Back
Fore
SplineSet
47.7080078125 42.4814453125 m 1
 46.3994140625 40.9501953125 l 1
 46.3994140625 40.9501953125 46.84375 41.470703125 47.7041015625 42.4775390625 c 2
 47.7080078125 42.4814453125 l 1
625.387695312 41.01171875 m 0
 630.518554688 29.37890625 630.875976562 26.7626953125 630.922851562 18.6201171875 c 0
 631.10546875 4.853515625 609.376953125 0 589.004882812 0 c 0
 559.706054688 0 529.790039062 12.32421875 517.182617188 28.5166015625 c 2
 335.91796875 224.8828125 l 1
 154.661132812 28.51953125 l 2
 140.559570312 10.3828125 110.908203125 0 82.8369140625 0 c 0
 71.49609375 0 61.927734375 1.6376953125 54.23828125 5.322265625 c 0
 41.50390625 12.2421875 37.22265625 25.6962890625 44.978515625 37.8037109375 c 2
 47.7041015625 42.4775390625 l 2
 60.482421875 57.21484375 165.17578125 177.71875 272.919921875 295.073242188 c 1
 45.291015625 550.3046875 l 1
 44.9404296875 553.223632812 l 2
 42.2724609375 559.7734375 41.2412109375 564.490234375 41.0947265625 570.451171875 c 0
 40.3466796875 584.745117188 62.12109375 590 82.8369140625 590 c 0
 112.135742188 590 142.065429688 577.649414062 154.637695312 561.495117188 c 0
 159.290039062 556.272460938 244.431640625 463.9765625 335.91796875 365.217773438 c 1
 432.166992188 469.12109375 512.552734375 556.275390625 517.201171875 561.4921875 c 0
 531.259765625 579.581054688 560.934570312 590 589.004882812 590 c 0
 600.0546875 590 609.379882812 588.459960938 616.944335938 584.971679688 c 0
 630.732421875 577.869140625 633.723632812 563.7734375 626.852539062 552.567382812 c 1
 626.548828125 550.3046875 l 1
 398.913085938 295.073242188 l 1
 515.422851562 167.966796875 622.395507812 44.4677734375 625.387695312 41.01171875 c 0
625.387695312 41.01171875 m 2
 625.426757812 40.958984375 625.448242188 40.9296875 625.451171875 40.92578125 c 2
 625.38671875 41.001953125 l 1
 625.387695312 41.01171875 l 2
EndSplineSet
EndChar

StartChar: Y
Encoding: 89 89 58
Width: 701
GlyphClass: 2
Flags: MW
HStem: -65.3223 94.7959<283.135 398.115 280.303 424.016> 105.128 85.3428<292.648 394.768>
VStem: 56.0283 94.7959<337.285 446.36 337.285 470.149> 549.904 95.0674<392.556 468.975 392.556 552.6 392.556 563.992>
LayerCount: 2
Back
Fore
SplineSet
644.971679688 396.487304688 m 0
 644.971679688 388.625 644.684570312 381.20703125 644.060546875 373.491210938 c 0
 644.1015625 217.763671875 644.173828125 189.702148438 644.000976562 187.430664062 c 2
 644.000976562 187.430664062 644.393554688 174.033203125 644.396484375 173.088867188 c 0
 644.927734375 3.1796875 508.516601562 -65.322265625 339.515625 -65.322265625 c 0
 226.754882812 -65.322265625 207.732421875 -67.591796875 199.01171875 -63.154296875 c 0
 178.375 -56.8134765625 169.154296875 -38.2978515625 169.154296875 -17.55078125 c 0
 169.154296875 6.7060546875 184.969726562 29.4990234375 208.938476562 29.4990234375 c 2
 208.938476562 29.4990234375 221.08984375 29.4736328125 339.515625 29.4736328125 c 0
 456.71484375 29.4736328125 550.283203125 65.3701171875 550.283203125 171.982421875 c 2
 550.28125 184.178710938 l 1
 498.220703125 135.356445312 436.912109375 105.127929688 352.623046875 105.127929688 c 0
 176.470703125 105.127929688 56.0283203125 236.66796875 56.0283203125 397.3984375 c 0
 56.0283203125 542.899414062 56.5791015625 552.779296875 56.7666015625 554.5234375 c 2
 56.7666015625 554.5234375 80.7431640625 590.599609375 103.799804688 590.599609375 c 0
 127.967773438 590.599609375 150.849609375 575.352539062 150.849609375 552.59375 c 2
 150.849609375 552.59375 150.82421875 502.120117188 150.82421875 390.599609375 c 0
 150.82421875 283.969726562 232.672851562 190.470703125 352.623046875 190.470703125 c 0
 468.678710938 190.470703125 544.442382812 277.709960938 549.904296875 380.6328125 c 1
 549.904296875 552.599609375 l 2
 549.904296875 575.383789062 573.1015625 590.599609375 597.33203125 590.599609375 c 0
 622.579101562 590.599609375 642.8046875 575.583007812 644.276367188 553.953125 c 0
 644.381835938 552.966796875 644.971679688 541.461914062 644.971679688 396.487304688 c 0
EndSplineSet
AlternateSubs2: "'salt' Stylistic Alternatives in Latin lookup 0 subtable" uniE00D
EndChar

StartChar: Z
Encoding: 90 90 59
Width: 738
GlyphClass: 2
Flags: MW
HStem: 0 94.7959<312.112 375 312.112 455.776> 242.147 94.7959 242.154 10<230.312 230.313 230.312 230.784> 493.573 94.7959<373.218 432.817>
VStem: 52.4004 102.471<153.113 190.897 153.113 270.12> 230.296 5.71484<242 242> 583.129 102.471<390.939 431.416>
LayerCount: 2
Back
Fore
SplineSet
375 0 m 0xde
 196.366210938 0 52.400390625 28.009765625 52.400390625 188.857421875 c 0
 52.400390625 351.381835938 152.092773438 336.943359375 226.663085938 336.943359375 c 0
 397.001953125 336.943359375 511.366210938 336.221679688 511.366210938 336.221679688 c 2
 605.71875 335.9765625 583.12890625 387.98046875 583.12890625 393.897460938 c 0
 583.12890625 468.93359375 492.416015625 493.573242188 373.217773438 493.573242188 c 2
 93 493.547851562 l 2
 70.2607421875 493.547851562 55 516.446289062 55 540.59765625 c 0
 55 564.765625 70.2734375 587.647460938 92.966796875 587.647460938 c 2
 92.966796875 587.647460938 202.885742188 588.369140625 373.217773438 588.369140625 c 0
 542.801757812 588.369140625 685.599609375 559.439453125 685.599609375 393.897460938 c 0
 685.599609375 226.596679688 585.958984375 241.42578125 514 241.42578125 c 0
 379.307617188 241.42578125 271.258789062 242.014648438 239.293945312 242.134765625 c 0
 236.223632812 242.138671875 232.936523438 242.142578125 229.423828125 242.147460938 c 0
 132.126953125 242.271484375 154.87109375 193.647460938 154.87109375 188.147460938 c 0
 154.87109375 118.078125 249.223632812 94.7958984375 375 94.7958984375 c 2
 645 94.8212890625 l 2
 667.739257812 94.8212890625 683 71.9228515625 683 47.771484375 c 0
 683 23.603515625 667.7265625 0.7216796875 645.033203125 0.7216796875 c 2
 645.033203125 0.7216796875 536.552734375 0 375 0 c 0xde
230.295898438 242.154296875 m 1xbe
 230.295898438 243.154296875 230.3125 252.154296875 230.3125 252.154296875 c 2
 230.313476562 252.154296875 232.534179688 252.146484375 236.028320312 252.146484375 c 1
 236.028320312 251.146484375 236.014648438 243.146484375 236.010742188 242.146484375 c 0
 233.185546875 242.155273438 231.272460938 242.154296875 230.295898438 242.154296875 c 1xbe
EndSplineSet
AlternateSubs2: "'salt' Stylistic Alternatives in Latin lookup 0 subtable" uniE017
EndChar

StartChar: bracketleft
Encoding: 91 91 60
Width: 344
GlyphClass: 2
Flags: MW
HStem: -10.1719 94.7959<256.3 256.741 256.741 256.741> 495.976 94.7959<205.771 256.3 256.3 257.014 171.102 267.67>
VStem: 49.7002 102.471<229.505 351.094 229.505 370.396>
LayerCount: 2
Back
Fore
SplineSet
256.299804688 590.771484375 m 2
 85.9033203125 590.771484375 49.7001953125 450.4921875 49.7001953125 290.299804688 c 0
 49.7001953125 130.108398438 85.90625 -10.171875 256.299804688 -10.171875 c 2
 256.741210938 -10.171875 l 1
 257.174804688 -10.0947265625 l 2
 289.860351562 -4.283203125 294.299804688 24.3095703125 294.299804688 37.57421875 c 0
 294.299804688 61.7373046875 279.046875 84.6240234375 256.299804688 84.6240234375 c 0
 155.2421875 84.6240234375 152.170898438 168.7109375 152.170898438 290.299804688 c 0
 152.170898438 411.888671875 155.243164062 495.975585938 256.299804688 495.975585938 c 0
 279.041015625 495.975585938 294.299804688 518.868164062 294.299804688 543.025390625 c 0
 294.299804688 556.546875 290.543945312 580.997070312 257.69921875 590.571289062 c 2
 257.013671875 590.771484375 l 1
 256.299804688 590.771484375 l 2
EndSplineSet
EndChar

StartChar: backslash
Encoding: 92 92 61
Width: 380
GlyphClass: 2
Flags: MW
VStem: 38.2314 94.6787
LayerCount: 2
Back
Fore
SplineSet
40.029296875 586.6640625 m 2
 38.89453125 590.006835938 38.3291015625 593.096679688 38.2314453125 596.243164062 c 0
 37.6435546875 615.23046875 54.8984375 628 76.203125 628 c 0
 101.374023438 628 124.3984375 613.396484375 132.91015625 593.610351562 c 0
 134.017578125 591.25390625 339.751953125 31.5498046875 339.791992188 31.4375 c 0
 341.075195312 27.9501953125 341.744140625 24.400390625 341.78125 20.990234375 c 0
 341.98046875 2.4052734375 324.500976562 -10 303.65625 -10 c 0
 279.356445312 -10 254.372070312 4.2880859375 246.916992188 24.546875 c 2
 40.029296875 586.6640625 l 2
EndSplineSet
EndChar

StartChar: bracketright
Encoding: 93 93 62
Width: 343
GlyphClass: 2
Flags: MW
HStem: -10.1719 94.7959<86.7588 87.2002 86.7588 86.7588> 495.976 94.7959<86.4863 87.2002 87.2002 137.729>
VStem: 191.329 102.471<229.505 351.094>
LayerCount: 2
Back
Fore
SplineSet
87.2001953125 590.771484375 m 2
 257.596679688 590.771484375 293.799804688 450.4921875 293.799804688 290.299804688 c 0
 293.799804688 130.108398438 257.59375 -10.171875 87.2001953125 -10.171875 c 2
 86.7587890625 -10.171875 l 1
 86.3251953125 -10.0947265625 l 2
 53.6396484375 -4.283203125 49.2001953125 24.3095703125 49.2001953125 37.57421875 c 0
 49.2001953125 61.7373046875 64.453125 84.6240234375 87.2001953125 84.6240234375 c 0
 188.2578125 84.6240234375 191.329101562 168.7109375 191.329101562 290.299804688 c 0
 191.329101562 411.888671875 188.256835938 495.975585938 87.2001953125 495.975585938 c 0
 64.458984375 495.975585938 49.2001953125 518.868164062 49.2001953125 543.025390625 c 0
 49.2001953125 556.546875 52.9560546875 580.997070312 85.80078125 590.571289062 c 2
 86.486328125 590.771484375 l 1
 87.2001953125 590.771484375 l 2
EndSplineSet
EndChar

StartChar: asciicircum
Encoding: 94 94 63
Width: 499
GlyphClass: 2
Flags: MW
HStem: 484 290<67.5142 262.042 237.652 431.495>
VStem: 49.2119 74.2461<517.339 524.662> 375.544 74.2441<517.336 524.662>
LayerCount: 2
Back
Fore
SplineSet
249.499023438 774 m 0
 274.5859375 774 298.02734375 758.571289062 305.741210938 740.724609375 c 0
 316.3515625 725.080078125 448.41015625 527.633789062 448.46484375 527.552734375 c 2
 449.361328125 526.208007812 l 1
 449.788085938 524.662109375 l 2
 455.341796875 504.543945312 442.900390625 484 420.088867188 484 c 0
 398.62890625 484 380.736328125 501.80078125 375.543945312 517.3359375 c 1
 249.499023438 680.947265625 l 1
 123.458007812 517.338867188 l 1
 117.326171875 498.943359375 99.01171875 484 78.9091796875 484 c 0
 56.119140625 484 43.65625 504.537109375 49.2119140625 524.662109375 c 2
 49.640625 526.215820312 l 1
 50.5400390625 527.559570312 l 1
 50.5400390625 527.559570312 185.010742188 728.556640625 193.254882812 740.720703125 c 0
 202.028320312 761.059570312 225.8046875 774 249.499023438 774 c 0
EndSplineSet
EndChar

StartChar: underscore
Encoding: 95 95 64
Width: 884
GlyphClass: 2
Flags: MW
HStem: -143.01 94.1055<105 105>
LayerCount: 2
Back
Fore
SplineSet
105.576171875 -143.009765625 m 0
 81.9345703125 -142.1328125 68 -119.7265625 68 -95.9541015625 c 0
 68 -71.560546875 83.5263671875 -49.5380859375 105.857421875 -48.904296875 c 2
 778 -48.904296875 l 2
 800.739257812 -48.904296875 816 -71.8037109375 816 -95.9541015625 c 0
 816 -120.177734375 800.532226562 -143.004882812 778.001953125 -143.00390625 c 0
 777.626953125 -143.00390625 107.049804688 -143.149414062 105.576171875 -143.009765625 c 0
EndSplineSet
EndChar

StartChar: grave
Encoding: 96 96 65
Width: 244
GlyphClass: 2
Flags: MW
HStem: 597.5 112.5<70.2681 127.124>
VStem: 44.3428 112.487
LayerCount: 2
Back
Fore
SplineSet
199.506835938 584.81640625 m 0
 203.002929688 558.529296875 144.822265625 551.3125 118.182617188 547.595703125 c 2
 71.126953125 541.03125 l 1
 111.545898438 566.0078125 l 2
 134.494140625 580.186523438 143.530273438 581.114257812 138.118164062 599.370117188 c 1
 133.638671875 597.997070312 129.510742188 597.5 124.736328125 597.5 c 0
 94.63671875 597.5 63.4384765625 621.46875 50.357421875 649.5234375 c 0
 46.4443359375 657.9140625 44.353515625 666.295898438 44.3427734375 674.28515625 c 0
 44.3134765625 694.624023438 58.93359375 710 81.6025390625 710 c 0
 112.096679688 710 143.567382812 685.359375 156.830078125 658.828125 c 1
 172.328125 637.188476562 197.703125 606.899414062 199.506835938 584.81640625 c 0
EndSplineSet
EndChar

StartChar: a
Encoding: 97 97 66
Width: 760
GlyphClass: 2
Flags: MW
HStem: 0 102.471<316.698 425.183> 482.729 102.471<316.699 443.302>
VStem: 54.2402 98.7324<242.65 342.548 242.65 373.594> 611.15 94.0996<9.31445 19.4707>
LayerCount: 2
Back
Fore
SplineSet
380 585.19921875 m 0
 562.490234375 585.19921875 705.759765625 454.583007812 705.759765625 292.565429688 c 2
 705.25 19.8251953125 l 2
 705.25 -1.1962890625 671.095703125 -1.2861328125 656.412109375 -1.2919921875 c 0
 642.8046875 -1.2978515625 611.150390625 -1.4677734375 611.150390625 19.470703125 c 2
 611.15625 86.86328125 l 1
 551.447265625 32.283203125 470.366210938 0 380 0 c 0
 197.509765625 0 54.240234375 130.610351562 54.240234375 292.599609375 c 0
 54.240234375 454.588867188 197.509765625 585.19921875 380 585.19921875 c 0
607.02734375 292.599609375 m 0
 607.02734375 392.497070312 506.603515625 482.728515625 380 482.728515625 c 0
 253.3984375 482.728515625 152.97265625 392.497070312 152.97265625 292.599609375 c 0
 152.97265625 192.701171875 253.396484375 102.470703125 380 102.470703125 c 0
 506.6015625 102.470703125 607.02734375 192.701171875 607.02734375 292.599609375 c 0
EndSplineSet
EndChar

StartChar: b
Encoding: 98 98 67
Width: 764
GlyphClass: 2
Flags: MW
HStem: 0 102.471<318.698 445.301 318.698 473.245> 482.729 102.471<336.816 445.302>
VStem: 56.2402 94.6025 609.027 98.7324<242.651 342.549>
LayerCount: 2
Back
Fore
SplineSet
382 0 m 0
 199.497070312 0 56.240234375 131.396484375 56.240234375 294.342773438 c 2
 56.75 708.731445312 l 2
 56.75 730.319335938 90.8603515625 730.484375 105.587890625 730.491210938 c 0
 119.1953125 730.497070312 150.849609375 730.666992188 150.849609375 709.728515625 c 2
 150.842773438 498.334960938 l 1
 210.552734375 552.916992188 291.6328125 585.19921875 382 585.19921875 c 0
 564.490234375 585.19921875 707.759765625 454.588867188 707.759765625 292.599609375 c 0
 707.759765625 130.610351562 564.490234375 0 382 0 c 0
154.97265625 292.599609375 m 0
 154.97265625 192.702148438 255.396484375 102.470703125 382 102.470703125 c 0
 508.6015625 102.470703125 609.02734375 192.702148438 609.02734375 292.599609375 c 0
 609.02734375 392.498046875 508.603515625 482.728515625 382 482.728515625 c 0
 255.3984375 482.728515625 154.97265625 392.498046875 154.97265625 292.599609375 c 0
EndSplineSet
EndChar

StartChar: c
Encoding: 99 99 68
Width: 724
GlyphClass: 2
Flags: MW
HStem: -0.171875 94.7959<310.274 369.3 310.274 450.076> 485.976 94.7959<303.21 417.963>
VStem: 46.7002 102.471<236.493 344.152 236.493 370.458>
LayerCount: 2
Back
Fore
SplineSet
46.7001953125 290.299804688 m 0
 46.7001953125 450.615234375 183.265625 580.771484375 359.151367188 580.771484375 c 0
 529.880859375 580.771484375 638.604492188 580.0546875 639.943359375 580.045898438 c 0
 662.807617188 579.337890625 677.299804688 556.814453125 677.299804688 533 c 0
 677.299804688 508.83203125 662.05078125 485.950195312 639.297851562 485.950195312 c 2
 639.297851562 485.950195312 476.774414062 485.975585938 359.151367188 485.975585938 c 0
 247.26953125 485.975585938 149.170898438 398.004882812 149.170898438 290.299804688 c 0
 149.170898438 182.686523438 251.248046875 94.6240234375 369.299804688 94.6240234375 c 2
 639.299804688 94.6494140625 l 2
 662.0390625 94.6494140625 677.299804688 71.7509765625 677.299804688 47.599609375 c 0
 677.299804688 23.431640625 662.026367188 0.5498046875 639.333007812 0.5498046875 c 2
 639.333007812 0.5498046875 530.852539062 -0.171875 369.299804688 -0.171875 c 0
 184.149414062 -0.171875 46.7001953125 129.94140625 46.7001953125 290.299804688 c 0
EndSplineSet
EndChar

StartChar: d
Encoding: 100 100 69
Width: 761
GlyphClass: 2
Flags: MW
HStem: 0 102.471<317.198 443.801 317.198 471.751> 482.729 102.471<317.199 425.924 289.255 443.802>
VStem: 54.7402 98.7324<242.651 342.549 242.651 373.594> 611.657 94.6025
LayerCount: 2
Back
Fore
SplineSet
611.650390625 709.728515625 m 2
 611.650390625 730.348632812 642.362304688 730.375 655.631835938 730.486328125 c 0
 670.668945312 730.611328125 705.75 730.62109375 705.75 708.737304688 c 2
 706.259765625 294.333984375 l 2
 706.259765625 131.3984375 563.002929688 0 380.5 0 c 0
 198.009765625 0 54.740234375 130.610351562 54.740234375 292.599609375 c 0
 54.740234375 454.588867188 198.009765625 585.19921875 380.5 585.19921875 c 0
 471.34765625 585.19921875 554.208007812 550.837890625 611.657226562 498.328125 c 1
 611.650390625 709.728515625 l 2
607.52734375 292.599609375 m 0
 607.52734375 392.498046875 507.103515625 482.728515625 380.5 482.728515625 c 0
 253.8984375 482.728515625 153.47265625 392.498046875 153.47265625 292.599609375 c 0
 153.47265625 192.702148438 253.896484375 102.470703125 380.5 102.470703125 c 0
 507.1015625 102.470703125 607.52734375 192.702148438 607.52734375 292.599609375 c 0
EndSplineSet
EndChar

StartChar: e
Encoding: 101 101 70
Width: 718
GlyphClass: 2
Flags: W
LayerCount: 2
Back
Fore
SplineSet
664.708007812 156.827148438 m 0
 603.416992188 97.1865234375 616.704101562 95.31640625 526.34375 40.6201171875 c 0
 384.342773438 -40.0771484375 166.877929688 -4.1865234375 82.7626953125 136.123046875 c 0
 -0.9912109375 276.403320312 54.498046875 458.389648438 207.15234375 542.38671875 c 0
 336.793945312 610.743164062 494.439453125 593.6640625 593.905273438 508.827148438 c 0
 603.75 499.997070312 622.306640625 486.36328125 636.008789062 471.65625 c 0
 648.287109375 458.067382812 662.7734375 435.647460938 644.028320312 418.319335938 c 0
 581.395507812 360.596679688 513.287109375 306.129882812 441.532226562 254.096679688 c 0
 426.157226562 242.708007812 395.572265625 237.010742188 377.159179688 259.357421875 c 0
 361.1484375 278.787109375 360.4921875 305.043945312 377.702148438 319.547851562 c 0
 403.376953125 339.63671875 507.721679688 413.092773438 523.045898438 434.369140625 c 1
 437.405273438 472.903320312 346.840820312 501.45703125 260.921875 453.57421875 c 0
 152.008789062 396.365234375 115.627929688 272.283203125 168.336914062 185.58984375 c 0
 172.9765625 178.208984375 178.418945312 171.1328125 184.559570312 164.298828125 c 0
 249.884765625 89.828125 382.787109375 57.404296875 470.979492188 122.73828125 c 2
 597.57421875 214.00390625 l 2
 612.325195312 225.940429688 635.725585938 229.231445312 655.537109375 212.737304688 c 0
 674.515625 198.861328125 681.607421875 171.430664062 664.708007812 156.827148438 c 0
EndSplineSet
AlternateSubs2: "'salt' Stylistic Alternatives in Latin lookup 0 subtable" uniE00A
EndChar

StartChar: f
Encoding: 102 102 71
Width: 725
GlyphClass: 2
Flags: MW
HStem: 269 94.0996<197.438 197.439 197.439 197.634 197.438 591.146> 485.976 94.7959<303.725 418.468>
VStem: 47.2109 102.465<289.979 289.979> 55.9883 94.0664
LayerCount: 2
Back
Fore
SplineSet
197.4375 363.099609375 m 0xc0
 197.830078125 363.099609375 589.9375 363.248046875 591.435546875 363.104492188 c 0
 615.072265625 362.228515625 629.005859375 339.822265625 629.005859375 316.049804688 c 0
 629.005859375 291.655273438 613.58203125 269.637695312 591.146484375 269 c 2
 197.439453125 269 l 2
 173.646484375 269 158.005859375 291.8359375 158.005859375 316.049804688 c 0
 158.005859375 340.33984375 173.865234375 363.100585938 197.4375 363.099609375 c 0xc0
149.67578125 288.526367188 m 0xe0
 149.67578125 186.720703125 149.962890625 65.4072265625 150.05078125 41.42578125 c 0
 150.044921875 39.763671875 150.060546875 38.2373046875 150.0546875 36.5615234375 c 0
 149.978515625 14.6171875 127.09765625 0 103.005859375 0 c 0
 78.21484375 0 56.81640625 15.576171875 55.98828125 35.5 c 0xd0
 55.771484375 43.7041015625 47.236328125 289.240234375 47.2109375 289.978515625 c 2
 47.1953125 290.465820312 l 1
 47.2265625 290.946289062 l 2
 58.01171875 449.877929688 183.318359375 580.771484375 359.65625 580.771484375 c 0
 530.05078125 580.771484375 639.837890625 580.049804688 639.837890625 580.049804688 c 2
 662.51953125 580.049804688 677.8046875 557.150390625 677.8046875 533 c 0
 677.8046875 508.83203125 662.5546875 485.950195312 639.802734375 485.950195312 c 2
 639.802734375 485.950195312 477.279296875 485.975585938 359.65625 485.975585938 c 0
 247.79296875 485.975585938 149.67578125 397.225585938 149.67578125 288.526367188 c 0xe0
EndSplineSet
EndChar

StartChar: g
Encoding: 103 103 72
Width: 741
GlyphClass: 2
Flags: MW
HStem: -0.171875 94.7959<318.774 412.52 318.774 458.576> 485.976 94.7959<311.71 426.463>
VStem: 55.2002 102.471<236.493 344.152 236.493 370.458> 591.696 94.1035<47.5938 94.6406>
LayerCount: 2
Back
Fore
SplineSet
55.2001953125 290.299804688 m 0
 55.2001953125 450.615234375 191.765625 580.771484375 367.651367188 580.771484375 c 0
 538.380859375 580.771484375 647.104492188 580.0546875 648.443359375 580.045898438 c 0
 671.307617188 579.337890625 685.799804688 556.814453125 685.799804688 533 c 0
 685.799804688 508.83203125 670.55078125 485.950195312 647.797851562 485.950195312 c 2
 647.797851562 485.950195312 485.274414062 485.975585938 367.651367188 485.975585938 c 0
 255.76953125 485.975585938 157.670898438 398.004882812 157.670898438 290.299804688 c 0
 157.670898438 182.686523438 259.748046875 94.6240234375 377.799804688 94.6240234375 c 0
 447.240234375 94.6240234375 537.306640625 94.6337890625 591.696289062 94.640625 c 1
 591.674804688 318.599609375 l 2
 591.673828125 341.338867188 614.573242188 356.599609375 638.724609375 356.599609375 c 0
 662.891601562 356.599609375 685.774414062 341.348632812 685.774414062 318.599609375 c 2
 685.799804688 47.59375 l 2
 685.786132812 23.4189453125 670.51953125 0.5498046875 647.833007812 0.5498046875 c 2
 647.833007812 0.5498046875 539.352539062 -0.171875 377.799804688 -0.171875 c 0
 192.649414062 -0.171875 55.2001953125 129.94140625 55.2001953125 290.299804688 c 0
EndSplineSet
AlternateSubs2: "'salt' Stylistic Alternatives in Latin lookup 0 subtable" uniE003
EndChar

StartChar: h
Encoding: 104 104 73
Width: 703
GlyphClass: 2
Flags: MW
HStem: 400.129 85.8164<307.356 409.352>
VStem: 57.9395 94.1562 551.176 94.7959<144.24 253.315>
LayerCount: 2
Back
Fore
SplineSet
57.0283203125 193.3828125 m 0
 57.0283203125 201.21484375 57.3154296875 208.60546875 57.939453125 216.291992188 c 0
 57.8974609375 373.865234375 57.95703125 579.302734375 57.95703125 579.513671875 c 0
 58.8828125 604.498046875 81.2880859375 618 105.045898438 618 c 0
 129.427734375 618 151.455078125 602.688476562 152.095703125 580.142578125 c 2
 152.095703125 407.177734375 l 1
 204.663085938 456.264648438 265.3359375 485.9453125 349.376953125 485.9453125 c 0
 525.53125 485.9453125 645.971679688 354.275390625 645.971679688 193.389648438 c 0
 645.971679688 47.74609375 645.420898438 37.8544921875 645.233398438 36.1103515625 c 2
 645.233398438 36.1103515625 621.2578125 0 598.200195312 0 c 0
 574.032226562 0 551.150390625 15.2470703125 551.150390625 38.005859375 c 2
 551.150390625 38.005859375 551.17578125 88.4794921875 551.17578125 200 c 0
 551.17578125 306.629882812 469.327148438 400.12890625 349.376953125 400.12890625 c 0
 233.321289062 400.12890625 157.557617188 312.889648438 152.095703125 209.966796875 c 1
 152.095703125 38 l 2
 152.095703125 15.2158203125 128.8984375 0 104.66796875 0 c 0
 79.4287109375 0 59.1962890625 14.9560546875 57.7236328125 36.513671875 c 0
 57.6171875 37.5009765625 57.0283203125 48.95703125 57.0283203125 193.3828125 c 0
EndSplineSet
AlternateSubs2: "'salt' Stylistic Alternatives in Latin lookup 0 subtable" uniE004
EndChar

StartChar: i
Encoding: 105 105 74
Width: 217
GlyphClass: 2
Flags: MW
VStem: 61.4834 94.0996<28 28.1934>
LayerCount: 2
Back
Fore
SplineSet
61.48046875 561.486328125 m 0
 62.4013671875 579.98828125 85.3330078125 590 108.533203125 590 c 0
 132.28515625 590 154.912109375 579.067382812 155.583007812 561.845703125 c 2
 155.583007812 28 l 2
 155.583007812 10.57421875 132.00390625 0 108.533203125 0 c 0
 85 0 61.482421875 10.7294921875 61.4833984375 28 c 0
 61.4833984375 28.38671875 61.3349609375 559.981445312 61.48046875 561.486328125 c 0
EndSplineSet
EndChar

StartChar: j
Encoding: 106 106 75
Width: 731
GlyphClass: 2
Flags: MW
HStem: 0 94.7959<302.436 417.211 302.436 451.005>
VStem: 577.949 94.0625 578.324 102.48<290.312 290.312 290.312 343.148>
LayerCount: 2
Back
Fore
SplineSet
578.32421875 292.245117188 m 0xa0
 578.32421875 394.05078125 578.037109375 515.364257812 577.94921875 539.345703125 c 0
 577.955078125 541.004882812 577.939453125 542.536132812 577.9453125 544.209960938 c 0
 578.021484375 566.154296875 600.90234375 580.771484375 624.994140625 580.771484375 c 0
 649.78515625 580.771484375 671.18359375 565.1953125 672.01171875 545.270507812 c 0xc0
 672.2265625 537.071289062 680.763671875 291.5234375 680.7890625 290.799804688 c 2
 680.8046875 290.311523438 l 1
 680.7734375 289.825195312 l 2
 669.984375 130.850585938 543.814453125 0 358.1953125 0 c 0
 196.642578125 0 88.162109375 0.7216796875 88.162109375 0.7216796875 c 2
 65.48046875 0.7216796875 50.1953125 23.62109375 50.1953125 47.771484375 c 0
 50.1953125 71.939453125 65.443359375 94.8212890625 88.197265625 94.8212890625 c 2
 88.197265625 94.8212890625 246.67578125 94.7958984375 358.1953125 94.7958984375 c 0
 476.2265625 94.7958984375 578.32421875 183.637695312 578.32421875 292.245117188 c 0xa0
EndSplineSet
EndChar

StartChar: k
Encoding: 107 107 76
Width: 612
GlyphClass: 2
Flags: MW
VStem: 48.1182 94.0996
LayerCount: 2
Back
Fore
SplineSet
48.115234375 589.486328125 m 0
 49.0361328125 607.98828125 71.9677734375 618 95.16796875 618 c 0
 118.908203125 618 141.5390625 607.26171875 142.217773438 589.845703125 c 2
 142.217773438 179.240234375 l 1
 174.90234375 231.09765625 214.799804688 290.733398438 251.637695312 345.6953125 c 1
 251.083007812 358.333984375 259.329101562 366.1484375 268.862304688 370.779296875 c 0
 269.141601562 370.250976562 394.805664062 563.47265625 414.291992188 589.650390625 c 0
 428.56640625 607.529296875 459.483398438 618 487.776367188 618 c 0
 498.3984375 618 507.431640625 616.548828125 514.872070312 613.34765625 c 0
 528.791992188 606.704101562 534.120117188 592.717773438 525.788085938 579.647460938 c 2
 374.330078125 342.177734375 l 1
 401.2109375 300.396484375 557.743164062 41.4453125 559.668945312 38.1875 c 2
 559.756835938 38.0380859375 l 1
 559.833984375 37.5751953125 l 2
 562.331054688 31.8916015625 563.849609375 25.6083984375 563.942382812 19.3466796875 c 0
 564.393554688 5.1796875 542.333984375 0 521.622070312 0 c 0
 493.115234375 0 461.852539062 11.208984375 449.8984375 28.1025390625 c 2
 311.165039062 245.182617188 l 1
 166.848632812 28.033203125 l 2
 154.885742188 11.1298828125 123.573242188 0 95.16796875 0 c 0
 76.70703125 0 62.1943359375 5.1806640625 55.9794921875 13.46875 c 0
 50.1630859375 18.6337890625 48.1181640625 22.541015625 48.1181640625 28 c 0
 48.1181640625 28.3876953125 47.96875 587.979492188 48.115234375 589.486328125 c 0
EndSplineSet
EndChar

StartChar: l
Encoding: 108 108 77
Width: 721
GlyphClass: 2
Flags: MW
HStem: 0 94.7959<308.79 367.806 308.79 448.582>
VStem: 45.1943 102.482<290.314 290.314> 53.9561 94.1055<539.343 544.144>
LayerCount: 2
Back
Fore
SplineSet
101.005859375 580.771484375 m 0xa0
 125.114257812 580.771484375 147.978515625 566.159179688 148.055664062 544.204101562 c 2
 148.061523438 539.342773438 l 2xa0
 147.96875 513.935546875 147.676757812 393.802734375 147.676757812 292.245117188 c 0
 147.676757812 183.637695312 249.7734375 94.7958984375 367.805664062 94.7958984375 c 2
 637.805664062 94.8212890625 l 2
 660.544921875 94.8212890625 675.805664062 71.9228515625 675.805664062 47.771484375 c 0
 675.805664062 23.603515625 660.532226562 0.7216796875 637.838867188 0.7216796875 c 2
 637.838867188 0.7216796875 529.358398438 0 367.805664062 0 c 0
 182.184570312 0 56.015625 130.850585938 45.2275390625 289.825195312 c 2
 45.1943359375 290.314453125 l 1xc0
 53.9560546875 544.143554688 l 2
 54.0302734375 565.940429688 76.900390625 580.771484375 101.005859375 580.771484375 c 0xa0
EndSplineSet
EndChar

StartChar: m
Encoding: 109 109 78
Width: 1105
GlyphClass: 2
Flags: MW
HStem: 488.129 102.471<271.359 383.938 243.527 386.436 722.414 834.643>
VStem: 58.4551 94.7949<295.974 347.866 295.974 377.875> 504.375 97.2783<295.974 347.895 295.974 347.895> 951.75 94.7949<242.409 347.904>
LayerCount: 2
Back
Fore
SplineSet
777.12109375 590.599609375 m 0
 947.885742188 590.599609375 1046.54492188 457.78515625 1046.54492188 297.911132812 c 0
 1046.54492188 141.340820312 1045.82910156 37.548828125 1045.8203125 36.201171875 c 0
 1045.10839844 13.96484375 1022.52050781 0 998.7734375 0 c 0
 974.689453125 0 951.724609375 14.591796875 951.724609375 36.6025390625 c 2
 951.724609375 36.6025390625 951.75 188.84375 951.75 295.973632812 c 0
 951.75 399.834960938 892.165039062 488.12890625 777.12109375 488.12890625 c 0
 662.060546875 488.12890625 601.653320312 399.815429688 601.653320312 295.973632812 c 2
 601.678710938 36.6005859375 l 2
 601.678710938 14.5732421875 578.581054688 0 552.630859375 0 c 0
 527.9609375 0 504.348632812 14.5361328125 504.348632812 36.6025390625 c 2
 504.348632812 36.6025390625 504.375 188.84375 504.375 295.973632812 c 0
 504.375 399.815429688 443.96484375 488.12890625 328.90625 488.12890625 c 0
 213.811523438 488.12890625 153.25 399.758789062 153.25 295.973632812 c 2
 153.275390625 36.6005859375 l 2
 153.275390625 14.6025390625 130.29296875 0 106.2265625 0 c 0
 82.12890625 0 59.17578125 14.720703125 59.17578125 36.794921875 c 2
 59.17578125 36.794921875 58.455078125 141.692382812 58.455078125 297.911132812 c 0
 58.455078125 457.837890625 158.1484375 590.599609375 328.90625 590.599609375 c 0
 438.969726562 590.599609375 503.248046875 532.209960938 553.012695312 451.426757812 c 1
 604.283203125 534.657226562 667.706054688 590.599609375 777.12109375 590.599609375 c 0
EndSplineSet
EndChar

StartChar: n
Encoding: 110 110 79
Width: 739
GlyphClass: 2
Flags: MW
HStem: 488.129 102.471<309.472 429.528>
VStem: 59.0283 94.7959<295.974 346.679 295.974 378.717> 585.176 94.7959<242.409 346.679>
LayerCount: 2
Back
Fore
SplineSet
369.5 590.599609375 m 0
 544.310546875 590.599609375 679.971679688 459.522460938 679.971679688 297.911132812 c 0
 679.971679688 141.340820312 679.254882812 37.5498046875 679.24609375 36.2001953125 c 0
 678.534179688 13.96484375 655.946289062 0 632.200195312 0 c 0
 608.116210938 0 585.150390625 14.591796875 585.150390625 36.6025390625 c 2
 585.150390625 36.6025390625 585.17578125 188.84375 585.17578125 295.973632812 c 0
 585.17578125 397.383789062 489.556640625 488.12890625 369.5 488.12890625 c 0
 249.443359375 488.12890625 153.82421875 397.383789062 153.82421875 295.973632812 c 2
 153.849609375 36.6005859375 l 2
 153.849609375 14.6025390625 130.865234375 0 106.799804688 0 c 0
 82.703125 0 59.75 14.720703125 59.75 36.794921875 c 2
 59.75 36.794921875 59.0283203125 141.692382812 59.0283203125 297.911132812 c 0
 59.0283203125 459.522460938 194.689453125 590.599609375 369.5 590.599609375 c 0
EndSplineSet
EndChar

StartChar: o
Encoding: 111 111 80
Width: 756
GlyphClass: 2
Flags: MW
HStem: 0 102.471<314.698 441.301 314.698 469.245> 482.729 102.471<314.699 441.302>
VStem: 52.2402 98.7324<242.65 342.548 242.65 373.594> 605.027 98.7324<242.65 342.548>
LayerCount: 2
Back
Fore
SplineSet
605.02734375 292.599609375 m 0
 605.02734375 392.497070312 504.603515625 482.728515625 378 482.728515625 c 0
 251.3984375 482.728515625 150.97265625 392.497070312 150.97265625 292.599609375 c 0
 150.97265625 192.701171875 251.396484375 102.470703125 378 102.470703125 c 0
 504.6015625 102.470703125 605.02734375 192.701171875 605.02734375 292.599609375 c 0
703.759765625 292.599609375 m 0
 703.759765625 130.610351562 560.490234375 0 378 0 c 0
 195.509765625 0 52.240234375 130.610351562 52.240234375 292.599609375 c 0
 52.240234375 454.588867188 195.509765625 585.19921875 378 585.19921875 c 0
 560.490234375 585.19921875 703.759765625 454.588867188 703.759765625 292.599609375 c 0
EndSplineSet
EndChar

StartChar: p
Encoding: 112 112 81
Width: 766
GlyphClass: 2
Flags: MW
HStem: 0 102.471<337.576 446.301 319.698 474.245> 482.729 102.471<319.699 446.302>
VStem: 57.75 94.0996<-96.4805 -86.5293 -96.8394 -85.5391> 610.027 98.7324<242.65 342.548>
LayerCount: 2
Back
Fore
SplineSet
151.849609375 -86.529296875 m 2
 151.849609375 -107.149414062 121.137695312 -107.17578125 107.868164062 -107.287109375 c 0
 92.8310546875 -107.412109375 57.75 -107.421875 57.75 -85.5390625 c 2
 57.240234375 291.321289062 l 2
 57.240234375 454.008789062 200.5 585.19921875 383 585.19921875 c 0
 565.490234375 585.19921875 708.759765625 454.588867188 708.759765625 292.599609375 c 0
 708.759765625 130.610351562 565.490234375 0 383 0 c 0
 292.15234375 0 209.291992188 34.3623046875 151.842773438 86.8701171875 c 1
 151.849609375 -86.529296875 l 2
155.97265625 292.599609375 m 0
 155.97265625 192.701171875 256.396484375 102.470703125 383 102.470703125 c 0
 509.6015625 102.470703125 610.02734375 192.701171875 610.02734375 292.599609375 c 0
 610.02734375 392.497070312 509.603515625 482.728515625 383 482.728515625 c 0
 256.3984375 482.728515625 155.97265625 392.497070312 155.97265625 292.599609375 c 0
EndSplineSet
EndChar

StartChar: q
Encoding: 113 113 82
Width: 760
GlyphClass: 2
Flags: MW
HStem: 0 102.471<316.698 425.184> 482.729 102.471<316.699 443.302>
VStem: 54.2402 98.7324<242.65 342.548 242.65 373.594> 611.15 94.0996<-96.3262 -86.5293>
LayerCount: 2
Back
Fore
SplineSet
380 585.19921875 m 0
 562.5 585.19921875 705.759765625 454.010742188 705.759765625 291.310546875 c 2
 705.25 -85.5322265625 l 2
 705.25 -107.120117188 671.139648438 -107.28515625 656.412109375 -107.291992188 c 0
 642.8046875 -107.297851562 611.150390625 -107.467773438 611.150390625 -86.529296875 c 2
 611.157226562 86.86328125 l 1
 551.447265625 32.2822265625 470.3671875 0 380 0 c 0
 197.509765625 0 54.240234375 130.610351562 54.240234375 292.599609375 c 0
 54.240234375 454.588867188 197.509765625 585.19921875 380 585.19921875 c 0
607.02734375 292.599609375 m 0
 607.02734375 392.497070312 506.603515625 482.728515625 380 482.728515625 c 0
 253.3984375 482.728515625 152.97265625 392.497070312 152.97265625 292.599609375 c 0
 152.97265625 192.701171875 253.396484375 102.470703125 380 102.470703125 c 0
 506.6015625 102.470703125 607.02734375 192.701171875 607.02734375 292.599609375 c 0
EndSplineSet
EndChar

StartChar: r
Encoding: 114 114 83
Width: 726
GlyphClass: 2
Flags: MW
HStem: 485.976 94.7959<304.225 418.968>
VStem: 47.7109 102.465<289.979 289.979> 56.4883 94.0625
LayerCount: 2
Back
Fore
SplineSet
150.17578125 288.526367188 m 0xc0
 150.17578125 186.720703125 150.462890625 65.4072265625 150.55078125 41.42578125 c 0
 150.544921875 39.763671875 150.560546875 38.2373046875 150.5546875 36.5615234375 c 0
 150.478515625 14.6171875 127.59765625 0 103.505859375 0 c 0
 78.71484375 0 57.31640625 15.576171875 56.48828125 35.5 c 0xa0
 56.271484375 43.7041015625 47.736328125 289.240234375 47.7109375 289.978515625 c 2
 47.6953125 290.465820312 l 1
 47.7265625 290.946289062 l 2
 58.51171875 449.877929688 183.818359375 580.771484375 360.15625 580.771484375 c 0
 530.55078125 580.771484375 640.337890625 580.049804688 640.337890625 580.049804688 c 2
 663.01953125 580.049804688 678.3046875 557.150390625 678.3046875 533 c 0
 678.3046875 508.83203125 663.0546875 485.950195312 640.302734375 485.950195312 c 2
 640.302734375 485.950195312 477.779296875 485.975585938 360.15625 485.975585938 c 0
 248.29296875 485.975585938 150.17578125 397.225585938 150.17578125 288.526367188 c 0xc0
EndSplineSet
EndChar

StartChar: s
Encoding: 115 115 84
Width: 737
GlyphClass: 2
Flags: MW
HStem: 0 94.7959<306.741 425.388 306.741 451.816> 242.146 94.7979<506.575 506.575> 483.573 94.7959<311.612 430.259>
VStem: 51.9004 100.57 582.629 102.471<153.113 190.628>
LayerCount: 2
Back
Fore
SplineSet
152.470703125 376.212890625 m 0
 152.333984375 362.18359375 156.708984375 336.516601562 228.28515625 336.217773438 c 0
 230.545898438 336.231445312 349.686523438 336.943359375 513.5 336.943359375 c 0
 525.943359375 336.943359375 539.092773438 337.44140625 552.387695312 337.442382812 c 0
 617.520507812 337.451171875 685.099609375 322.125 685.099609375 188.857421875 c 0
 685.099609375 28.0107421875 541.1328125 0 362.5 0 c 0
 200.947265625 0 92.466796875 0.7216796875 92.466796875 0.7216796875 c 2
 69.7861328125 0.7216796875 54.5 23.62109375 54.5 47.771484375 c 0
 54.5 71.939453125 69.7490234375 94.8212890625 92.501953125 94.8212890625 c 2
 92.501953125 94.8212890625 250.981445312 94.7958984375 362.5 94.7958984375 c 0
 488.276367188 94.7958984375 582.62890625 118.078125 582.62890625 188.147460938 c 0
 582.62890625 193.109375 584.536132812 195.258789062 584.53125 202.561523438 c 0
 584.524414062 216.21875 580.109375 242.237304688 508.076171875 242.147460938 c 2
 506.575195312 242.145507812 l 1
 505.911132812 242.318359375 l 2
 496.862304688 244.076171875 376.189453125 241.42578125 223.5 241.42578125 c 0
 211.056640625 241.42578125 197.907226562 240.927734375 184.612304688 240.926757812 c 0
 119.479492188 240.91796875 51.900390625 256.244140625 51.900390625 389.51171875 c 0
 51.900390625 550.358398438 195.8671875 578.369140625 374.5 578.369140625 c 0
 536.052734375 578.369140625 644.533203125 577.647460938 644.533203125 577.647460938 c 2
 667.213867188 577.647460938 682.5 554.748046875 682.5 530.59765625 c 0
 682.5 506.4296875 667.250976562 483.547851562 644.498046875 483.547851562 c 2
 644.498046875 483.547851562 486.018554688 483.573242188 374.5 483.573242188 c 0
 248.723632812 483.573242188 154.37109375 460.291015625 154.37109375 390.221679688 c 0
 154.37109375 385.30859375 152.5390625 383.288085938 152.470703125 376.212890625 c 0
EndSplineSet
AlternateSubs2: "'salt' Stylistic Alternatives in Latin lookup 0 subtable" uniE016
EndChar

StartChar: t
Encoding: 116 116 85
Width: 625
GlyphClass: 2
Flags: MW
HStem: 498.901 91.1484<76.9961 296.491>
VStem: 262.286 100.428<36.8223 36.8223>
LayerCount: 2
Back
Fore
SplineSet
76.99609375 498.901367188 m 2
 76.99609375 498.901367188 39.5 522.029296875 39.5 544.473632812 c 0
 39.5 568.158203125 54.9912109375 589.435546875 77.359375 590.049804688 c 2
 296.491210938 590.049804688 l 2
 302.998046875 591.625976562 306.762695312 592 312.5 592 c 0
 318.112304688 592 326.095703125 590.598632812 328.438476562 590.049804688 c 2
 547.5 590.049804688 l 2
 570.170898438 590.049804688 585.5 567.922851562 585.5 544.473632812 c 0
 585.5 520.953125 569.959960938 498.895507812 547.50390625 498.896484375 c 2
 547.50390625 498.896484375 463.6328125 498.859375 362.713867188 498.833007812 c 1
 362.713867188 36.826171875 l 2
 362.713867188 14.5654296875 338.073242188 0 312.5 0 c 0
 286.841796875 0 262.28515625 14.765625 262.286132812 36.822265625 c 2
 262.286132812 36.822265625 262.14453125 364.13671875 262.201171875 498.8125 c 1
 155.109375 498.796875 80.064453125 498.6328125 76.99609375 498.901367188 c 2
EndSplineSet
EndChar

StartChar: u
Encoding: 117 117 86
Width: 736
GlyphClass: 2
Flags: MW
HStem: 0 102.471<307.972 428.028 307.972 455.405>
VStem: 57.5283 94.7959<243.921 348.191 243.921 370.798> 583.676 94.7959<243.921 294.626>
LayerCount: 2
Back
Fore
SplineSet
583.650390625 553.999023438 m 2
 583.650390625 575.997070312 606.634765625 590.599609375 630.700195312 590.599609375 c 0
 654.79296875 590.599609375 677.75 575.908203125 677.75 553.8046875 c 2
 677.75 553.8046875 678.471679688 448.907226562 678.471679688 292.688476562 c 0
 678.471679688 131.077148438 542.810546875 0 368 0 c 0
 193.189453125 0 57.5283203125 131.077148438 57.5283203125 292.688476562 c 0
 57.5283203125 448.907226562 58.25 553.8046875 58.25 553.8046875 c 2
 58.25 575.866210938 81.2216796875 590.599609375 105.299804688 590.599609375 c 0
 129.383789062 590.599609375 152.349609375 576.0078125 152.349609375 553.997070312 c 2
 152.349609375 553.997070312 152.32421875 401.755859375 152.32421875 294.625976562 c 0
 152.32421875 193.215820312 247.943359375 102.470703125 368 102.470703125 c 0
 488.056640625 102.470703125 583.67578125 193.215820312 583.67578125 294.625976562 c 2
 583.650390625 553.999023438 l 2
EndSplineSet
EndChar

StartChar: v
Encoding: 118 118 87
Width: 632
GlyphClass: 2
Flags: MW
VStem: 481.177 94.0635 481.551 102.481<294.584 294.584 294.584 347.75>
LayerCount: 2
Back
Fore
SplineSet
211.743164062 31.8095703125 m 1x40
 49.7041015625 552.327148438 l 2
 48.662109375 555.876953125 48.0498046875 559.743164062 47.9765625 563.322265625 c 0
 47.53125 579.190429688 64.6875 590 85.96875 590 c 0
 110.813476562 590 134.5 577.119140625 142.870117188 558.155273438 c 0
 143.22265625 557.330078125 251.396484375 223.092773438 293.456054688 95.5576171875 c 1
 397.376953125 108.01171875 481.55078125 192.697265625 481.55078125 294.75 c 0x40
 481.55078125 400.75 481.264648438 526.997070312 481.176757812 552.001953125 c 0
 481.182617188 553.735351562 481.166992188 555.323242188 481.171875 557.06640625 c 0
 481.247070312 576.77734375 504.044921875 590.049804688 528.221679688 590.049804688 c 0
 553.08203125 590.049804688 574.416992188 575.998046875 575.240234375 558.196289062 c 0x80
 575.456054688 549.713867188 583.991210938 295.84375 584.016601562 295.081054688 c 2
 584.032226562 294.583984375 l 1
 584 294.095703125 l 2
 573.221679688 132.474609375 447.685546875 -0.7216796875 268.129882812 -0.7216796875 c 0
 220.212890625 -0.7216796875 216.7890625 24.0361328125 212.067382812 31.2734375 c 2
 211.743164062 31.8095703125 l 1x40
EndSplineSet
AlternateSubs2: "'salt' Stylistic Alternatives in Latin lookup 0 subtable" uniE015
EndChar

StartChar: w
Encoding: 119 119 88
Width: 1104
GlyphClass: 2
Flags: MW
HStem: 0 102.471<269.857 382.086 720.562 833.141>
VStem: 57.9551 94.7949<242.695 348.191 242.695 370.974> 502.847 97.2783<242.705 294.626> 951.25 94.7949<242.733 294.626>
LayerCount: 2
Back
Fore
SplineSet
327.37890625 0 m 0
 156.614257812 0 57.955078125 132.814453125 57.955078125 292.688476562 c 0
 57.955078125 449.258789062 58.6708984375 553.05078125 58.6796875 554.3984375 c 0
 59.3916015625 576.634765625 81.9794921875 590.599609375 105.7265625 590.599609375 c 0
 129.810546875 590.599609375 152.775390625 576.0078125 152.775390625 553.997070312 c 2
 152.775390625 553.997070312 152.75 401.755859375 152.75 294.625976562 c 0
 152.75 190.764648438 212.334960938 102.470703125 327.37890625 102.470703125 c 0
 442.439453125 102.470703125 502.846679688 190.784179688 502.846679688 294.625976562 c 2
 502.821289062 553.999023438 l 2
 502.821289062 576.026367188 525.918945312 590.599609375 551.869140625 590.599609375 c 0
 576.5390625 590.599609375 600.151367188 576.063476562 600.151367188 553.997070312 c 2
 600.151367188 553.997070312 600.125 401.755859375 600.125 294.625976562 c 0
 600.125 190.784179688 660.53515625 102.470703125 775.59375 102.470703125 c 0
 890.688476562 102.470703125 951.25 190.840820312 951.25 294.625976562 c 2
 951.224609375 553.999023438 l 2
 951.224609375 575.997070312 974.20703125 590.599609375 998.2734375 590.599609375 c 0
 1022.37109375 590.599609375 1045.32421875 575.87890625 1045.32421875 553.8046875 c 2
 1045.32421875 553.8046875 1046.04492188 448.907226562 1046.04492188 292.688476562 c 0
 1046.04492188 132.76171875 946.3515625 0 775.59375 0 c 0
 665.530273438 0 601.251953125 58.3896484375 551.487304688 139.172851562 c 1
 500.216796875 55.9423828125 436.793945312 0 327.37890625 0 c 0
EndSplineSet
EndChar

StartChar: x
Encoding: 120 120 89
Width: 672
GlyphClass: 2
Flags: W
LayerCount: 2
Back
Fore
SplineSet
47.7080078125 42.4814453125 m 1
 46.3994140625 40.9501953125 l 1
 46.3994140625 40.9501953125 46.84375 41.470703125 47.7041015625 42.4775390625 c 2
 47.7080078125 42.4814453125 l 1
625.387695312 41.01171875 m 0
 630.518554688 29.37890625 630.875976562 26.7626953125 630.922851562 18.6201171875 c 0
 631.10546875 4.853515625 609.376953125 0 589.004882812 0 c 0
 559.706054688 0 529.790039062 12.32421875 517.182617188 28.5166015625 c 2
 335.91796875 224.8828125 l 1
 154.661132812 28.51953125 l 2
 140.559570312 10.3828125 110.908203125 0 82.8369140625 0 c 0
 71.49609375 0 61.927734375 1.6376953125 54.23828125 5.322265625 c 0
 41.50390625 12.2421875 37.22265625 25.6962890625 44.978515625 37.8037109375 c 2
 47.7041015625 42.4775390625 l 2
 60.482421875 57.21484375 165.17578125 177.71875 272.919921875 295.073242188 c 1
 45.291015625 550.3046875 l 1
 44.9404296875 553.223632812 l 2
 42.2724609375 559.7734375 41.2412109375 564.490234375 41.0947265625 570.451171875 c 0
 40.3466796875 584.745117188 62.12109375 590 82.8369140625 590 c 0
 112.135742188 590 142.065429688 577.649414062 154.637695312 561.495117188 c 0
 159.290039062 556.272460938 244.431640625 463.9765625 335.91796875 365.217773438 c 1
 432.166992188 469.12109375 512.552734375 556.275390625 517.201171875 561.4921875 c 0
 531.259765625 579.581054688 560.934570312 590 589.004882812 590 c 0
 600.0546875 590 609.379882812 588.459960938 616.944335938 584.971679688 c 0
 630.732421875 577.869140625 633.723632812 563.7734375 626.852539062 552.567382812 c 1
 626.548828125 550.3046875 l 1
 398.913085938 295.073242188 l 1
 515.422851562 167.966796875 622.395507812 44.4677734375 625.387695312 41.01171875 c 0
625.387695312 41.01171875 m 2
 625.426757812 40.958984375 625.448242188 40.9296875 625.451171875 40.92578125 c 2
 625.38671875 41.001953125 l 1
 625.387695312 41.01171875 l 2
EndSplineSet
EndChar

StartChar: y
Encoding: 121 121 90
Width: 701
GlyphClass: 2
Flags: MW
HStem: -65.3223 94.7959<283.135 398.115 280.303 424.016> 105.128 85.3428<292.648 394.768>
VStem: 56.0283 94.7959<337.285 446.36 337.285 470.149> 549.904 95.0674<392.556 468.975 392.556 552.6 392.556 563.992>
LayerCount: 2
Back
Fore
SplineSet
644.971679688 396.487304688 m 0
 644.971679688 388.625 644.684570312 381.20703125 644.060546875 373.491210938 c 0
 644.1015625 217.763671875 644.173828125 189.702148438 644.000976562 187.430664062 c 2
 644.000976562 187.430664062 644.393554688 174.033203125 644.396484375 173.088867188 c 0
 644.927734375 3.1796875 508.516601562 -65.322265625 339.515625 -65.322265625 c 0
 226.754882812 -65.322265625 207.732421875 -67.591796875 199.01171875 -63.154296875 c 0
 178.375 -56.8134765625 169.154296875 -38.2978515625 169.154296875 -17.55078125 c 0
 169.154296875 6.7060546875 184.969726562 29.4990234375 208.938476562 29.4990234375 c 2
 208.938476562 29.4990234375 221.08984375 29.4736328125 339.515625 29.4736328125 c 0
 456.71484375 29.4736328125 550.283203125 65.3701171875 550.283203125 171.982421875 c 2
 550.28125 184.178710938 l 1
 498.220703125 135.356445312 436.912109375 105.127929688 352.623046875 105.127929688 c 0
 176.470703125 105.127929688 56.0283203125 236.66796875 56.0283203125 397.3984375 c 0
 56.0283203125 542.899414062 56.5791015625 552.779296875 56.7666015625 554.5234375 c 2
 56.7666015625 554.5234375 80.7431640625 590.599609375 103.799804688 590.599609375 c 0
 127.967773438 590.599609375 150.849609375 575.352539062 150.849609375 552.59375 c 2
 150.849609375 552.59375 150.82421875 502.120117188 150.82421875 390.599609375 c 0
 150.82421875 283.969726562 232.672851562 190.470703125 352.623046875 190.470703125 c 0
 468.678710938 190.470703125 544.442382812 277.709960938 549.904296875 380.6328125 c 1
 549.904296875 552.599609375 l 2
 549.904296875 575.383789062 573.1015625 590.599609375 597.33203125 590.599609375 c 0
 622.579101562 590.599609375 642.8046875 575.583007812 644.276367188 553.953125 c 0
 644.381835938 552.966796875 644.971679688 541.461914062 644.971679688 396.487304688 c 0
EndSplineSet
AlternateSubs2: "'salt' Stylistic Alternatives in Latin lookup 0 subtable" uniE00D
EndChar

StartChar: z
Encoding: 122 122 91
Width: 739
GlyphClass: 2
Flags: MW
HStem: 0 94.7959<312.612 375.5 312.612 456.276> 242.147 94.7959 242.154 10<230.812 230.813 230.812 231.284> 483.573 94.7959<363.5 426.388>
VStem: 52.9004 102.471<153.113 190.897 153.113 270.115> 230.796 5.71484<242 242> 583.629 102.471<387.468 425.256>
LayerCount: 2
Back
Fore
SplineSet
375.5 0 m 0xde
 196.866210938 0 52.900390625 28.009765625 52.900390625 188.857421875 c 0
 52.900390625 351.372070312 152.580078125 336.943359375 224.5 336.943359375 c 0
 388.565429688 336.943359375 509.08984375 336.221679688 509.08984375 336.221679688 c 2
 606.365234375 335.991210938 583.62890625 384.71484375 583.62890625 390.221679688 c 0
 583.62890625 460.291015625 489.276367188 483.573242188 363.5 483.573242188 c 2
 93.5 483.547851562 l 2
 70.7607421875 483.547851562 55.5 506.446289062 55.5 530.59765625 c 0
 55.5 554.765625 70.7734375 577.647460938 93.466796875 577.647460938 c 2
 93.466796875 577.647460938 201.947265625 578.369140625 363.5 578.369140625 c 0
 542.133789062 578.369140625 686.099609375 550.359375 686.099609375 389.51171875 c 0
 686.099609375 226.997070312 586.419921875 241.42578125 514.5 241.42578125 c 0
 379.807617188 241.42578125 271.758789062 242.014648438 239.793945312 242.134765625 c 0
 236.723632812 242.138671875 233.436523438 242.142578125 229.923828125 242.147460938 c 0
 132.626953125 242.271484375 155.37109375 193.647460938 155.37109375 188.147460938 c 0
 155.37109375 118.078125 249.723632812 94.7958984375 375.5 94.7958984375 c 2
 645.5 94.8212890625 l 2
 668.239257812 94.8212890625 683.5 71.9228515625 683.5 47.771484375 c 0
 683.5 23.603515625 668.2265625 0.7216796875 645.533203125 0.7216796875 c 2
 645.533203125 0.7216796875 537.052734375 0 375.5 0 c 0xde
230.795898438 242.154296875 m 1xbe
 230.795898438 243.154296875 230.8125 252.154296875 230.8125 252.154296875 c 2
 230.813476562 252.154296875 233.034179688 252.146484375 236.528320312 252.146484375 c 1
 236.528320312 251.146484375 236.514648438 243.146484375 236.510742188 242.146484375 c 0
 233.685546875 242.155273438 231.772460938 242.154296875 230.795898438 242.154296875 c 1xbe
EndSplineSet
AlternateSubs2: "'salt' Stylistic Alternatives in Latin lookup 0 subtable" uniE017
EndChar

StartChar: braceleft
Encoding: 123 123 92
Width: 334
GlyphClass: 2
Flags: MW
HStem: -10.1719 94.7959<226.339 252.455 252.455 252.958> 495.976 94.7959<204.04 252.528 179.319 263.83>
VStem: 93.6104 93.5771 93.6162 102.71
LayerCount: 2
Back
Fore
SplineSet
252.455078125 -10.171875 m 2xe0
 103.479492188 -10.171875 93.6279296875 100.223632812 93.6103515625 225.896484375 c 1xe0
 77.3486328125 243.543945312 65.861328125 256.014648438 61.54296875 260.71484375 c 0
 49.4228515625 267.388671875 43.544921875 279.819335938 43.544921875 292.6484375 c 0
 43.544921875 306.852539062 52.234375 319.430664062 61.5380859375 324.576171875 c 0
 66.880859375 330.388671875 81.4208984375 346.171875 93.6162109375 359.405273438 c 1
 93.884765625 485.670898438 106.109375 590.771484375 252.528320312 590.771484375 c 0
 283.806640625 589.858398438 290.455078125 556.0234375 290.455078125 543.025390625 c 0
 290.455078125 518.857421875 275.205078125 495.975585938 252.455078125 495.975585938 c 0
 155.625 495.975585938 196.326171875 320.9765625 196.326171875 290.299804688 c 0xd0
 196.326171875 276.439453125 187.313476562 234.375976562 187.1875 189.750976562 c 0
 187.026367188 132.904296875 200.223632812 84.6240234375 252.455078125 84.6240234375 c 0
 275.194335938 84.6240234375 290.455078125 61.7255859375 290.455078125 37.57421875 c 0
 290.455078125 23.6650390625 282.2734375 -4.2109375 253.451171875 -10.0712890625 c 2
 252.958007812 -10.171875 l 1
 252.455078125 -10.171875 l 2xe0
EndSplineSet
EndChar

StartChar: bar
Encoding: 124 124 93
Width: 218
GlyphClass: 2
Flags: MW
VStem: 61.9834 94.0996<-22.002 -22 -22 -21.8145>
LayerCount: 2
Back
Fore
SplineSet
61.9775390625 650.423828125 m 0
 62.8544921875 674.065429688 85.2607421875 688 109.033203125 688 c 0
 133.427734375 688 155.448242188 672.473632812 156.083007812 650.142578125 c 2
 156.083007812 -22 l 2
 156.083007812 -44.7392578125 133.18359375 -60 109.033203125 -60 c 0
 84.8095703125 -60 61.982421875 -44.5322265625 61.9833984375 -22.001953125 c 0
 61.9833984375 -21.626953125 61.837890625 648.950195312 61.9775390625 650.423828125 c 0
EndSplineSet
EndChar

StartChar: braceright
Encoding: 125 125 94
Width: 342
GlyphClass: 2
Flags: MW
HStem: -10.1719 94.7959<85.042 85.5449 85.5449 111.661 74.1753 160.033> 495.976 94.7959<85.4717 133.96>
VStem: 141.674 102.71 150.812 93.5771
LayerCount: 2
Back
Fore
SplineSet
85.544921875 -10.171875 m 2xd0
 234.520507812 -10.171875 244.372070312 100.223632812 244.389648438 225.896484375 c 1xd0
 260.651367188 243.543945312 272.138671875 256.014648438 276.45703125 260.71484375 c 0
 288.577148438 267.388671875 294.455078125 279.819335938 294.455078125 292.6484375 c 0
 294.455078125 306.852539062 285.765625 319.430664062 276.461914062 324.576171875 c 0
 271.119140625 330.388671875 256.579101562 346.171875 244.383789062 359.405273438 c 1
 244.115234375 485.670898438 231.890625 590.771484375 85.4716796875 590.771484375 c 0
 54.193359375 589.858398438 47.544921875 556.0234375 47.544921875 543.025390625 c 0
 47.544921875 518.857421875 62.794921875 495.975585938 85.544921875 495.975585938 c 0
 182.375 495.975585938 141.673828125 320.9765625 141.673828125 290.299804688 c 0xe0
 141.673828125 276.439453125 150.686523438 234.375976562 150.8125 189.750976562 c 0
 150.973632812 132.904296875 137.776367188 84.6240234375 85.544921875 84.6240234375 c 0
 62.8056640625 84.6240234375 47.544921875 61.7255859375 47.544921875 37.57421875 c 0
 47.544921875 23.6650390625 55.7265625 -4.2109375 84.548828125 -10.0712890625 c 2
 85.0419921875 -10.171875 l 1
 85.544921875 -10.171875 l 2xd0
EndSplineSet
EndChar

StartChar: asciitilde
Encoding: 126 126 95
Width: 489
GlyphClass: 2
Flags: MW
VStem: 59.2607 74.7617 354.978 74.7617
LayerCount: 2
Back
Fore
SplineSet
266.8828125 374.724609375 m 1
 283.40234375 360.353515625 277.990234375 353.536132812 281.880859375 339.015625 c 0
 285.594726562 325.155273438 294.521484375 313.349609375 325.693359375 321.702148438 c 0
 358.056640625 330.373046875 358.072265625 347.053710938 354.977539062 358.602539062 c 0
 351.854492188 370.255859375 356.529296875 392.116210938 366.116210938 400.4296875 c 0
 371.76171875 405.323242188 379.223632812 402.642578125 381.79296875 400.9140625 c 0
 382.744140625 401.22265625 382.759765625 401.24609375 383.725585938 401.505859375 c 0
 400.032226562 405.874023438 423.798828125 400.802734375 429.739257812 378.634765625 c 0
 452.963867188 291.95703125 384.291015625 253.301757812 346.717773438 243.232421875 c 0
 315.46484375 234.859375 255.236328125 230.422851562 222.1171875 283.275390625 c 1
 205.59765625 297.646484375 211.009765625 304.463867188 207.119140625 318.984375 c 0
 203.405273438 332.844726562 194.477539062 344.650390625 163.306640625 336.297851562 c 0
 130.942382812 327.626953125 130.927734375 310.946289062 134.022460938 299.397460938 c 0
 137.14453125 287.744140625 132.469726562 265.8828125 122.883789062 257.571289062 c 0
 117.23828125 252.676757812 109.776367188 255.357421875 107.20703125 257.0859375 c 0
 106.255859375 256.77734375 106.239257812 256.75390625 105.2734375 256.494140625 c 0
 88.96875 252.125976562 65.201171875 257.197265625 59.2607421875 279.365234375 c 0
 36.0361328125 366.04296875 104.708984375 404.698242188 142.282226562 414.767578125 c 0
 173.53515625 423.140625 233.762695312 427.577148438 266.8828125 374.724609375 c 1
EndSplineSet
EndChar

StartChar: exclamdown
Encoding: 161 161 97
Width: 219
GlyphClass: 2
Flags: MW
HStem: 477.5 112.5<94.6934 125.692>
VStem: 55.125 108.75<518.823 548.677 518.823 548.867> 62.4043 94.1045<27 27>
LayerCount: 2
Back
Fore
SplineSet
163.875 533.75 m 0xc0
 163.875 503.896484375 141.258789062 477.5 110.125 477.5 c 0
 79.26171875 477.5 55.125 503.516601562 55.125 533.75 c 0
 55.125 563.983398438 79.26171875 590 110.125 590 c 0
 141.258789062 590 163.875 563.603515625 163.875 533.75 c 0xc0
156.508789062 27.3173828125 m 0xa0
 155.6328125 3.6806640625 133.2265625 -10.25 109.454101562 -10.25 c 0
 85.060546875 -10.25 63.0380859375 5.2763671875 62.404296875 27.607421875 c 2
 62.404296875 423.75 l 2
 62.404296875 446.489257812 85.3037109375 461.75 109.454101562 461.75 c 0
 133.677734375 461.75 156.504882812 446.28125 156.50390625 423.752929688 c 0
 156.50390625 423.391601562 156.651367188 28.794921875 156.508789062 27.3173828125 c 0xa0
EndSplineSet
EndChar

StartChar: cent
Encoding: 162 162 98
Width: 552
GlyphClass: 2
Flags: MW
HStem: 67.0518 76.0479<338.57 338.57> 446.607 76.0469<338.57 339.269>
VStem: 44.5254 81.8525<258.052 331.108 258.052 353.313> 244.431 94.1396
LayerCount: 2
Back
Fore
SplineSet
339.268554688 522.654296875 m 1
 426.334960938 522.51171875 475.381835938 522.173828125 476.5078125 522.166015625 c 0
 495.43359375 522.166015625 507.474609375 503.314453125 507.474609375 484.37890625 c 0
 507.474609375 465.439453125 495.461914062 446.590820312 476.47265625 446.590820312 c 2
 338.5703125 446.607421875 l 1
 338.5703125 143.099609375 l 1
 476.474609375 143.116210938 l 2
 495.458984375 143.116210938 507.474609375 124.263671875 507.474609375 105.328125 c 0
 507.474609375 86.388671875 495.436523438 67.541015625 476.5078125 67.541015625 c 2
 476.5078125 67.541015625 419.965820312 67.18359375 338.5703125 67.0517578125 c 1
 338.5703125 28 l 2
 338.5703125 5.2607421875 315.670898438 -10 291.520507812 -10 c 0
 267.296875 -10 244.469726562 5.470703125 244.470703125 27.99609375 c 2
 244.456054688 68.8759765625 l 1
 131.353515625 83.49609375 44.525390625 179.192382812 44.525390625 294.853515625 c 0
 44.525390625 411.7734375 133.897460938 506.495117188 244.397460938 520.822265625 c 1
 244.418945312 561.168945312 l 2
 245.3671875 586.751953125 267.771484375 600 291.520507812 600 c 0
 315.915039062 600 337.932617188 584.579101562 338.5703125 562.142578125 c 2
 338.5703125 520.263671875 l 2
 338.868164062 521.475585938 339.268554688 522.654296875 339.268554688 522.654296875 c 1
244.379882812 443.3359375 m 1
 177.765625 428.015625 126.377929688 367.362304688 126.377929688 294.853515625 c 0
 126.377929688 221.250976562 180.16015625 161.13671875 244.430664062 146.364257812 c 1
 244.404296875 235.333007812 244.379882812 357.727539062 244.379882812 443.3359375 c 1
EndSplineSet
EndChar

StartChar: sterling
Encoding: 163 163 99
Width: 702
GlyphClass: 2
Flags: MW
HStem: -10 94.0996<84 618.143> 242.622 94.1777<162.316 295.481> 495.426 94.7959<304.388 404.959>
LayerCount: 2
Back
Fore
SplineSet
238.965820312 336.799804688 m 2
 245.3359375 337.266601562 252.515625 337.521484375 259.599609375 337.521484375 c 0
 412.35546875 337.521484375 421.658203125 336.959960938 423.314453125 336.782226562 c 2
 423.314453125 336.782226562 460.599609375 312.880859375 460.599609375 289.75 c 0
 460.599609375 264.462890625 445.225585938 244.139648438 422.716796875 242.665039062 c 0
 421.553710938 242.552734375 337.2890625 242.622070312 253.673828125 242.622070312 c 0
 174.862304688 239.889648438 187.216796875 179.377929688 161.203125 84.099609375 c 1
 618.142578125 84.099609375 l 2
 640.693359375 83.458984375 656 61.4189453125 656 37.0498046875 c 0
 656 11.7626953125 640.635742188 -8.55859375 618.103515625 -10.037109375 c 0
 615.740234375 -10.2626953125 84.03515625 -10 84 -10 c 0
 61.4755859375 -10.0009765625 46 12.84375 46 37.0498046875 c 0
 46 115.916015625 57.052734375 189.9921875 85.9658203125 242.69921875 c 1
 84.9658203125 242.700195312 85.599609375 242.69921875 84.599609375 242.700195312 c 0
 62.0751953125 242.69921875 46.599609375 265.543945312 46.599609375 289.75 c 0
 46.599609375 455.467773438 182.232421875 590.221679688 349.19921875 590.221679688 c 0
 510.72265625 590.221679688 539.32421875 589.5 539.32421875 589.5 c 2
 561.841796875 589.5 577.19921875 566.6015625 577.19921875 542.450195312 c 0
 577.19921875 518.282226562 561.950195312 495.400390625 539.1953125 495.400390625 c 2
 539.1953125 495.400390625 460.719726562 495.42578125 349.19921875 495.42578125 c 0
 259.577148438 495.42578125 194.748046875 427.787109375 162.31640625 336.799804688 c 1
 238.965820312 336.799804688 l 2
EndSplineSet
EndChar

StartChar: currency
Encoding: 164 164 100
Width: 522
GlyphClass: 2
Flags: MW
HStem: 118.013 66.4844<265.85 265.85 265.85 277.404> 400.797 66.3896<244.597 277.426 244.597 293.677>
VStem: 79.0098 64.2871<273.91 299.681 265.39 311.339> 378.703 64.2871<285.519 311.29 273.86 320.884>
LayerCount: 2
Back
Fore
SplineSet
388.07421875 88.33203125 m 2
 351.181640625 140.977539062 l 1
 323.673828125 125.958984375 293.807617188 118.012695312 261 118.012695312 c 0
 228.1484375 118.012695312 195.310546875 127.647460938 170.822265625 140.982421875 c 1
 133.92578125 88.33203125 l 2
 123.625 74.224609375 100.594726562 63.150390625 77.9375 63.150390625 c 0
 68.74609375 63.150390625 60.642578125 65.033203125 54.3359375 69.13671875 c 0
 44.025390625 75.8466796875 40.60546875 88.91015625 48.0771484375 99.8056640625 c 2
 51.056640625 104.150390625 l 1
 52.009765625 104.150390625 l 1
 61.3232421875 114.576171875 97.47265625 170.568359375 112.165039062 192.194335938 c 1
 90.8291015625 221.399414062 79.009765625 255.219726562 79.009765625 292.599609375 c 0
 79.009765625 330.078125 92.5234375 365.85546875 111.784179688 392.4765625 c 1
 48.0771484375 485.393554688 l 2
 45.61328125 488.985351562 44.015625 493.151367188 43.8955078125 497.598632812 c 0
 43.4345703125 514.786132812 61.52734375 522.048828125 77.9375 522.048828125 c 0
 100.59375 522.048828125 123.626953125 510.971679688 133.92578125 496.8671875 c 2
 170.819335938 444.221679688 l 1
 198.326171875 459.240234375 228.193359375 467.186523438 261 467.186523438 c 0
 293.852539062 467.186523438 326.689453125 457.551757812 351.178710938 444.216796875 c 1
 388.07421875 496.8671875 l 2
 398.375 510.974609375 421.405273438 522.048828125 444.0625 522.048828125 c 0
 453.25390625 522.048828125 461.357421875 520.166015625 467.6640625 516.0625 c 0
 477.974609375 509.352539062 481.39453125 496.2890625 473.922851562 485.393554688 c 2
 470.943359375 481.048828125 l 1
 469.990234375 481.048828125 l 1
 460.677734375 470.623046875 424.526367188 414.630859375 409.834960938 393.004882812 c 1
 431.171875 363.799804688 442.990234375 329.979492188 442.990234375 292.599609375 c 0
 442.990234375 255.12109375 429.4765625 219.34375 410.215820312 192.721679688 c 1
 473.922851562 99.8056640625 l 2
 476.38671875 96.2138671875 477.984375 92.0478515625 478.104492188 87.6005859375 c 0
 478.565429688 70.4130859375 460.47265625 63.150390625 444.0625 63.150390625 c 0
 421.41796875 63.150390625 398.278320312 74.357421875 388.07421875 88.33203125 c 2
265.849609375 184.497070312 m 1
 308.734375 186.180664062 345.389648438 210.44921875 364.311523438 241.950195312 c 1
 325.90234375 297.977539062 291.643554688 347.935546875 291.338867188 348.407226562 c 0
 290.692382812 349.407226562 319.442382812 325.109375 369.59375 251.965820312 c 1
 375.703125 265.33984375 378.703125 278.4375 378.703125 292.599609375 c 0
 378.703125 349.16796875 326.354492188 400.796875 261 400.796875 c 0
 216.037109375 400.796875 177.348632812 375.9765625 157.689453125 343.250976562 c 1
 203.862304688 275.901367188 249.8984375 208.748046875 261.790039062 191.397460938 c 0
 263.646484375 188.688476562 264.524414062 187.419921875 264.702148438 187.140625 c 2
 265.849609375 184.497070312 l 1
254.334960938 184.580078125 m 1
 246.75 195.638671875 216.728515625 239.419921875 152.405273438 333.232421875 c 1
 146.295898438 319.858398438 143.296875 306.76171875 143.296875 292.599609375 c 0
 143.296875 238.180664062 192.224609375 188.290039062 254.334960938 184.580078125 c 1
EndSplineSet
EndChar

StartChar: yen
Encoding: 165 165 101
Width: 705
GlyphClass: 2
Flags: MW
HStem: -37.4004 21G<554.749 578.833> 16.5264 56.998 76.5273 56.998 98 102.471<276.098 372.083>
VStem: 46.0137 94.7969<347.238 456.36 347.238 475.955> 519.891 94.1562
LayerCount: 2
Back
Fore
SplineSet
614.046875 376.90234375 m 0xdc
 614.067382812 297.602539062 614.083984375 203.8671875 614.081054688 133.525390625 c 1
 634.986328125 133.525390625 l 2
 650.217773438 133.525390625 658.986328125 118.700195312 658.986328125 105 c 0
 658.986328125 91.2470703125 650.099609375 76.47265625 634.993164062 76.4755859375 c 2
 634.993164062 76.4755859375 625.38671875 76.4697265625 614.07421875 76.4638671875 c 1
 614.07421875 73.5244140625 l 1
 634.986328125 73.5244140625 l 2
 650.217773438 73.5244140625 658.986328125 58.69921875 658.986328125 45 c 0
 658.986328125 31.2451171875 650.099609375 16.474609375 634.9921875 16.474609375 c 2
 614.041015625 16.462890625 l 1
 614.030273438 4.4150390625 614.047851562 1.943359375 613.977539062 -0.1259765625 c 0
 613.130859375 -22.9970703125 590.727539062 -37.400390625 566.939453125 -37.400390625 c 0
 542.55859375 -37.400390625 520.53125 -22.0888671875 519.890625 0.45703125 c 2
 519.890625 16.427734375 l 1
 491.247070312 16.4189453125 478.322265625 16.34375 474.025390625 16.5263671875 c 0
 459.55859375 17.5986328125 451.486328125 31.6708984375 451.486328125 45 c 0
 451.486328125 58.916015625 460.303710938 73.09765625 475.34375 73.5244140625 c 2
 519.890625 73.5244140625 l 1
 519.890625 76.427734375 l 1
 491.24609375 76.419921875 478.321289062 76.3447265625 474.025390625 76.52734375 c 0
 459.55859375 77.599609375 451.486328125 91.6728515625 451.486328125 105 c 0
 451.486328125 118.916992188 460.303710938 133.098632812 475.34375 133.525390625 c 2
 519.890625 133.525390625 l 1xec
 519.890625 179.375 l 1
 468.826171875 128.69921875 411.6796875 98 332.486328125 98 c 0
 166.301757812 98 46.013671875 234.299804688 46.013671875 400.599609375 c 0
 46.013671875 551.309570312 46.5634765625 561.490234375 46.751953125 563.306640625 c 2
 46.751953125 563.306640625 70.6572265625 600.599609375 93.78515625 600.599609375 c 0
 117.953125 600.599609375 140.8359375 585.352539062 140.8359375 562.59375 c 2
 140.8359375 562.59375 140.810546875 512.120117188 140.810546875 400.599609375 c 0
 140.810546875 293.875976562 219.708984375 200.470703125 332.486328125 200.470703125 c 0
 441.594726562 200.470703125 514.423828125 287.616210938 519.890625 390.6328125 c 1
 519.890625 562.599609375 l 2
 519.890625 585.383789062 543.088867188 600.599609375 567.318359375 600.599609375 c 0
 592.6171875 600.599609375 612.80859375 585.076171875 614.26171875 562.90234375 c 0
 614.370117188 561.866210938 614.95703125 550.045898438 614.95703125 400.599609375 c 0
 614.95703125 392.500976562 614.671875 384.852539062 614.046875 376.90234375 c 0xdc
EndSplineSet
EndChar

StartChar: brokenbar
Encoding: 166 166 102
Width: 218
GlyphClass: 2
Flags: MW
HStem: -10 348<97.4194 121.381> 362 348<96.8735 120.835>
VStem: 62.2559 94.0996<27.9961 28 28 28.1733>
LayerCount: 2
Back
Fore
SplineSet
62.2509765625 300.434570312 m 0
 63.126953125 324.064453125 85.533203125 338 109.305664062 338 c 0
 133.69921875 338 155.720703125 322.473632812 156.35546875 300.142578125 c 2
 156.35546875 28 l 2
 156.35546875 5.2607421875 133.456054688 -10 109.305664062 -10 c 0
 85.08203125 -10 62.2548828125 5.4697265625 62.255859375 27.99609375 c 0
 62.255859375 28.3505859375 62.1103515625 298.966796875 62.2509765625 300.434570312 c 0
61.705078125 672.434570312 m 0
 62.5810546875 696.064453125 84.9873046875 710 108.759765625 710 c 0
 133.153320312 710 155.174804688 694.473632812 155.809570312 672.142578125 c 2
 155.809570312 400 l 2
 155.809570312 377.260742188 132.91015625 362 108.759765625 362 c 0
 84.5361328125 362 61.708984375 377.469726562 61.7099609375 399.99609375 c 0
 61.7099609375 400.350585938 61.564453125 670.966796875 61.705078125 672.434570312 c 0
EndSplineSet
EndChar

StartChar: section
Encoding: 167 167 103
Width: 712
GlyphClass: 2
Flags: MW
HStem: -10 94.7959<304.241 416.5 304.241 440.437> 136.3 76.9951<343.959 370.282 343.959 392.25> 241.48 95.0635 371.904 76.9951<342.014 371.684> 493.573 94.7959<295.5 407.759>
VStem: 49.4004 102.471<391.656 431.449 391.656 476.653> 560.129 102.471<146.92 186.715>
LayerCount: 2
Back
Fore
SplineSet
200.893554688 337.25390625 m 1
 221.762695312 403.149414062 283.803710938 448.899414062 357 448.899414062 c 0
 431.1953125 448.899414062 492.520507812 401.384765625 513.104492188 337.247070312 c 1
 519.73828125 337.37109375 523.565429688 337.435546875 529.306640625 337.442382812 c 0
 594.643554688 337.522460938 662.599609375 322.08984375 662.599609375 184.471679688 c 0
 662.599609375 18.9609375 520.874023438 -10 360 -10 c 0
 198.447265625 -10 89.966796875 -9.2783203125 89.966796875 -9.2783203125 c 2
 67.2861328125 -9.2783203125 52 13.62109375 52 37.771484375 c 0
 52 61.939453125 67.2490234375 84.8212890625 90.001953125 84.8212890625 c 2
 90.001953125 84.8212890625 248.481445312 84.7958984375 360 84.7958984375 c 0
 473.000976562 84.7958984375 560.12890625 109.369140625 560.12890625 184.471679688 c 0
 560.12890625 188.958007812 561.314453125 190.131835938 561.7890625 194.954101562 c 0
 563.190429688 209.189453125 562.256835938 234.711914062 510.801757812 241.124023438 c 1
 487.33984375 178.249023438 427.5 136.299804688 357 136.299804688 c 0
 285.276367188 136.299804688 225.350585938 181.250976562 203.174804688 241.204101562 c 1
 194.623046875 241.0390625 189.862304688 240.932617188 182.461914062 240.926757812 c 0
 117.184570312 240.875 49.400390625 256.456054688 49.400390625 393.897460938 c 0
 49.400390625 559.408203125 191.125976562 588.369140625 352 588.369140625 c 0
 513.552734375 588.369140625 622.033203125 587.647460938 622.033203125 587.647460938 c 2
 644.713867188 587.647460938 660 564.748046875 660 540.59765625 c 0
 660 516.4296875 644.750976562 493.547851562 621.998046875 493.547851562 c 2
 621.998046875 493.547851562 463.518554688 493.573242188 352 493.573242188 c 0
 238.999023438 493.573242188 151.87109375 469 151.87109375 393.897460938 c 0
 151.87109375 389.415039062 150.685546875 388.231445312 150.2109375 383.397460938 c 0
 148.810546875 369.127929688 150.08203125 343.509765625 200.893554688 337.25390625 c 1
428.056640625 336.907226562 m 1
 411.78125 358.297851562 386.3671875 371.904296875 357 371.904296875 c 0
 327.028320312 371.904296875 301.3515625 356.926757812 285.6953125 336.543945312 c 1
 321.041992188 336.686523438 371.715820312 336.83984375 428.056640625 336.907226562 c 1
291.66796875 241.48046875 m 1
 307.938476562 224.096679688 330.918945312 213.294921875 357 213.294921875 c 0
 383.563476562 213.294921875 406.938476562 225.275390625 422.645507812 241.868164062 c 1
 388.250976562 241.719726562 343.10546875 241.561523438 291.66796875 241.48046875 c 1
EndSplineSet
EndChar

StartChar: dieresis
Encoding: 168 168 104
Width: 382
GlyphClass: 2
Flags: MW
HStem: 601.25 108.75<102.323 132.177 249.823 279.677>
VStem: 61 112.5<639.433 670.432> 208.5 112.5<639.433 670.432>
LayerCount: 2
Back
Fore
SplineSet
117.25 601.25 m 0
 87.396484375 601.25 61 623.866210938 61 655 c 0
 61 685.86328125 87.0166015625 710 117.25 710 c 0
 147.483398438 710 173.5 685.86328125 173.5 655 c 0
 173.5 623.866210938 147.103515625 601.25 117.25 601.25 c 0
264.75 601.25 m 0
 234.896484375 601.25 208.5 623.866210938 208.5 655 c 0
 208.5 685.86328125 234.516601562 710 264.75 710 c 0
 294.983398438 710 321 685.86328125 321 655 c 0
 321 623.866210938 294.603515625 601.25 264.75 601.25 c 0
EndSplineSet
EndChar

StartChar: copyright
Encoding: 169 169 105
Width: 727
GlyphClass: 2
Flags: MW
HStem: -10 102.471<303.444 423.555 303.444 450.353> 135.064 57.3975<312.131 337.15 312.131 377.552> 388.138 57.3975<312.131 365.029> 492.729 102.471<303.445 423.556>
VStem: 47.7402 98.7324<239.919 345.279 239.919 376.303> 180.85 61.2363<263.32 317.28 263.32 333.125> 580.527 98.7324<239.919 345.279>
LayerCount: 2
Back
Fore
SplineSet
146.47265625 292.599609375 m 0
 146.47265625 187.239257812 243.388671875 92.470703125 363.5 92.470703125 c 0
 483.610351562 92.470703125 580.52734375 187.239257812 580.52734375 292.599609375 c 0
 580.52734375 397.958984375 483.611328125 492.728515625 363.5 492.728515625 c 0
 243.389648438 492.728515625 146.47265625 397.958984375 146.47265625 292.599609375 c 0
47.740234375 292.599609375 m 0
 47.740234375 460.005859375 189.794921875 595.19921875 363.5 595.19921875 c 0
 537.205078125 595.19921875 679.259765625 460.005859375 679.259765625 292.599609375 c 0
 679.259765625 125.193359375 537.205078125 -10 363.5 -10 c 0
 189.794921875 -10 47.740234375 125.193359375 47.740234375 292.599609375 c 0
472.825195312 445.170898438 m 0
 488.279296875 444.346679688 496.150390625 430.024414062 496.150390625 416.650390625 c 0
 496.150390625 402.94921875 487.3828125 388.125 472.1484375 388.125 c 2
 472.1484375 388.125 392.908203125 388.137695312 337.150390625 388.137695312 c 0
 287.111328125 388.137695312 242.0859375 344.259765625 242.0859375 290.299804688 c 0
 242.0859375 236.33984375 287.111328125 192.461914062 337.150390625 192.461914062 c 2
 472.150390625 192.474609375 l 2
 487.381835938 192.474609375 496.150390625 177.650390625 496.150390625 163.94921875 c 0
 496.150390625 150.249023438 487.357421875 135.424804688 472.18359375 135.424804688 c 2
 472.18359375 135.424804688 417.953125 135.064453125 337.150390625 135.064453125 c 0
 250.93359375 135.064453125 180.849609375 204.6484375 180.849609375 290.299804688 c 0
 180.849609375 375.951171875 250.93359375 445.53515625 337.150390625 445.53515625 c 0
 418.33984375 445.53515625 471.359375 445.180664062 472.825195312 445.170898438 c 0
EndSplineSet
EndChar

StartChar: ordfeminine
Encoding: 170 170 106
Width: 336
GlyphClass: 2
Flags: MW
HStem: 485.18 48.8652<148.622 181.327> 661.135 48.8652<148.622 187.378>
VStem: 50.9844 47.5557<581.155 614.024 581.155 628.805> 238.902 45.9355<490.871 498.495>
LayerCount: 2
Back
Fore
SplineSet
284.837890625 498.834960938 m 2
 284.837890625 482.907226562 264.075195312 484.760742188 262.004882812 484.732421875 c 0
 260.146484375 484.708007812 238.90234375 482.276367188 238.90234375 498.495117188 c 2
 238.903320312 508.215820312 l 1
 218.159179688 493.081054688 194.653320312 485.1796875 168 485.1796875 c 0
 103.858398438 485.1796875 50.984375 535.15625 50.984375 597.58984375 c 0
 50.984375 660.020507812 103.859375 710 168 710 c 0
 232.141601562 710 285.015625 660.036132812 285.015625 597.572265625 c 2
 284.837890625 498.834960938 l 2
98.5400390625 597.58984375 m 0
 98.5400390625 564.720703125 129.243164062 534.044921875 168 534.044921875 c 0
 206.755859375 534.044921875 237.459960938 564.720703125 237.459960938 597.58984375 c 0
 237.459960938 630.458984375 206.756835938 661.134765625 168 661.134765625 c 0
 129.244140625 661.134765625 98.5400390625 630.458984375 98.5400390625 597.58984375 c 0
EndSplineSet
EndChar

StartChar: guillemotleft
Encoding: 171 171 107
Width: 604
GlyphClass: 2
Flags: MW
HStem: 142.713 74.2451<294.838 302.161> 469.044 74.2432<294.838 302.164>
LayerCount: 2
Back
Fore
SplineSet
268.5 343 m 0
 268.5 368.0859375 283.928710938 391.52734375 301.775390625 399.2421875 c 0
 317.418945312 409.8515625 514.866210938 541.911132812 514.947265625 541.96484375 c 2
 516.290039062 542.860351562 l 1
 517.837890625 543.287109375 l 2
 537.956054688 548.841796875 558.5 536.399414062 558.5 513.58984375 c 0
 558.5 492.129882812 540.69921875 474.236328125 525.1640625 469.043945312 c 1
 361.552734375 343 l 1
 525.161132812 216.958007812 l 1
 543.556640625 210.827148438 558.5 192.51171875 558.5 172.41015625 c 0
 558.5 149.619140625 537.962890625 137.15625 517.837890625 142.712890625 c 2
 516.282226562 143.142578125 l 1
 514.940429688 144.0390625 l 1
 514.940429688 144.0390625 313.943359375 278.51171875 301.779296875 286.754882812 c 0
 281.440429688 295.529296875 268.5 319.3046875 268.5 343 c 0
45.5 343 m 0
 45.5 368.0859375 60.9287109375 391.52734375 78.775390625 399.2421875 c 0
 94.4189453125 409.8515625 291.866210938 541.911132812 291.947265625 541.96484375 c 2
 293.290039062 542.860351562 l 1
 294.837890625 543.287109375 l 2
 314.956054688 548.841796875 335.5 536.399414062 335.5 513.58984375 c 0
 335.5 492.129882812 317.69921875 474.236328125 302.1640625 469.043945312 c 1
 138.552734375 343 l 1
 302.161132812 216.958007812 l 1
 320.556640625 210.827148438 335.5 192.51171875 335.5 172.41015625 c 0
 335.5 149.619140625 314.962890625 137.15625 294.837890625 142.712890625 c 2
 293.282226562 143.142578125 l 1
 291.940429688 144.0390625 l 1
 291.940429688 144.0390625 90.943359375 278.51171875 78.779296875 286.754882812 c 0
 58.4404296875 295.529296875 45.5 319.3046875 45.5 343 c 0
EndSplineSet
EndChar

StartChar: logicalnot
Encoding: 172 172 108
Width: 613
GlyphClass: 2
Flags: MW
HStem: 261.904 94.0996<95.4971 95.5 95.5 95.6899 95.4971 461.311>
VStem: 461.4 94.0996<177.938 177.938>
LayerCount: 2
Back
Fore
SplineSet
517.930664062 356.008789062 m 0
 541.568359375 355.1328125 555.5 332.7265625 555.5 308.954101562 c 2
 555.5 177.954101562 l 2
 555.5 155.21484375 532.600585938 139.954101562 508.450195312 139.954101562 c 0
 484.2265625 139.954101562 461.399414062 155.432617188 461.400390625 177.938476562 c 2
 461.400390625 177.938476562 461.323242188 228.1328125 461.310546875 261.904296875 c 1
 95.5 261.904296875 l 2
 72.7607421875 261.904296875 57.5 284.803710938 57.5 308.954101562 c 0
 57.5 333.177734375 72.96875 356.004882812 95.4970703125 356.00390625 c 0
 95.8828125 356.00390625 516.426757812 356.153320312 517.930664062 356.008789062 c 0
EndSplineSet
EndChar

StartChar: uni00AD
Encoding: 173 173 109
Width: 535
GlyphClass: 2
Flags: MW
HStem: 261.904 94.0996<94.9971 95 95 95.1855 94.9971 440.143>
LayerCount: 2
Back
Fore
SplineSet
440.431640625 356.008789062 m 0
 464.065429688 355.1328125 478 332.7265625 478 308.954101562 c 0
 478 284.560546875 462.473632812 262.538085938 440.142578125 261.904296875 c 2
 95 261.904296875 l 2
 72.2607421875 261.904296875 57 284.803710938 57 308.954101562 c 0
 57 333.177734375 72.4697265625 356.004882812 94.9970703125 356.00390625 c 0
 95.3740234375 356.00390625 438.9375 356.151367188 440.431640625 356.008789062 c 0
EndSplineSet
EndChar

StartChar: registered
Encoding: 174 174 110
Width: 727
GlyphClass: 2
Flags: MW
HStem: -10 102.471<338.632 423.555 338.632 450.353> 388.181 57.3975<331.631 384.529> 492.729 102.471<303.445 423.556>
VStem: 47.7402 98.7324<267.441 345.279 267.441 376.303> 200.355 61.2305<290.005 290.005> 580.527 98.7324<239.919 345.279>
LayerCount: 2
Back
Fore
SplineSet
261.775390625 159.16015625 m 0
 261.724609375 143.979492188 246.9765625 135.193359375 233.25 135.193359375 c 0
 232.649414062 135.193359375 232.051757812 135.209960938 231.458007812 135.2421875 c 1
 268.005859375 108.719726562 313.764648438 92.470703125 363.5 92.470703125 c 0
 483.610351562 92.470703125 580.52734375 187.239257812 580.52734375 292.599609375 c 0
 580.52734375 397.958984375 483.611328125 492.728515625 363.5 492.728515625 c 0
 243.389648438 492.728515625 146.47265625 397.958984375 146.47265625 292.599609375 c 0
 146.47265625 242.283203125 168.576171875 194.3828125 204.752929688 158.06640625 c 1
 204.752929688 158.073242188 204.750976562 158.081054688 204.750976562 158.087890625 c 2
 204.748046875 158.211914062 l 2
 204.594726562 163.830078125 200.372070312 289.508789062 200.35546875 290.004882812 c 2
 200.338867188 290.501953125 l 1
 200.37109375 290.997070312 l 2
 205.908203125 375.40625 270.001953125 445.578125 356.650390625 445.578125 c 0
 437.453125 445.578125 491.68359375 445.217773438 491.68359375 445.217773438 c 2
 506.857421875 445.217773438 515.650390625 430.393554688 515.650390625 416.693359375 c 0
 515.650390625 402.9921875 506.8828125 388.16796875 491.6484375 388.16796875 c 2
 491.6484375 388.16796875 412.408203125 388.180664062 356.650390625 388.180664062 c 0
 306.611328125 388.180664062 261.5859375 344.302734375 261.5859375 290.342773438 c 0
 261.5859375 240.163085938 261.724609375 180.430664062 261.7734375 164.290039062 c 0
 261.766601562 162.408203125 261.775390625 160.934570312 261.775390625 159.16015625 c 0
47.740234375 292.599609375 m 0
 47.740234375 460.005859375 189.794921875 595.19921875 363.5 595.19921875 c 0
 537.205078125 595.19921875 679.259765625 460.005859375 679.259765625 292.599609375 c 0
 679.259765625 125.193359375 537.205078125 -10 363.5 -10 c 0
 189.794921875 -10 47.740234375 125.193359375 47.740234375 292.599609375 c 0
EndSplineSet
EndChar

StartChar: macron
Encoding: 175 175 111
Width: 872
GlyphClass: 2
Flags: MW
HStem: 615.895 94.1055<99 99>
LayerCount: 2
Back
Fore
SplineSet
99.576171875 615.89453125 m 0
 75.9345703125 616.771484375 62 639.177734375 62 662.950195312 c 0
 62 687.34375 77.5263671875 709.366210938 99.857421875 710 c 2
 772 710 l 2
 794.739257812 710 810 687.100585938 810 662.950195312 c 0
 810 638.7265625 794.532226562 615.899414062 772.001953125 615.900390625 c 0
 771.626953125 615.900390625 101.049804688 615.754882812 99.576171875 615.89453125 c 0
EndSplineSet
EndChar

StartChar: degree
Encoding: 176 176 112
Width: 363
GlyphClass: 2
Flags: MW
HStem: 454.818 53.1953<158.833 204.164 158.833 217.996> 657.166 53.1953<158.836 204.167>
VStem: 48.4316 51.6895<563.228 601.952 563.228 618.044> 262.879 51.6895<563.228 601.952>
LayerCount: 2
Back
Fore
SplineSet
100.12109375 582.58984375 m 0
 100.12109375 543.865234375 136.166992188 508.013671875 181.5 508.013671875 c 0
 226.827148438 508.013671875 262.87890625 543.865234375 262.87890625 582.58984375 c 0
 262.87890625 621.314453125 226.833007812 657.166015625 181.5 657.166015625 c 0
 136.172851562 657.166015625 100.12109375 621.314453125 100.12109375 582.58984375 c 0
48.431640625 582.58984375 m 0
 48.431640625 653.499023438 108.508789062 710.361328125 181.5 710.361328125 c 0
 254.491210938 710.361328125 314.568359375 653.5 314.568359375 582.58984375 c 0
 314.568359375 511.680664062 254.491210938 454.818359375 181.5 454.818359375 c 0
 108.508789062 454.818359375 48.431640625 511.6796875 48.431640625 582.58984375 c 0
EndSplineSet
EndChar

StartChar: plusminus
Encoding: 177 177 113
Width: 590
GlyphClass: 2
Flags: MW
HStem: -10 94.0996<83.7471 83.75 83.75 83.9399 83.7471 505.893> 320 94.1875<342 342>
VStem: 248.2 94.0957<155.547 320>
LayerCount: 2
Back
Fore
SplineSet
506.180664062 84.1044921875 m 0
 529.818359375 83.228515625 543.75 60.822265625 543.75 37.0498046875 c 0
 543.75 12.65625 528.223632812 -9.3662109375 505.892578125 -10 c 2
 83.75 -10 l 2
 61.0107421875 -10 45.75 12.8994140625 45.75 37.0498046875 c 0
 45.75 61.2734375 61.21875 84.1005859375 83.7470703125 84.099609375 c 0
 84.1328125 84.099609375 504.676757812 84.2490234375 506.180664062 84.1044921875 c 0
506.392578125 320 m 2
 342.387695312 320 l 1
 342.403320312 226.830078125 342.567382812 158.578125 342.295898438 155.546875 c 2
 342.295898438 155.546875 318.364257812 118.049804688 295.25 118.049804688 c 0
 270.868164062 118.049804688 248.840820312 133.361328125 248.200195312 155.907226562 c 2
 248.200195312 320 l 1
 84.25 320 l 2
 61.5107421875 320 46.25 342.899414062 46.25 367.049804688 c 0
 46.25 391.2734375 61.720703125 414.100585938 84.24609375 414.099609375 c 2
 84.24609375 414.099609375 161.123046875 414.13671875 248.200195312 414.1640625 c 1
 248.200195312 578.049804688 l 2
 248.200195312 600.7890625 271.099609375 616.049804688 295.25 616.049804688 c 0
 319.473632812 616.049804688 342.30078125 600.579101562 342.299804688 578.053710938 c 2
 342.299804688 578.053710938 342.336914062 501.217773438 342.36328125 414.1875 c 1
 435.581054688 414.203125 503.693359375 414.369140625 506.752929688 414.095703125 c 2
 506.752929688 414.095703125 544.25 390.1640625 544.25 367.049804688 c 0
 544.25 342.65625 528.723632812 320.633789062 506.392578125 320 c 2
EndSplineSet
EndChar

StartChar: uni00B2
Encoding: 178 178 114
Width: 416
GlyphClass: 2
Flags: MW
HStem: 400.475 57.7441 505.895 57.3984<122.812 140.717> 652.607 57.3984<209.75 239.411>
VStem: 49.9502 61.2354<470.956 483.248 470.956 523.306> 304.814 61.2354<592.098 631.695>
LayerCount: 2
Back
Fore
SplineSet
341.283203125 401.181640625 m 2
 341.283203125 401.181640625 287.052734375 400.821289062 206.25 400.821289062 c 0
 191.032226562 400.821289062 176.233398438 400.483398438 162.162109375 400.474609375 c 0
 103.549804688 400.434570312 49.9501953125 407.592773438 49.9501953125 479.556640625 c 0
 49.9501953125 567.055664062 104.875 563.29296875 140.75 563.29296875 c 0
 221.552734375 563.29296875 275.783203125 562.931640625 275.783203125 562.931640625 c 2
 295.01171875 562.931640625 304.814453125 576.92578125 304.814453125 607.26953125 c 0
 304.814453125 656.12109375 269.072265625 652.607421875 209.75 652.607421875 c 2
 74.75 652.594726562 l 2
 59.5185546875 652.594726562 50.75 667.419921875 50.75 681.120117188 c 0
 50.75 694.8203125 59.54296875 709.64453125 74.716796875 709.64453125 c 2
 74.716796875 709.64453125 128.947265625 710.005859375 209.75 710.005859375 c 0
 289.780273438 710.005859375 366.049804688 696.717773438 366.049804688 607.26953125 c 0
 366.049804688 529.517578125 327.79296875 505.534179688 275.75 505.534179688 c 0
 194.947265625 505.534179688 140.716796875 505.89453125 140.716796875 505.89453125 c 2
 94.1142578125 505.89453125 111.185546875 486.938476562 111.185546875 479.556640625 c 0
 111.185546875 462.35546875 144.923828125 458.21875 206.25 458.21875 c 2
 341.25 458.231445312 l 2
 356.48046875 458.231445312 365.25 443.407226562 365.25 429.70703125 c 0
 365.25 416.012695312 356.518554688 401.181640625 341.283203125 401.181640625 c 2
EndSplineSet
EndChar

StartChar: uni00B3
Encoding: 179 179 115
Width: 454
GlyphClass: 2
Flags: MW
HStem: 399.529 57.3975<221.635 274.533 221.635 292.622> 526.09 57.0498<268.741 269.187 269.187 276.567> 652.603 57.3975<249.514 274.533>
VStem: 344.578 61.2354<527.785 581.745>
LayerCount: 2
Back
Fore
SplineSet
72.0439453125 583.139648438 m 2
 269.186523438 583.139648438 l 2
 284.7578125 583.139648438 293.186523438 567.53125 293.186523438 554.115234375 c 0
 293.186523438 540.068359375 283.9453125 526.08984375 269.189453125 526.08984375 c 0
 268.29296875 526.08984375 74.216796875 525.977539062 70.458984375 526.161132812 c 0
 56.4326171875 527.200195312 48.1865234375 541.276367188 48.1865234375 554.615234375 c 0
 48.1865234375 568.5546875 57.2294921875 582.71875 72.0439453125 583.139648438 c 2
114.48046875 709.639648438 m 2
 114.48046875 709.639648438 168.7109375 710 249.513671875 710 c 0
 335.73046875 710 405.813476562 640.416015625 405.813476562 554.764648438 c 0
 405.813476562 469.114257812 335.73046875 399.529296875 249.513671875 399.529296875 c 0
 168.7109375 399.529296875 114.48046875 399.889648438 114.48046875 399.889648438 c 2
 99.306640625 399.889648438 90.513671875 414.713867188 90.513671875 428.4140625 c 0
 90.513671875 442.115234375 99.28125 456.939453125 114.515625 456.939453125 c 2
 114.515625 456.939453125 193.755859375 456.926757812 249.513671875 456.926757812 c 0
 299.552734375 456.926757812 344.578125 500.8046875 344.578125 554.764648438 c 0
 344.578125 608.724609375 299.552734375 652.602539062 249.513671875 652.602539062 c 2
 114.513671875 652.58984375 l 2
 99.2822265625 652.58984375 90.513671875 667.4140625 90.513671875 681.115234375 c 0
 90.513671875 694.80859375 99.24609375 709.639648438 114.48046875 709.639648438 c 2
EndSplineSet
EndChar

StartChar: acute
Encoding: 180 180 116
Width: 245
GlyphClass: 2
Flags: MW
HStem: 597.5 112.5<117.51 166.143>
LayerCount: 2
Back
Fore
SplineSet
45.0634765625 584.81640625 m 0
 46.8193359375 606.318359375 74.6220703125 640.513671875 87.740234375 658.827148438 c 0
 102.349609375 688.078125 133.473632812 710 162.967773438 710 c 0
 169.318359375 710 175.228515625 708.879882812 180.458984375 706.552734375 c 0
 202.022460938 696.958984375 204.546875 671.68359375 194.213867188 649.5234375 c 0
 181.131835938 621.469726562 149.93359375 597.5 119.833984375 597.5 c 0
 115.185546875 597.5 109.001953125 598.786132812 106.482421875 599.48828125 c 0
 100.614257812 579.748046875 110.778320312 579.752929688 133.025390625 566.0078125 c 2
 173.443359375 541.03125 l 1
 126.38671875 547.595703125 l 2
 99.740234375 551.313476562 41.5390625 558.317382812 45.0634765625 584.81640625 c 0
EndSplineSet
EndChar

StartChar: mu
Encoding: 181 181 117
Width: 719
GlyphClass: 2
Flags: MW
HStem: -10 102.471<319.419 416.26 302.849 442.413>
VStem: 59.0498 94.8291 565.23 94.7959<239.699 292.6>
LayerCount: 2
Back
Fore
SplineSet
59.0498046875 497.4765625 m 0
 59.0986328125 538.487304688 59.759765625 560.98828125 59.8046875 562.7265625 c 0
 59.8046875 585.240234375 82.703125 600.599609375 106.854492188 600.599609375 c 0
 131.021484375 600.599609375 153.904296875 585.350585938 153.904296875 562.59765625 c 2
 153.904296875 562.59765625 153.87890625 404.118164062 153.87890625 292.599609375 c 0
 153.87890625 186.798828125 246.143554688 92.470703125 359.5546875 92.470703125 c 0
 472.96484375 92.470703125 565.23046875 186.798828125 565.23046875 292.599609375 c 2
 565.205078125 562.599609375 l 2
 565.205078125 585.338867188 588.103515625 600.599609375 612.254882812 600.599609375 c 0
 636.421875 600.599609375 659.3046875 585.326171875 659.3046875 562.6328125 c 2
 659.3046875 562.6328125 660.026367188 454.15234375 660.026367188 292.599609375 c 0
 660.026367188 125.6328125 525.270507812 -10 359.5546875 -10 c 0
 279.284179688 -10 206.1640625 22.6376953125 153.150390625 72.8662109375 c 1
 153.150390625 -37 l 2
 153.150390625 -59.7392578125 130.250976562 -75 106.100585938 -75 c 0
 81.8759765625 -75 59.0478515625 -59.53125 59.05078125 -37.001953125 c 0
 59.05078125 -36.5244140625 58.8759765625 495.651367188 59.0498046875 497.4765625 c 0
EndSplineSet
EndChar

StartChar: paragraph
Encoding: 182 182 118
Width: 509
GlyphClass: 2
Flags: MW
HStem: 278.283 321.717
VStem: 52.4785 285.642 244.021 94.0996<27.9961 27.9961> 363.021 94.0996<27.9961 27.9961>
LayerCount: 2
Back
Fore
SplineSet
457.120117188 562.142578125 m 2xd0
 457.120117188 28 l 2
 457.120117188 5.2607421875 434.219726562 -10 410.0703125 -10 c 0
 385.845703125 -10 363.018554688 5.470703125 363.020507812 27.99609375 c 2
 363.020507812 27.99609375 362.888671875 371.006835938 362.939453125 505.900390625 c 1
 338.120117188 505.900390625 l 1
 338.120117188 28 l 2
 338.120117188 5.2607421875 315.219726562 -10 291.0703125 -10 c 0
 266.845703125 -10 244.018554688 5.470703125 244.020507812 27.99609375 c 2xb0
 244.020507812 27.99609375 243.971679688 151.573242188 243.9453125 278.283203125 c 1
 86.0419921875 284.36328125 52.7587890625 404.059570312 52.478515625 419.922851562 c 0
 52.455078125 421.6171875 51.892578125 427.705078125 51.880859375 437.560546875 c 0
 51.8310546875 481.506835938 65.015625 599.998046875 206.064453125 600 c 0
 206.467773438 600 409.099609375 600.13671875 410.689453125 599.98828125 c 2
 410.689453125 599.98828125 456.525390625 583.1015625 457.120117188 562.142578125 c 2xd0
EndSplineSet
EndChar

StartChar: periodcentered
Encoding: 183 183 119
Width: 220
GlyphClass: 2
Flags: MW
HStem: 208.75 112.5<93.8081 124.807>
VStem: 55.625 108.75<250.073 279.927>
LayerCount: 2
Back
Fore
SplineSet
55.625 265 m 0
 55.625 294.853515625 78.2412109375 321.25 109.375 321.25 c 0
 140.23828125 321.25 164.375 295.233398438 164.375 265 c 0
 164.375 234.766601562 140.23828125 208.75 109.375 208.75 c 0
 78.2412109375 208.75 55.625 235.146484375 55.625 265 c 0
EndSplineSet
EndChar

StartChar: cedilla
Encoding: 184 184 120
Width: 258
GlyphClass: 2
Flags: MW
HStem: -60.25 112.5<126.443 143.526 126.443 157.082>
VStem: 88.2598 108.734
LayerCount: 2
Back
Fore
SplineSet
205.174804688 69.376953125 m 0
 213.372070312 48.0654296875 201.34375 12.0888671875 196.994140625 -5.2763671875 c 0
 195.868164062 -36.0947265625 172.153320312 -60.25 142.009765625 -60.25 c 0
 110.875976562 -60.25 88.259765625 -33.853515625 88.259765625 -4 c 0
 88.259765625 25.853515625 110.875976562 52.25 142.009765625 52.25 c 0
 145.041992188 52.25 148.8125 51.744140625 151.3359375 51.328125 c 1
 146.11328125 67.005859375 131.0234375 71.439453125 106.434570312 83.234375 c 2
 50.0322265625 110.2890625 l 1
 112.05859375 102.166015625 l 2
 144.547851562 97.91015625 197.932617188 91.1044921875 205.174804688 69.376953125 c 0
EndSplineSet
EndChar

StartChar: uni00B9
Encoding: 185 185 121
Width: 216
GlyphClass: 2
Flags: MW
HStem: 395 315<139.653 146.112>
VStem: 110.737 57.0498<411.44 418.996>
LayerCount: 2
Back
Fore
SplineSet
139.653320312 710 m 0
 153.250976562 710 167.361328125 701.126953125 167.787109375 686.142578125 c 2
 167.787109375 419 l 2
 167.787109375 403.768554688 152.961914062 395 139.262695312 395 c 0
 125.508789062 395 110.737304688 403.883789062 110.737304688 418.99609375 c 2
 110.737304688 418.99609375 110.701171875 533.440429688 110.693359375 613.41796875 c 1
 94.8525390625 597.577148438 l 2
 84.08203125 586.8046875 67.3984375 591.08984375 57.7109375 600.776367188 c 0
 47.986328125 610.501953125 43.8212890625 627.2265625 54.509765625 637.915039062 c 0
 54.546875 637.952148438 109.475585938 692.88671875 109.797851562 693.202148438 c 0
 113.059570312 696.669921875 121.168945312 711.447265625 139.653320312 710 c 0
EndSplineSet
EndChar

StartChar: ordmasculine
Encoding: 186 186 122
Width: 331
GlyphClass: 2
Flags: MW
HStem: 485.18 48.8652<146.122 184.878 146.122 197.57> 661.135 48.8652<146.122 184.878>
VStem: 48.4844 47.5557<581.155 614.024 581.155 628.805> 234.96 47.5557<581.155 614.024>
LayerCount: 2
Back
Fore
SplineSet
96.0400390625 597.58984375 m 0
 96.0400390625 564.720703125 126.743164062 534.044921875 165.5 534.044921875 c 0
 204.255859375 534.044921875 234.959960938 564.720703125 234.959960938 597.58984375 c 0
 234.959960938 630.458984375 204.256835938 661.134765625 165.5 661.134765625 c 0
 126.744140625 661.134765625 96.0400390625 630.458984375 96.0400390625 597.58984375 c 0
48.484375 597.58984375 m 0
 48.484375 660.020507812 101.359375 710 165.5 710 c 0
 229.641601562 710 282.515625 660.0234375 282.515625 597.58984375 c 0
 282.515625 535.159179688 229.640625 485.1796875 165.5 485.1796875 c 0
 101.358398438 485.1796875 48.484375 535.15625 48.484375 597.58984375 c 0
EndSplineSet
EndChar

StartChar: guillemotright
Encoding: 187 187 123
Width: 607
GlyphClass: 2
Flags: MW
HStem: 142.713 74.2432<80.3359 87.6621> 469.042 74.2451<80.3389 87.6621>
LayerCount: 2
Back
Fore
SplineSet
337 343 m 0
 337 317.9140625 321.571289062 294.47265625 303.724609375 286.7578125 c 0
 288.081054688 276.1484375 90.6337890625 144.088867188 90.552734375 144.03515625 c 2
 89.2099609375 143.139648438 l 1
 87.662109375 142.712890625 l 2
 67.5439453125 137.158203125 47 149.600585938 47 172.41015625 c 0
 47 193.870117188 64.80078125 211.763671875 80.3359375 216.956054688 c 1
 243.947265625 343 l 1
 80.3388671875 469.041992188 l 1
 61.943359375 475.172851562 47 493.48828125 47 513.58984375 c 0
 47 536.380859375 67.537109375 548.84375 87.662109375 543.287109375 c 2
 89.2177734375 542.857421875 l 1
 90.5595703125 541.9609375 l 1
 90.5595703125 541.9609375 291.556640625 407.48828125 303.720703125 399.245117188 c 0
 324.059570312 390.470703125 337 366.6953125 337 343 c 0
560 343 m 0
 560 317.9140625 544.571289062 294.47265625 526.724609375 286.7578125 c 0
 511.081054688 276.1484375 313.633789062 144.088867188 313.552734375 144.03515625 c 2
 312.209960938 143.139648438 l 1
 310.662109375 142.712890625 l 2
 290.543945312 137.158203125 270 149.600585938 270 172.41015625 c 0
 270 193.870117188 287.80078125 211.763671875 303.3359375 216.956054688 c 1
 466.947265625 343 l 1
 303.338867188 469.041992188 l 1
 284.943359375 475.172851562 270 493.48828125 270 513.58984375 c 0
 270 536.380859375 290.537109375 548.84375 310.662109375 543.287109375 c 2
 312.217773438 542.857421875 l 1
 313.559570312 541.9609375 l 1
 313.559570312 541.9609375 514.556640625 407.48828125 526.720703125 399.245117188 c 0
 547.059570312 390.470703125 560 366.6953125 560 343 c 0
EndSplineSet
EndChar

StartChar: onequarter
Encoding: 188 188 124
Width: 607
GlyphClass: 2
Flags: MW
HStem: 109.614 57.3975<435 435> 247.688 57.3887<435 435>
VStem: 113.309 57.0508<329.94 337.496> 456.466 57.0498<13.9961 13.9961>
LayerCount: 2
Back
Fore
SplineSet
496.720703125 584.662109375 m 2
 133.850585938 22.576171875 l 2
 121.87890625 4.033203125 94.6767578125 -10 70.32421875 -10 c 0
 62.291015625 -10 55.064453125 -8.41015625 49.177734375 -4.8125 c 0
 35.3095703125 3.6640625 34.466796875 20.287109375 42.9560546875 33.4365234375 c 0
 43.10546875 33.6640625 405.184570312 594.709960938 406.0234375 595.813476562 c 2
 406.0234375 595.813476562 455.609375 628 469.290039062 628 c 0
 477.298828125 628 484.49609375 626.443359375 490.369140625 622.858398438 c 0
 504.250976562 614.384765625 504.815429688 597.77734375 496.720703125 584.662109375 c 2
513.528320312 278.078125 m 2
 513.528320312 166.6640625 l 1
 545.528320312 166.6640625 l 2
 560.759765625 166.6640625 569.528320312 151.838867188 569.528320312 138.138671875 c 0
 569.528320312 124.385742188 560.63671875 109.611328125 545.540039062 109.614257812 c 2
 545.540039062 109.614257812 531.918945312 109.598632812 513.515625 109.5859375 c 1
 513.515625 14 l 2
 513.515625 -1.2314453125 498.689453125 -10 484.990234375 -10 c 0
 471.236328125 -10 456.462890625 -1.11328125 456.465820312 13.99609375 c 2
 456.465820312 13.99609375 456.4453125 57.4521484375 456.432617188 109.5703125 c 1
 443.6484375 109.577148438 435.818359375 109.594726562 435.295898438 109.614257812 c 0
 388.540039062 109.608398438 367.27734375 109.19921875 291.94921875 109.5078125 c 2
 290.8671875 109.512695312 l 1
 289.815429688 109.747070312 l 2
 285.405273438 110.729492188 281.447265625 112.133789062 278.024414062 114.466796875 c 0
 257.725585938 128.302734375 278.359375 151.89453125 285.981445312 163.005859375 c 0
 336.681640625 236.924804688 382.559570312 302.7265625 435.081054688 305.076171875 c 0
 450.686523438 305.7734375 462.983398438 305.453125 472.8046875 304.447265625 c 0
 507.3046875 300.915039062 514.162109375 286.576171875 513.528320312 278.078125 c 2
456.4375 247.916015625 m 1
 448.529296875 247.856445312 444.25 247.802734375 435.659179688 247.6875 c 0
 422.686523438 247.516601562 400.7265625 230.036132812 357.202148438 167.645507812 c 1
 371.469726562 166.649414062 396.334960938 167.01171875 435.513671875 167.01171875 c 2
 435.513671875 167.01171875 439.919921875 167.016601562 456.422851562 167.01953125 c 1
 456.420898438 202.03125 456.43359375 227.583984375 456.4375 247.916015625 c 1
142.224609375 628.5 m 0
 155.822265625 628.5 169.93359375 619.627929688 170.359375 604.642578125 c 2
 170.359375 337.5 l 2
 170.359375 322.267578125 155.532226562 313.5 141.833984375 313.5 c 0
 128.079101562 313.5 113.30859375 322.383789062 113.30859375 337.49609375 c 2
 113.30859375 337.49609375 113.272460938 451.942382812 113.265625 531.91796875 c 1
 97.423828125 516.077148438 l 2
 86.6533203125 505.305664062 69.9697265625 509.58984375 60.2841796875 519.275390625 c 0
 50.5576171875 529.001953125 46.3935546875 545.727539062 57.08203125 556.415039062 c 0
 57.119140625 556.453125 112.044921875 611.385742188 112.372070312 611.704101562 c 0
 115.62890625 615.16796875 123.741210938 629.947265625 142.224609375 628.5 c 0
EndSplineSet
EndChar

StartChar: onehalf
Encoding: 189 189 125
Width: 686
GlyphClass: 2
Flags: MW
HStem: -10.3467 57.7451 95.0742 57.3984<401.422 419.326> 241.787 57.3984<488.359 518.02>
VStem: 117.178 57.0508<329.94 337.496> 328.56 61.2354<60.1353 72.4272 60.1353 112.486> 583.424 61.2354<181.277 220.875>
LayerCount: 2
Back
Fore
SplineSet
500.58984375 584.662109375 m 2
 137.719726562 22.576171875 l 2
 125.748046875 4.033203125 98.5458984375 -10 74.193359375 -10 c 0
 66.16015625 -10 58.93359375 -8.41015625 53.046875 -4.8125 c 0
 39.1787109375 3.6640625 38.3359375 20.287109375 46.8251953125 33.4365234375 c 0
 46.974609375 33.6640625 409.053710938 594.709960938 409.892578125 595.813476562 c 2
 409.892578125 595.813476562 459.478515625 628 473.159179688 628 c 0
 481.16796875 628 488.365234375 626.443359375 494.23828125 622.858398438 c 0
 508.120117188 614.384765625 508.684570312 597.77734375 500.58984375 584.662109375 c 2
619.892578125 -9.638671875 m 2
 619.892578125 -9.638671875 565.662109375 -10 484.859375 -10 c 0
 469.641601562 -10 454.842773438 -10.337890625 440.772460938 -10.3466796875 c 0
 382.159179688 -10.38671875 328.559570312 -3.228515625 328.559570312 68.736328125 c 0
 328.559570312 156.235351562 383.485351562 152.47265625 419.359375 152.47265625 c 0
 500.162109375 152.47265625 554.392578125 152.111328125 554.392578125 152.111328125 c 2
 573.620117188 152.111328125 583.423828125 166.104492188 583.423828125 196.44921875 c 0
 583.423828125 245.30078125 547.680664062 241.787109375 488.359375 241.787109375 c 2
 353.359375 241.774414062 l 2
 338.126953125 241.774414062 329.359375 256.599609375 329.359375 270.298828125 c 0
 329.359375 284 338.151367188 298.82421875 353.326171875 298.82421875 c 2
 353.326171875 298.82421875 407.555664062 299.185546875 488.359375 299.185546875 c 0
 568.389648438 299.185546875 644.659179688 285.897460938 644.659179688 196.44921875 c 0
 644.659179688 118.696289062 606.401367188 94.712890625 554.359375 94.712890625 c 0
 473.555664062 94.712890625 419.326171875 95.07421875 419.326171875 95.07421875 c 2
 372.723632812 95.07421875 389.794921875 76.1181640625 389.794921875 68.736328125 c 0
 389.794921875 51.5341796875 423.533203125 47.3984375 484.859375 47.3984375 c 2
 619.859375 47.4111328125 l 2
 635.090820312 47.4111328125 643.859375 32.5859375 643.859375 18.88671875 c 0
 643.859375 5.1923828125 635.127929688 -9.638671875 619.892578125 -9.638671875 c 2
146.09375 628.5 m 0
 159.69140625 628.5 173.802734375 619.627929688 174.228515625 604.642578125 c 2
 174.228515625 337.5 l 2
 174.228515625 322.267578125 159.401367188 313.5 145.703125 313.5 c 0
 131.948242188 313.5 117.177734375 322.383789062 117.177734375 337.49609375 c 2
 117.177734375 337.49609375 117.141601562 451.942382812 117.134765625 531.91796875 c 1
 101.29296875 516.077148438 l 2
 90.5224609375 505.305664062 73.8388671875 509.58984375 64.1533203125 519.275390625 c 0
 54.4267578125 529.001953125 50.2626953125 545.727539062 60.951171875 556.415039062 c 0
 60.98828125 556.453125 115.9140625 611.385742188 116.241210938 611.704101562 c 0
 119.498046875 615.16796875 127.610351562 629.947265625 146.09375 628.5 c 0
EndSplineSet
EndChar

StartChar: threequarters
Encoding: 190 190 126
Width: 693
GlyphClass: 2
Flags: MW
HStem: 109.614 57.3975<522 522> 247.688 57.3887<523 523> 317.529 57.3975<171.516 224.414 171.516 242.503> 444.09 57.0498<218.682 219.067 219.067 226.448> 570.603 57.3975<171.515 224.414>
VStem: 294.459 61.2354<445.785 499.745> 543.87 57.0498<13.9961 13.9961>
LayerCount: 2
Back
Fore
SplineSet
584.125976562 584.662109375 m 2
 221.255859375 22.576171875 l 2
 209.284179688 4.033203125 182.081054688 -10 157.728515625 -10 c 0
 149.6953125 -10 142.46875 -8.41015625 136.58203125 -4.8125 c 0
 122.713867188 3.6640625 121.872070312 20.287109375 130.361328125 33.4365234375 c 0
 130.5078125 33.6611328125 492.596679688 594.716796875 493.422851562 595.807617188 c 2
 493.422851562 595.807617188 543.01953125 628 556.694335938 628 c 0
 564.703125 628 571.899414062 626.443359375 577.774414062 622.858398438 c 0
 591.655273438 614.383789062 592.220703125 597.77734375 584.125976562 584.662109375 c 2
600.932617188 278.078125 m 2
 600.932617188 166.6640625 l 1
 632.932617188 166.6640625 l 2
 648.1640625 166.6640625 656.932617188 151.838867188 656.932617188 138.138671875 c 0
 656.932617188 124.385742188 648.041015625 109.611328125 632.944335938 109.614257812 c 2
 632.944335938 109.614257812 619.32421875 109.598632812 600.919921875 109.5859375 c 1
 600.919921875 14 l 2
 600.919921875 -1.2314453125 586.094726562 -10 572.39453125 -10 c 0
 558.640625 -10 543.8671875 -1.11328125 543.870117188 13.99609375 c 2
 543.870117188 13.99609375 543.850585938 57.4521484375 543.836914062 109.5703125 c 1
 531.053710938 109.577148438 523.223632812 109.594726562 522.701171875 109.614257812 c 0
 475.944335938 109.608398438 454.682617188 109.19921875 379.353515625 109.5078125 c 2
 378.271484375 109.512695312 l 1
 377.219726562 109.747070312 l 2
 372.809570312 110.729492188 368.853515625 112.1328125 365.428710938 114.466796875 c 0
 345.129882812 128.302734375 365.764648438 151.89453125 373.38671875 163.005859375 c 0
 424.086914062 236.924804688 469.96484375 302.7265625 522.485351562 305.076171875 c 0
 538.090820312 305.7734375 550.388671875 305.453125 560.208007812 304.447265625 c 0
 594.708984375 300.915039062 601.56640625 286.576171875 600.932617188 278.078125 c 2
543.842773438 247.916015625 m 1
 535.934570312 247.856445312 531.654296875 247.802734375 523.064453125 247.6875 c 0
 510.090820312 247.516601562 488.130859375 230.037109375 444.607421875 167.645507812 c 1
 458.874023438 166.649414062 483.739257812 167.01171875 522.918945312 167.01171875 c 2
 522.918945312 167.01171875 527.325195312 167.016601562 543.827148438 167.01953125 c 1
 543.825195312 202.03125 543.838867188 227.583984375 543.842773438 247.916015625 c 1
59.9248046875 501.139648438 m 2
 219.067382812 501.139648438 l 2
 234.638671875 501.139648438 243.067382812 485.53125 243.067382812 472.115234375 c 0
 243.067382812 458.068359375 233.825195312 444.08984375 219.0703125 444.08984375 c 0
 218.29296875 444.08984375 61.9189453125 443.986328125 58.35546875 444.16015625 c 0
 44.3037109375 445.201171875 36.0673828125 459.27734375 36.0673828125 472.615234375 c 0
 36.0673828125 486.5546875 45.1103515625 500.71875 59.9248046875 501.139648438 c 2
102.287109375 627.639648438 m 2
 102.287109375 627.639648438 118.609375 628 199.39453125 628 c 0
 285.611328125 628 355.694335938 558.416015625 355.694335938 472.764648438 c 0
 355.694335938 387.114257812 285.611328125 317.529296875 199.39453125 317.529296875 c 0
 118.609375 317.529296875 102.287109375 317.889648438 102.287109375 317.889648438 c 2
 87.2431640625 317.889648438 78.39453125 332.711914062 78.39453125 346.4140625 c 0
 78.39453125 360.115234375 87.162109375 374.939453125 102.3984375 374.939453125 c 2
 102.3984375 374.939453125 143.63671875 374.926757812 199.39453125 374.926757812 c 0
 249.43359375 374.926757812 294.458984375 418.8046875 294.458984375 472.764648438 c 0
 294.458984375 526.724609375 249.43359375 570.602539062 199.39453125 570.602539062 c 0
 143.634765625 570.602539062 102.400390625 570.58984375 102.39453125 570.58984375 c 0
 87.1630859375 570.58984375 78.39453125 585.4140625 78.39453125 599.115234375 c 0
 78.39453125 612.795898438 87.0419921875 627.639648438 102.287109375 627.639648438 c 2
EndSplineSet
EndChar

StartChar: questiondown
Encoding: 191 191 127
Width: 612
GlyphClass: 2
Flags: MW
HStem: -10 84.3242<266.187 303.678 266.187 373.149> 207.942 83.7256<76.1162 360.064 76.1162 144.943> 491.041 99.5498<337.898 365.397 337.894 365.416>
VStem: 302.88 96.3252<527.64 553.983 527.64 554.183> 310.276 83.7344
LayerCount: 2
Back
Fore
SplineSet
394.010742188 249.479492188 m 0xe8
 393.439453125 226.583984375 380.061523438 208.510742188 360.064453125 207.942382812 c 2
 144.943359375 207.942382812 l 1
 173.912109375 128.456054688 228.6953125 74.32421875 303.677734375 74.32421875 c 2
 535.877929688 74.345703125 l 2
 556.515625 74.345703125 569.958007812 53.7119140625 569.958007812 32.4833984375 c 0
 569.958007812 11.244140625 556.5 -9.3798828125 535.911132812 -9.3798828125 c 2
 535.911132812 -9.3798828125 442.620117188 -10 303.677734375 -10 c 0
 159.321289062 -10 42.0419921875 106.505859375 42.0419921875 249.805664062 c 0
 42.0419921875 271.099609375 55.669921875 291.668945312 76.1162109375 291.66796875 c 2
 76.1162109375 291.66796875 230.971679688 291.762695312 310.276367188 291.745117188 c 1
 310.276367188 447.60546875 l 2
 310.276367188 468.2421875 330.911132812 481.685546875 352.139648438 481.685546875 c 0
 373.43359375 481.685546875 394.002929688 468.059570312 394.001953125 447.610351562 c 0
 394.001953125 447.357421875 394.106445312 250.629882812 394.010742188 249.479492188 c 0xe8
399.205078125 540.81640625 m 0xf0
 399.205078125 514.463867188 379.251953125 491.041015625 351.580078125 491.041015625 c 0
 324.215820312 491.041015625 302.879882812 514.1015625 302.879882812 540.81640625 c 0
 302.879882812 567.548828125 324.20703125 590.590820312 351.580078125 590.590820312 c 0
 379.213867188 590.590820312 399.205078125 567.149414062 399.205078125 540.81640625 c 0xf0
EndSplineSet
EndChar

StartChar: Agrave
Encoding: 192 192 128
Width: 760
GlyphClass: 2
Flags: MW
HStem: 0 102.471<316.698 425.183> 482.729 102.471<316.699 443.302> 646 112.5<331.67 391.426>
VStem: 54.2402 98.7324<242.65 342.548 242.65 373.594> 611.15 94.0996<9.31445 19.4707>
LayerCount: 2
Back
Fore
SplineSet
380 585.19921875 m 0
 562.490234375 585.19921875 705.759765625 454.583007812 705.759765625 292.565429688 c 2
 705.25 19.8251953125 l 2
 705.25 -1.1962890625 671.095703125 -1.2861328125 656.412109375 -1.2919921875 c 0
 642.8046875 -1.2978515625 611.150390625 -1.4677734375 611.150390625 19.470703125 c 2
 611.15625 86.86328125 l 1
 551.447265625 32.283203125 470.366210938 0 380 0 c 0
 197.509765625 0 54.240234375 130.610351562 54.240234375 292.599609375 c 0
 54.240234375 454.588867188 197.509765625 585.19921875 380 585.19921875 c 0
607.02734375 292.599609375 m 0
 607.02734375 392.497070312 506.603515625 482.728515625 380 482.728515625 c 0
 253.3984375 482.728515625 152.97265625 392.497070312 152.97265625 292.599609375 c 0
 152.97265625 192.701171875 253.396484375 102.470703125 380 102.470703125 c 0
 506.6015625 102.470703125 607.02734375 192.701171875 607.02734375 292.599609375 c 0
422.48046875 707.377929688 m 1
 438.76953125 685.751953125 465.4765625 655.466796875 467.376953125 633.330078125 c 0
 471.09765625 606.734375 409.952148438 599.80859375 381.942382812 596.09375 c 2
 332.579101562 589.546875 l 1
 375.119140625 614.537109375 l 2
 399.293945312 628.740234375 408.779296875 629.662109375 403.060546875 647.915039062 c 1
 397.95703125 646.427734375 393.981445312 646 388.87109375 646 c 0
 357.356445312 646 324.557617188 669.893554688 310.786132812 697.977539062 c 0
 306.666015625 706.375 304.4609375 714.7734375 304.450195312 722.784179688 c 0
 304.418945312 743.23046875 319.8359375 758.5 343.504882812 758.5 c 0
 375.432617188 758.5 408.525390625 733.930664062 422.48046875 707.377929688 c 1
EndSplineSet
EndChar

StartChar: Aacute
Encoding: 193 193 129
Width: 760
GlyphClass: 2
Flags: MW
HStem: 0 102.471<316.698 425.183> 482.729 102.471<316.699 443.302> 646 112.5<365.89 417.061>
VStem: 54.2402 98.7324<242.65 342.548 242.65 373.594> 611.15 94.0996<9.31445 19.4707>
LayerCount: 2
Back
Fore
SplineSet
380 585.19921875 m 0
 562.490234375 585.19921875 705.759765625 454.583007812 705.759765625 292.565429688 c 2
 705.25 19.8251953125 l 2
 705.25 -1.1962890625 671.095703125 -1.2861328125 656.412109375 -1.2919921875 c 0
 642.8046875 -1.2978515625 611.150390625 -1.4677734375 611.150390625 19.470703125 c 2
 611.15625 86.86328125 l 1
 551.447265625 32.283203125 470.366210938 0 380 0 c 0
 197.509765625 0 54.240234375 130.610351562 54.240234375 292.599609375 c 0
 54.240234375 454.588867188 197.509765625 585.19921875 380 585.19921875 c 0
607.02734375 292.599609375 m 0
 607.02734375 392.497070312 506.603515625 482.728515625 380 482.728515625 c 0
 253.3984375 482.728515625 152.97265625 392.497070312 152.97265625 292.599609375 c 0
 152.97265625 192.701171875 253.396484375 102.470703125 380 102.470703125 c 0
 506.6015625 102.470703125 607.02734375 192.701171875 607.02734375 292.599609375 c 0
375.298828125 596.09375 m 2
 347.2734375 599.810546875 286.147460938 606.756835938 289.864257812 633.330078125 c 0
 291.739257812 655.15625 320.936523438 689.028320312 334.759765625 707.376953125 c 0
 350.127929688 736.63671875 382.850585938 758.5 413.736328125 758.5 c 0
 420.384765625 758.5 426.5625 757.38671875 432.03515625 755.072265625 c 0
 454.618164062 745.518554688 457.352539062 720.19140625 446.456054688 697.978515625 c 0
 432.682617188 669.893554688 399.885742188 646 368.370117188 646 c 0
 363.409179688 646 357.259765625 647.220703125 354.2109375 648.028320312 c 0
 348.014648438 628.302734375 358.677734375 628.310546875 382.123046875 614.537109375 c 2
 424.66015625 589.546875 l 1
 375.298828125 596.09375 l 2
EndSplineSet
EndChar

